solid oficina
facet normal 3.885780586188047e-16 0.0 1.0
  outer loop
    vertex -140.86132161607947 40.517044078960474 115.13415285140165
    vertex -142.86132161607947 38.51704407896048 115.13415285140165
    vertex -140.86132161607947 -10.48295592103952 115.13415285140165
  endloop
endfacet
facet normal 3.885780586188047e-16 0.0 1.0
  outer loop
    vertex -142.86132161607947 38.51704407896048 115.13415285140165
    vertex -140.86132161607947 40.517044078960474 115.13415285140165
    vertex -148.86132161607944 40.517044078960474 115.13415285140154
  endloop
endfacet
facet normal 3.885780586188047e-16 0.0 1.0
  outer loop
    vertex -142.86132161607947 38.51704407896048 115.13415285140165
    vertex -148.86132161607944 40.517044078960474 115.13415285140154
    vertex -146.86132161607944 38.51704407896048 115.13415285140154
  endloop
endfacet
facet normal 3.885780586188047e-16 0.0 1.0
  outer loop
    vertex -146.86132161607944 38.51704407896048 115.13415285140154
    vertex -148.86132161607944 40.517044078960474 115.13415285140154
    vertex -146.86132161607944 -8.482955921039524 115.13415285140154
  endloop
endfacet
facet normal 3.885780586188047e-16 0.0 1.0
  outer loop
    vertex -140.86132161607947 -10.48295592103952 115.13415285140165
    vertex -142.86132161607947 -8.482955921039524 115.13415285140165
    vertex -148.86132161607944 -10.48295592103952 115.13415285140154
  endloop
endfacet
facet normal 3.885780586188047e-16 0.0 1.0
  outer loop
    vertex -142.86132161607947 -8.482955921039524 115.13415285140165
    vertex -140.86132161607947 -10.48295592103952 115.13415285140165
    vertex -142.86132161607947 38.51704407896048 115.13415285140165
  endloop
endfacet
facet normal 3.885780586188047e-16 0.0 1.0
  outer loop
    vertex -148.86132161607944 -10.48295592103952 115.13415285140154
    vertex -142.86132161607947 -8.482955921039524 115.13415285140165
    vertex -146.86132161607944 -8.482955921039524 115.13415285140154
  endloop
endfacet
facet normal 3.885780586188047e-16 0.0 1.0
  outer loop
    vertex -148.86132161607944 -10.48295592103952 115.13415285140154
    vertex -146.86132161607944 -8.482955921039524 115.13415285140154
    vertex -148.86132161607944 40.517044078960474 115.13415285140154
  endloop
endfacet
facet normal 3.885780586188047e-16 0.0 1.0
  outer loop
    vertex -146.86132161607944 38.51704407896048 115.13415285140154
    vertex -142.86132161607947 -8.482955921039524 115.13415285140165
    vertex -142.86132161607947 38.51704407896048 115.13415285140165
  endloop
endfacet
facet normal 3.885780586188047e-16 0.0 1.0
  outer loop
    vertex -142.86132161607947 -8.482955921039524 115.13415285140165
    vertex -146.86132161607944 38.51704407896048 115.13415285140154
    vertex -146.86132161607944 -8.482955921039524 115.13415285140154
  endloop
endfacet
facet normal 0.0 -1.0 0.0
  outer loop
    vertex -148.86132161607944 -10.48295592103952 115.13415285140154
    vertex -140.86132161607947 -10.48295592103952 113.13415285140165
    vertex -140.86132161607947 -10.48295592103952 115.13415285140165
  endloop
endfacet
facet normal 0.0 -1.0 0.0
  outer loop
    vertex -140.86132161607947 -10.48295592103952 113.13415285140165
    vertex -148.86132161607944 -10.48295592103952 115.13415285140154
    vertex -148.86132161607944 -10.48295592103952 113.13415285140154
  endloop
endfacet
facet normal 0.0 1.0 0.0
  outer loop
    vertex -140.86132161607947 40.517044078960474 113.13415285140165
    vertex -148.86132161607944 40.517044078960474 115.13415285140154
    vertex -140.86132161607947 40.517044078960474 115.13415285140165
  endloop
endfacet
facet normal 0.0 1.0 0.0
  outer loop
    vertex -148.86132161607944 40.517044078960474 115.13415285140154
    vertex -140.86132161607947 40.517044078960474 113.13415285140165
    vertex -148.86132161607944 40.517044078960474 113.13415285140154
  endloop
endfacet
facet normal -0.0 -1.0 0.0
  outer loop
    vertex -152.36132161607944 -10.48295592103952 93.13415285140157
    vertex -148.86132161607944 -10.48295592103952 113.13415285140154
    vertex -152.36132161607944 -10.48295592103952 113.13415285140154
  endloop
endfacet
facet normal -0.0 -1.0 0.0
  outer loop
    vertex -148.86132161607944 -10.48295592103952 113.13415285140154
    vertex -152.36132161607944 -10.48295592103952 93.13415285140157
    vertex -137.36132161607947 -10.48295592103952 93.13415285140165
  endloop
endfacet
facet normal -0.0 -1.0 0.0
  outer loop
    vertex -148.86132161607944 -10.48295592103952 113.13415285140154
    vertex -137.36132161607947 -10.48295592103952 113.13415285140165
    vertex -140.86132161607947 -10.48295592103952 113.13415285140165
  endloop
endfacet
facet normal -0.0 -1.0 0.0
  outer loop
    vertex -137.36132161607947 -10.48295592103952 113.13415285140165
    vertex -148.86132161607944 -10.48295592103952 113.13415285140154
    vertex -137.36132161607947 -10.48295592103952 93.13415285140165
  endloop
endfacet
facet normal 0.0 1.0 0.0
  outer loop
    vertex -137.36132161607947 40.517044078960474 93.13415285140165
    vertex -140.86132161607947 40.517044078960474 113.13415285140165
    vertex -137.36132161607947 40.517044078960474 113.13415285140165
  endloop
endfacet
facet normal 0.0 1.0 0.0
  outer loop
    vertex -140.86132161607947 40.517044078960474 113.13415285140165
    vertex -137.36132161607947 40.517044078960474 93.13415285140165
    vertex -148.86132161607944 40.517044078960474 113.13415285140154
  endloop
endfacet
facet normal 0.0 1.0 0.0
  outer loop
    vertex -148.86132161607944 40.517044078960474 113.13415285140154
    vertex -137.36132161607947 40.517044078960474 93.13415285140165
    vertex -152.36132161607944 40.517044078960474 113.13415285140154
  endloop
endfacet
facet normal 0.0 1.0 0.0
  outer loop
    vertex -152.36132161607944 40.517044078960474 113.13415285140154
    vertex -137.36132161607947 40.517044078960474 93.13415285140165
    vertex -152.36132161607944 40.517044078960474 93.13415285140157
  endloop
endfacet
facet normal 1.0 0.0 -3.885780586188047e-16
  outer loop
    vertex -150.36132161607944 38.51704407896048 93.13415285140157
    vertex -150.36132161607944 -8.482955921039524 113.13415285140154
    vertex -150.36132161607944 -8.482955921039524 93.13415285140157
  endloop
endfacet
facet normal 1.0 0.0 -3.885780586188047e-16
  outer loop
    vertex -150.36132161607944 -8.482955921039524 113.13415285140154
    vertex -150.36132161607944 38.51704407896048 93.13415285140157
    vertex -150.36132161607944 38.51704407896048 113.13415285140154
  endloop
endfacet
facet normal -1.0 0.0 3.885780586188047e-16
  outer loop
    vertex -139.36132161607947 38.51704407896048 113.13415285140165
    vertex -139.36132161607947 -8.482955921039524 93.13415285140165
    vertex -139.36132161607947 -8.482955921039524 113.13415285140165
  endloop
endfacet
facet normal -1.0 0.0 3.885780586188047e-16
  outer loop
    vertex -139.36132161607947 -8.482955921039524 93.13415285140165
    vertex -139.36132161607947 38.51704407896048 113.13415285140165
    vertex -139.36132161607947 38.51704407896048 93.13415285140165
  endloop
endfacet
facet normal -1.0 0.0 3.885780586188047e-16
  outer loop
    vertex -168.86132161607947 40.517044078960474 115.13415285140154
    vertex -168.86132161607947 -10.48295592103952 113.13415285140154
    vertex -168.86132161607947 -10.48295592103952 115.13415285140154
  endloop
endfacet
facet normal -1.0 0.0 3.885780586188047e-16
  outer loop
    vertex -168.86132161607947 -10.48295592103952 113.13415285140154
    vertex -168.86132161607947 40.517044078960474 115.13415285140154
    vertex -168.86132161607947 40.517044078960474 113.13415285140154
  endloop
endfacet
facet normal 3.885780586188047e-16 0.0 1.0
  outer loop
    vertex -168.86132161607947 40.517044078960474 115.13415285140154
    vertex -148.86132161607944 -10.48295592103952 115.13415285140154
    vertex -148.86132161607944 40.517044078960474 115.13415285140154
  endloop
endfacet
facet normal 3.885780586188047e-16 0.0 1.0
  outer loop
    vertex -148.86132161607944 -10.48295592103952 115.13415285140154
    vertex -168.86132161607947 40.517044078960474 115.13415285140154
    vertex -168.86132161607947 -10.48295592103952 115.13415285140154
  endloop
endfacet
facet normal 0.0 1.0 0.0
  outer loop
    vertex -148.86132161607944 40.517044078960474 113.13415285140154
    vertex -168.86132161607947 40.517044078960474 115.13415285140154
    vertex -148.86132161607944 40.517044078960474 115.13415285140154
  endloop
endfacet
facet normal 0.0 1.0 0.0
  outer loop
    vertex -168.86132161607947 40.517044078960474 115.13415285140154
    vertex -148.86132161607944 40.517044078960474 113.13415285140154
    vertex -168.86132161607947 40.517044078960474 113.13415285140154
  endloop
endfacet
facet normal 0.0 1.0 0.0
  outer loop
    vertex -168.86132161607947 40.517044078960474 113.13415285140154
    vertex -148.86132161607944 40.517044078960474 113.13415285140154
    vertex -152.36132161607944 40.517044078960474 113.13415285140154
  endloop
endfacet
facet normal -3.885780586188047e-16 0.0 -1.0
  outer loop
    vertex -168.86132161607947 -10.48295592103952 113.13415285140154
    vertex -152.36132161607944 40.517044078960474 113.13415285140154
    vertex -152.36132161607944 -10.48295592103952 113.13415285140154
  endloop
endfacet
facet normal -3.885780586188047e-16 0.0 -1.0
  outer loop
    vertex -152.36132161607944 40.517044078960474 113.13415285140154
    vertex -168.86132161607947 -10.48295592103952 113.13415285140154
    vertex -168.86132161607947 40.517044078960474 113.13415285140154
  endloop
endfacet
facet normal 0.0 -1.0 0.0
  outer loop
    vertex -168.86132161607947 -10.48295592103952 113.13415285140154
    vertex -148.86132161607944 -10.48295592103952 115.13415285140154
    vertex -168.86132161607947 -10.48295592103952 115.13415285140154
  endloop
endfacet
facet normal 0.0 -1.0 0.0
  outer loop
    vertex -148.86132161607944 -10.48295592103952 115.13415285140154
    vertex -168.86132161607947 -10.48295592103952 113.13415285140154
    vertex -148.86132161607944 -10.48295592103952 113.13415285140154
  endloop
endfacet
facet normal 0.0 -1.0 0.0
  outer loop
    vertex -148.86132161607944 -10.48295592103952 113.13415285140154
    vertex -168.86132161607947 -10.48295592103952 113.13415285140154
    vertex -152.36132161607944 -10.48295592103952 113.13415285140154
  endloop
endfacet
facet normal 1.0 0.0 -3.885780586188047e-16
  outer loop
    vertex -120.8613216160795 40.517044078960474 113.13415285140165
    vertex -120.8613216160795 -10.48295592103952 115.13415285140165
    vertex -120.8613216160795 -10.48295592103952 113.13415285140165
  endloop
endfacet
facet normal 1.0 0.0 -3.885780586188047e-16
  outer loop
    vertex -120.8613216160795 -10.48295592103952 115.13415285140165
    vertex -120.8613216160795 40.517044078960474 113.13415285140165
    vertex -120.8613216160795 40.517044078960474 115.13415285140165
  endloop
endfacet
facet normal 3.885780586188047e-16 0.0 1.0
  outer loop
    vertex -140.86132161607947 40.517044078960474 115.13415285140165
    vertex -120.8613216160795 -10.48295592103952 115.13415285140165
    vertex -120.8613216160795 40.517044078960474 115.13415285140165
  endloop
endfacet
facet normal 3.885780586188047e-16 0.0 1.0
  outer loop
    vertex -120.8613216160795 -10.48295592103952 115.13415285140165
    vertex -140.86132161607947 40.517044078960474 115.13415285140165
    vertex -140.86132161607947 -10.48295592103952 115.13415285140165
  endloop
endfacet
facet normal 0.0 -1.0 0.0
  outer loop
    vertex -140.86132161607947 -10.48295592103952 113.13415285140165
    vertex -120.8613216160795 -10.48295592103952 115.13415285140165
    vertex -140.86132161607947 -10.48295592103952 115.13415285140165
  endloop
endfacet
facet normal 0.0 -1.0 0.0
  outer loop
    vertex -120.8613216160795 -10.48295592103952 115.13415285140165
    vertex -140.86132161607947 -10.48295592103952 113.13415285140165
    vertex -120.8613216160795 -10.48295592103952 113.13415285140165
  endloop
endfacet
facet normal 0.0 -1.0 0.0
  outer loop
    vertex -120.8613216160795 -10.48295592103952 113.13415285140165
    vertex -140.86132161607947 -10.48295592103952 113.13415285140165
    vertex -137.36132161607947 -10.48295592103952 113.13415285140165
  endloop
endfacet
facet normal -3.885780586188047e-16 0.0 -1.0
  outer loop
    vertex -137.36132161607947 -10.48295592103952 113.13415285140165
    vertex -120.8613216160795 40.517044078960474 113.13415285140165
    vertex -120.8613216160795 -10.48295592103952 113.13415285140165
  endloop
endfacet
facet normal -3.885780586188047e-16 0.0 -1.0
  outer loop
    vertex -120.8613216160795 40.517044078960474 113.13415285140165
    vertex -137.36132161607947 -10.48295592103952 113.13415285140165
    vertex -137.36132161607947 40.517044078960474 113.13415285140165
  endloop
endfacet
facet normal 0.0 1.0 0.0
  outer loop
    vertex -120.8613216160795 40.517044078960474 113.13415285140165
    vertex -140.86132161607947 40.517044078960474 115.13415285140165
    vertex -120.8613216160795 40.517044078960474 115.13415285140165
  endloop
endfacet
facet normal 0.0 1.0 0.0
  outer loop
    vertex -140.86132161607947 40.517044078960474 115.13415285140165
    vertex -120.8613216160795 40.517044078960474 113.13415285140165
    vertex -140.86132161607947 40.517044078960474 113.13415285140165
  endloop
endfacet
facet normal 0.0 1.0 0.0
  outer loop
    vertex -140.86132161607947 40.517044078960474 113.13415285140165
    vertex -120.8613216160795 40.517044078960474 113.13415285140165
    vertex -137.36132161607947 40.517044078960474 113.13415285140165
  endloop
endfacet
facet normal -3.885780586188047e-16 0.0 -1.0
  outer loop
    vertex -150.36132161607944 -8.482955921039524 113.13415285140154
    vertex -139.36132161607947 38.51704407896048 113.13415285140165
    vertex -139.36132161607947 -8.482955921039524 113.13415285140165
  endloop
endfacet
facet normal -3.885780586188047e-16 0.0 -1.0
  outer loop
    vertex -139.36132161607947 38.51704407896048 113.13415285140165
    vertex -150.36132161607944 -8.482955921039524 113.13415285140154
    vertex -150.36132161607944 38.51704407896048 113.13415285140154
  endloop
endfacet
facet normal 0.0 1.0 0.0
  outer loop
    vertex -139.36132161607947 -8.482955921039524 93.13415285140165
    vertex -150.36132161607944 -8.482955921039524 113.13415285140154
    vertex -139.36132161607947 -8.482955921039524 113.13415285140165
  endloop
endfacet
facet normal 0.0 1.0 0.0
  outer loop
    vertex -150.36132161607944 -8.482955921039524 113.13415285140154
    vertex -139.36132161607947 -8.482955921039524 93.13415285140165
    vertex -150.36132161607944 -8.482955921039524 93.13415285140157
  endloop
endfacet
facet normal -0.0 -1.0 0.0
  outer loop
    vertex -150.36132161607944 38.51704407896048 113.13415285140154
    vertex -139.36132161607947 38.51704407896048 93.13415285140165
    vertex -139.36132161607947 38.51704407896048 113.13415285140165
  endloop
endfacet
facet normal -0.0 -1.0 0.0
  outer loop
    vertex -139.36132161607947 38.51704407896048 93.13415285140165
    vertex -150.36132161607944 38.51704407896048 113.13415285140154
    vertex -150.36132161607944 38.51704407896048 93.13415285140157
  endloop
endfacet
facet normal -3.885780586188047e-16 0.0 -1.0
  outer loop
    vertex -137.36132161607947 -10.48295592103952 93.13415285140165
    vertex -139.36132161607947 -8.482955921039524 93.13415285140165
    vertex -137.36132161607947 40.517044078960474 93.13415285140165
  endloop
endfacet
facet normal -3.885780586188047e-16 0.0 -1.0
  outer loop
    vertex -139.36132161607947 -8.482955921039524 93.13415285140165
    vertex -137.36132161607947 -10.48295592103952 93.13415285140165
    vertex -152.36132161607944 -10.48295592103952 93.13415285140157
  endloop
endfacet
facet normal -3.885780586188047e-16 0.0 -1.0
  outer loop
    vertex -139.36132161607947 -8.482955921039524 93.13415285140165
    vertex -152.36132161607944 -10.48295592103952 93.13415285140157
    vertex -150.36132161607944 -8.482955921039524 93.13415285140157
  endloop
endfacet
facet normal -3.885780586188047e-16 0.0 -1.0
  outer loop
    vertex -150.36132161607944 -8.482955921039524 93.13415285140157
    vertex -152.36132161607944 -10.48295592103952 93.13415285140157
    vertex -150.36132161607944 38.51704407896048 93.13415285140157
  endloop
endfacet
facet normal -3.885780586188047e-16 0.0 -1.0
  outer loop
    vertex -137.36132161607947 40.517044078960474 93.13415285140165
    vertex -139.36132161607947 38.51704407896048 93.13415285140165
    vertex -152.36132161607944 40.517044078960474 93.13415285140157
  endloop
endfacet
facet normal -3.885780586188047e-16 0.0 -1.0
  outer loop
    vertex -139.36132161607947 38.51704407896048 93.13415285140165
    vertex -137.36132161607947 40.517044078960474 93.13415285140165
    vertex -139.36132161607947 -8.482955921039524 93.13415285140165
  endloop
endfacet
facet normal -3.885780586188047e-16 0.0 -1.0
  outer loop
    vertex -152.36132161607944 40.517044078960474 93.13415285140157
    vertex -139.36132161607947 38.51704407896048 93.13415285140165
    vertex -150.36132161607944 38.51704407896048 93.13415285140157
  endloop
endfacet
facet normal -3.885780586188047e-16 0.0 -1.0
  outer loop
    vertex -152.36132161607944 40.517044078960474 93.13415285140157
    vertex -150.36132161607944 38.51704407896048 93.13415285140157
    vertex -152.36132161607944 -10.48295592103952 93.13415285140157
  endloop
endfacet
facet normal -1.0 0.0 3.885780586188047e-16
  outer loop
    vertex -152.36132161607944 40.517044078960474 113.13415285140154
    vertex -152.36132161607944 -10.48295592103952 93.13415285140157
    vertex -152.36132161607944 -10.48295592103952 113.13415285140154
  endloop
endfacet
facet normal -1.0 0.0 3.885780586188047e-16
  outer loop
    vertex -152.36132161607944 -10.48295592103952 93.13415285140157
    vertex -152.36132161607944 40.517044078960474 113.13415285140154
    vertex -152.36132161607944 40.517044078960474 93.13415285140157
  endloop
endfacet
facet normal 1.0 0.0 -3.885780586188047e-16
  outer loop
    vertex -137.36132161607947 40.517044078960474 93.13415285140165
    vertex -137.36132161607947 -10.48295592103952 113.13415285140165
    vertex -137.36132161607947 -10.48295592103952 93.13415285140165
  endloop
endfacet
facet normal 1.0 0.0 -3.885780586188047e-16
  outer loop
    vertex -137.36132161607947 -10.48295592103952 113.13415285140165
    vertex -137.36132161607947 40.517044078960474 93.13415285140165
    vertex -137.36132161607947 40.517044078960474 113.13415285140165
  endloop
endfacet
endsolid oficina
