solid oficina
facet normal 0.0 0.0 1.0
  outer loop
    vertex -140.56132161607945 27.647806495182596 113.13415285140167
    vertex -149.36132161607944 36.6478064951826 113.13415285140167
    vertex -149.36132161607944 27.647806495182596 113.13415285140167
  endloop
endfacet
facet normal 0.0 0.0 1.0
  outer loop
    vertex -149.36132161607944 36.6478064951826 113.13415285140167
    vertex -140.56132161607945 27.647806495182596 113.13415285140167
    vertex -140.56132161607945 36.6478064951826 113.13415285140167
  endloop
endfacet
facet normal 0.0 0.0 1.0
  outer loop
    vertex -140.56132161607945 -7.482955921039525 113.13415285140167
    vertex -149.36132161607944 1.5170440789604758 113.13415285140167
    vertex -149.36132161607944 -7.482955921039525 113.13415285140167
  endloop
endfacet
facet normal 0.0 0.0 1.0
  outer loop
    vertex -149.36132161607944 1.5170440789604758 113.13415285140167
    vertex -140.56132161607945 -7.482955921039525 113.13415285140167
    vertex -140.56132161607945 1.5170440789604758 113.13415285140167
  endloop
endfacet
facet normal 0.0 0.0 1.0
  outer loop
    vertex -140.56132161607945 1.5170440789604758 113.13415285140167
    vertex -149.36132161607944 27.647806495182596 113.13415285140167
    vertex -149.36132161607944 1.5170440789604758 113.13415285140167
  endloop
endfacet
facet normal 0.0 0.0 1.0
  outer loop
    vertex -149.36132161607944 27.647806495182596 113.13415285140167
    vertex -140.56132161607945 1.5170440789604758 113.13415285140167
    vertex -140.56132161607945 27.647806495182596 113.13415285140167
  endloop
endfacet
facet normal 0.0 -1.0 0.0
  outer loop
    vertex -140.56132161607945 27.647806495182596 108.13415285140168
    vertex -143.06132161607945 27.647806495182596 48.134152851401666
    vertex -140.56132161607943 27.647806495182596 48.134152851401666
  endloop
endfacet
facet normal 0.0 -1.0 0.0
  outer loop
    vertex -143.06132161607945 27.647806495182596 48.134152851401666
    vertex -140.56132161607945 27.647806495182596 108.13415285140168
    vertex -145.46132161607946 27.647806495182596 48.134152851401666
  endloop
endfacet
facet normal 0.0 -1.0 0.0
  outer loop
    vertex -145.46132161607946 27.647806495182596 48.134152851401666
    vertex -140.56132161607945 27.647806495182596 108.13415285140168
    vertex -146.86132161607944 27.647806495182596 48.134152851401666
  endloop
endfacet
facet normal 0.0 -1.0 0.0
  outer loop
    vertex -146.86132161607944 27.647806495182596 48.134152851401666
    vertex -140.56132161607945 27.647806495182596 108.13415285140168
    vertex -149.36132161607944 27.647806495182596 48.134152851401666
  endloop
endfacet
facet normal 0.0 -1.0 0.0
  outer loop
    vertex -149.36132161607944 27.647806495182596 48.134152851401666
    vertex -140.56132161607945 27.647806495182596 108.13415285140168
    vertex -149.36132161607944 27.647806495182596 108.13415285140168
  endloop
endfacet
facet normal 0.0 0.0 -1.0
  outer loop
    vertex -140.56132161607943 1.5170440789604758 48.134152851401666
    vertex -143.06132161607945 -8.482955921039524 48.134152851401666
    vertex -143.06132161607945 1.5170440789604758 48.134152851401666
  endloop
endfacet
facet normal 0.0 0.0 -1.0
  outer loop
    vertex -143.06132161607945 -8.482955921039524 48.134152851401666
    vertex -140.56132161607943 1.5170440789604758 48.134152851401666
    vertex -140.56132161607943 -8.482955921039524 48.134152851401666
  endloop
endfacet
facet normal 0.0 0.0 -1.0
  outer loop
    vertex -140.56132161607943 37.6478064951826 48.134152851401666
    vertex -143.06132161607945 27.647806495182596 48.134152851401666
    vertex -143.06132161607945 37.6478064951826 48.134152851401666
  endloop
endfacet
facet normal 0.0 0.0 -1.0
  outer loop
    vertex -143.06132161607945 27.647806495182596 48.134152851401666
    vertex -140.56132161607943 37.6478064951826 48.134152851401666
    vertex -140.56132161607943 27.647806495182596 48.134152851401666
  endloop
endfacet
facet normal 0.0 1.0 0.0
  outer loop
    vertex -149.36132161607944 1.5170440789604758 108.13415285140168
    vertex -146.86132161607944 1.5170440789604758 48.134152851401666
    vertex -149.36132161607944 1.5170440789604758 48.134152851401666
  endloop
endfacet
facet normal 0.0 1.0 0.0
  outer loop
    vertex -146.86132161607944 1.5170440789604758 48.134152851401666
    vertex -149.36132161607944 1.5170440789604758 108.13415285140168
    vertex -143.06132161607945 1.5170440789604758 48.134152851401666
  endloop
endfacet
facet normal 0.0 1.0 0.0
  outer loop
    vertex -143.06132161607945 1.5170440789604758 48.134152851401666
    vertex -149.36132161607944 1.5170440789604758 108.13415285140168
    vertex -140.56132161607943 1.5170440789604758 48.134152851401666
  endloop
endfacet
facet normal 0.0 1.0 0.0
  outer loop
    vertex -140.56132161607943 1.5170440789604758 48.134152851401666
    vertex -149.36132161607944 1.5170440789604758 108.13415285140168
    vertex -140.56132161607943 1.5170440789604758 108.13415285140168
  endloop
endfacet
facet normal 0.0 0.0 -1.0
  outer loop
    vertex -140.56132161607945 27.647806495182596 108.13415285140168
    vertex -149.36132161607944 1.5170440789604758 108.13415285140168
    vertex -149.36132161607944 27.647806495182596 108.13415285140168
  endloop
endfacet
facet normal 0.0 0.0 -1.0
  outer loop
    vertex -149.36132161607944 1.5170440789604758 108.13415285140168
    vertex -140.56132161607945 27.647806495182596 108.13415285140168
    vertex -140.56132161607943 1.5170440789604758 108.13415285140168
  endloop
endfacet
facet normal 1.0 -2.255973186038318e-15 3.7599553100638626e-16
  outer loop
    vertex -140.56132161607943 1.5170440789604758 48.134152851401666
    vertex -140.56132161607945 -8.482955921039524 103.1341528514017
    vertex -140.56132161607943 -8.482955921039524 48.134152851401666
  endloop
endfacet
facet normal 1.0 -2.255973186038318e-15 3.7599553100638626e-16
  outer loop
    vertex -140.56132161607945 -8.482955921039524 103.1341528514017
    vertex -140.56132161607943 1.5170440789604758 48.134152851401666
    vertex -140.56132161607945 -7.482955921039525 103.1341528514017
  endloop
endfacet
facet normal 1.0 -2.255973186038318e-15 3.7599553100638626e-16
  outer loop
    vertex -140.56132161607945 -7.482955921039525 103.1341528514017
    vertex -140.56132161607943 1.5170440789604758 48.134152851401666
    vertex -140.56132161607945 -7.482955921039525 108.13415285140168
  endloop
endfacet
facet normal 1.0 -2.255973186038318e-15 3.7599553100638626e-16
  outer loop
    vertex -140.56132161607945 -7.482955921039525 108.13415285140168
    vertex -140.56132161607943 1.5170440789604758 48.134152851401666
    vertex -140.56132161607943 1.5170440789604758 108.13415285140168
  endloop
endfacet
facet normal 1.0 -4.783993253748436e-46 7.519910620127725e-16
  outer loop
    vertex -140.56132161607943 37.6478064951826 48.134152851401666
    vertex -140.56132161607945 27.647806495182596 108.13415285140168
    vertex -140.56132161607943 27.647806495182596 48.134152851401666
  endloop
endfacet
facet normal 1.0 -4.783993253748436e-46 7.519910620127725e-16
  outer loop
    vertex -140.56132161607945 27.647806495182596 108.13415285140168
    vertex -140.56132161607943 37.6478064951826 48.134152851401666
    vertex -140.56132161607945 36.6478064951826 103.1341528514017
  endloop
endfacet
facet normal 1.0 -4.783993253748436e-46 7.519910620127725e-16
  outer loop
    vertex -140.56132161607945 36.6478064951826 103.1341528514017
    vertex -140.56132161607943 37.6478064951826 48.134152851401666
    vertex -140.56132161607945 37.6478064951826 103.1341528514017
  endloop
endfacet
facet normal 1.0 -4.783993253748436e-46 7.519910620127725e-16
  outer loop
    vertex -140.56132161607945 36.6478064951826 108.13415285140168
    vertex -140.56132161607945 27.647806495182596 108.13415285140168
    vertex -140.56132161607945 36.6478064951826 103.1341528514017
  endloop
endfacet
facet normal 0.0 0.0 -1.0
  outer loop
    vertex -146.86132161607944 1.5170440789604758 48.134152851401666
    vertex -149.36132161607944 -8.482955921039524 48.134152851401666
    vertex -149.36132161607944 1.5170440789604758 48.134152851401666
  endloop
endfacet
facet normal 0.0 0.0 -1.0
  outer loop
    vertex -149.36132161607944 -8.482955921039524 48.134152851401666
    vertex -146.86132161607944 1.5170440789604758 48.134152851401666
    vertex -146.86132161607944 -8.482955921039524 48.134152851401666
  endloop
endfacet
facet normal 0.0 0.0 -1.0
  outer loop
    vertex -146.86132161607944 37.6478064951826 48.134152851401666
    vertex -149.36132161607944 27.647806495182596 48.134152851401666
    vertex -149.36132161607944 37.6478064951826 48.134152851401666
  endloop
endfacet
facet normal 0.0 0.0 -1.0
  outer loop
    vertex -149.36132161607944 27.647806495182596 48.134152851401666
    vertex -146.86132161607944 37.6478064951826 48.134152851401666
    vertex -146.86132161607944 27.647806495182596 48.134152851401666
  endloop
endfacet
facet normal 0.0 0.0 -1.0
  outer loop
    vertex -143.06132161607945 1.5170440789604758 18.134152851401666
    vertex -146.86132161607944 -8.482955921039524 18.134152851401666
    vertex -146.86132161607944 1.5170440789604758 18.134152851401666
  endloop
endfacet
facet normal 0.0 0.0 -1.0
  outer loop
    vertex -146.86132161607944 -8.482955921039524 18.134152851401666
    vertex -143.06132161607945 1.5170440789604758 18.134152851401666
    vertex -145.46132161607946 -8.482955921039524 18.134152851401666
  endloop
endfacet
facet normal 0.0 0.0 -1.0
  outer loop
    vertex -145.46132161607946 -8.482955921039524 18.134152851401666
    vertex -143.06132161607945 1.5170440789604758 18.134152851401666
    vertex -143.06132161607945 -8.482955921039524 18.134152851401666
  endloop
endfacet
facet normal -0.0 -1.0 -0.0
  outer loop
    vertex -145.46132161607946 -8.482955921039524 48.134152851401666
    vertex -146.86132161607944 -8.482955921039524 18.134152851401666
    vertex -145.46132161607946 -8.482955921039524 18.134152851401666
  endloop
endfacet
facet normal -0.0 -1.0 -0.0
  outer loop
    vertex -146.86132161607944 -8.482955921039524 18.134152851401666
    vertex -145.46132161607946 -8.482955921039524 48.134152851401666
    vertex -146.86132161607944 -8.482955921039524 48.134152851401666
  endloop
endfacet
facet normal -1.0 0.0 0.0
  outer loop
    vertex -146.86132161607944 1.5170440789604758 48.134152851401666
    vertex -146.86132161607944 -8.482955921039524 18.134152851401666
    vertex -146.86132161607944 -8.482955921039524 48.134152851401666
  endloop
endfacet
facet normal -1.0 0.0 0.0
  outer loop
    vertex -146.86132161607944 -8.482955921039524 18.134152851401666
    vertex -146.86132161607944 1.5170440789604758 48.134152851401666
    vertex -146.86132161607944 1.5170440789604758 18.134152851401666
  endloop
endfacet
facet normal 0.0 1.0 0.0
  outer loop
    vertex -146.86132161607944 1.5170440789604758 48.134152851401666
    vertex -143.06132161607945 1.5170440789604758 18.134152851401666
    vertex -146.86132161607944 1.5170440789604758 18.134152851401666
  endloop
endfacet
facet normal 0.0 1.0 0.0
  outer loop
    vertex -143.06132161607945 1.5170440789604758 18.134152851401666
    vertex -146.86132161607944 1.5170440789604758 48.134152851401666
    vertex -143.06132161607945 1.5170440789604758 48.134152851401666
  endloop
endfacet
facet normal 1.0 0.0 0.0
  outer loop
    vertex -143.06132161607945 1.5170440789604758 18.134152851401666
    vertex -143.06132161607945 -8.482955921039524 48.134152851401666
    vertex -143.06132161607945 -8.482955921039524 18.134152851401666
  endloop
endfacet
facet normal 1.0 0.0 0.0
  outer loop
    vertex -143.06132161607945 -8.482955921039524 48.134152851401666
    vertex -143.06132161607945 1.5170440789604758 18.134152851401666
    vertex -143.06132161607945 1.5170440789604758 48.134152851401666
  endloop
endfacet
facet normal -0.0 -1.0 -0.0
  outer loop
    vertex -143.06132161607945 -8.482955921039524 48.134152851401666
    vertex -145.46132161607946 -8.482955921039524 18.134152851401666
    vertex -143.06132161607945 -8.482955921039524 18.134152851401666
  endloop
endfacet
facet normal -0.0 -1.0 -0.0
  outer loop
    vertex -145.46132161607946 -8.482955921039524 18.134152851401666
    vertex -143.06132161607945 -8.482955921039524 48.134152851401666
    vertex -145.46132161607946 -8.482955921039524 48.134152851401666
  endloop
endfacet
facet normal 0.0 0.0 -1.0
  outer loop
    vertex -143.06132161607945 37.6478064951826 18.134152851401666
    vertex -146.86132161607944 27.647806495182596 18.134152851401666
    vertex -146.86132161607944 37.6478064951826 18.134152851401666
  endloop
endfacet
facet normal 0.0 0.0 -1.0
  outer loop
    vertex -146.86132161607944 27.647806495182596 18.134152851401666
    vertex -143.06132161607945 37.6478064951826 18.134152851401666
    vertex -145.46132161607946 27.647806495182596 18.134152851401666
  endloop
endfacet
facet normal 0.0 0.0 -1.0
  outer loop
    vertex -145.46132161607946 27.647806495182596 18.134152851401666
    vertex -143.06132161607945 37.6478064951826 18.134152851401666
    vertex -143.06132161607945 27.647806495182596 18.134152851401666
  endloop
endfacet
facet normal -0.0 -1.0 -0.0
  outer loop
    vertex -145.46132161607946 27.647806495182596 48.134152851401666
    vertex -146.86132161607944 27.647806495182596 18.134152851401666
    vertex -145.46132161607946 27.647806495182596 18.134152851401666
  endloop
endfacet
facet normal -0.0 -1.0 -0.0
  outer loop
    vertex -146.86132161607944 27.647806495182596 18.134152851401666
    vertex -145.46132161607946 27.647806495182596 48.134152851401666
    vertex -146.86132161607944 27.647806495182596 48.134152851401666
  endloop
endfacet
facet normal -1.0 0.0 0.0
  outer loop
    vertex -146.86132161607944 37.6478064951826 48.134152851401666
    vertex -146.86132161607944 27.647806495182596 18.134152851401666
    vertex -146.86132161607944 27.647806495182596 48.134152851401666
  endloop
endfacet
facet normal -1.0 0.0 0.0
  outer loop
    vertex -146.86132161607944 27.647806495182596 18.134152851401666
    vertex -146.86132161607944 37.6478064951826 48.134152851401666
    vertex -146.86132161607944 37.6478064951826 18.134152851401666
  endloop
endfacet
facet normal 0.0 1.0 0.0
  outer loop
    vertex -146.86132161607944 37.6478064951826 48.134152851401666
    vertex -143.06132161607945 37.6478064951826 18.134152851401666
    vertex -146.86132161607944 37.6478064951826 18.134152851401666
  endloop
endfacet
facet normal 0.0 1.0 0.0
  outer loop
    vertex -143.06132161607945 37.6478064951826 18.134152851401666
    vertex -146.86132161607944 37.6478064951826 48.134152851401666
    vertex -143.06132161607945 37.6478064951826 48.134152851401666
  endloop
endfacet
facet normal 1.0 0.0 0.0
  outer loop
    vertex -143.06132161607945 37.6478064951826 18.134152851401666
    vertex -143.06132161607945 27.647806495182596 48.134152851401666
    vertex -143.06132161607945 27.647806495182596 18.134152851401666
  endloop
endfacet
facet normal 1.0 0.0 0.0
  outer loop
    vertex -143.06132161607945 27.647806495182596 48.134152851401666
    vertex -143.06132161607945 37.6478064951826 18.134152851401666
    vertex -143.06132161607945 37.6478064951826 48.134152851401666
  endloop
endfacet
facet normal -0.0 -1.0 -0.0
  outer loop
    vertex -143.06132161607945 27.647806495182596 48.134152851401666
    vertex -145.46132161607946 27.647806495182596 18.134152851401666
    vertex -143.06132161607945 27.647806495182596 18.134152851401666
  endloop
endfacet
facet normal -0.0 -1.0 -0.0
  outer loop
    vertex -145.46132161607946 27.647806495182596 18.134152851401666
    vertex -143.06132161607945 27.647806495182596 48.134152851401666
    vertex -145.46132161607946 27.647806495182596 48.134152851401666
  endloop
endfacet
facet normal -1.0 0.0 0.0
  outer loop
    vertex -149.36132161607944 1.5170440789604758 108.13415285140168
    vertex -149.36132161607944 -7.482955921039525 103.1341528514017
    vertex -149.36132161607944 -7.482955921039525 108.13415285140168
  endloop
endfacet
facet normal -1.0 0.0 0.0
  outer loop
    vertex -149.36132161607944 -7.482955921039525 103.1341528514017
    vertex -149.36132161607944 -8.482955921039524 48.134152851401666
    vertex -149.36132161607944 -8.482955921039524 103.1341528514017
  endloop
endfacet
facet normal -1.0 0.0 0.0
  outer loop
    vertex -149.36132161607944 -8.482955921039524 48.134152851401666
    vertex -149.36132161607944 -7.482955921039525 103.1341528514017
    vertex -149.36132161607944 1.5170440789604758 48.134152851401666
  endloop
endfacet
facet normal -1.0 0.0 0.0
  outer loop
    vertex -149.36132161607944 1.5170440789604758 48.134152851401666
    vertex -149.36132161607944 -7.482955921039525 103.1341528514017
    vertex -149.36132161607944 1.5170440789604758 108.13415285140168
  endloop
endfacet
facet normal 1.0 0.0 0.0
  outer loop
    vertex -140.56132161607945 36.6478064951826 108.13415285140168
    vertex -140.56132161607945 27.647806495182596 113.13415285140167
    vertex -140.56132161607945 27.647806495182596 108.13415285140168
  endloop
endfacet
facet normal 1.0 0.0 0.0
  outer loop
    vertex -140.56132161607945 27.647806495182596 113.13415285140167
    vertex -140.56132161607945 36.6478064951826 108.13415285140168
    vertex -140.56132161607945 36.6478064951826 113.13415285140167
  endloop
endfacet
facet normal 1.0 8.633399784147886e-16 4.511946372076643e-15
  outer loop
    vertex -140.56132161607945 27.647806495182596 108.13415285140168
    vertex -140.56132161607945 1.5170440789604758 113.13415285140167
    vertex -140.56132161607943 1.5170440789604758 108.13415285140168
  endloop
endfacet
facet normal 1.0 8.633399784147886e-16 4.511946372076643e-15
  outer loop
    vertex -140.56132161607945 1.5170440789604758 113.13415285140167
    vertex -140.56132161607945 27.647806495182596 108.13415285140168
    vertex -140.56132161607945 27.647806495182596 113.13415285140167
  endloop
endfacet
facet normal 1.0 -2.255973186038318e-15 4.511946372076644e-15
  outer loop
    vertex -140.56132161607943 1.5170440789604758 108.13415285140168
    vertex -140.56132161607945 -7.482955921039525 113.13415285140167
    vertex -140.56132161607945 -7.482955921039525 108.13415285140168
  endloop
endfacet
facet normal 1.0 -2.255973186038318e-15 4.511946372076644e-15
  outer loop
    vertex -140.56132161607945 -7.482955921039525 113.13415285140167
    vertex -140.56132161607943 1.5170440789604758 108.13415285140168
    vertex -140.56132161607945 1.5170440789604758 113.13415285140167
  endloop
endfacet
facet normal -1.0 0.0 0.0
  outer loop
    vertex -149.36132161607944 36.6478064951826 113.13415285140167
    vertex -149.36132161607944 27.647806495182596 108.13415285140168
    vertex -149.36132161607944 27.647806495182596 113.13415285140167
  endloop
endfacet
facet normal -1.0 0.0 0.0
  outer loop
    vertex -149.36132161607944 27.647806495182596 108.13415285140168
    vertex -149.36132161607944 36.6478064951826 113.13415285140167
    vertex -149.36132161607944 36.6478064951826 108.13415285140168
  endloop
endfacet
facet normal -1.0 0.0 0.0
  outer loop
    vertex -149.36132161607944 36.6478064951826 108.13415285140168
    vertex -149.36132161607944 27.647806495182596 48.134152851401666
    vertex -149.36132161607944 27.647806495182596 108.13415285140168
  endloop
endfacet
facet normal -1.0 0.0 0.0
  outer loop
    vertex -149.36132161607944 27.647806495182596 48.134152851401666
    vertex -149.36132161607944 36.6478064951826 108.13415285140168
    vertex -149.36132161607944 36.6478064951826 103.1341528514017
  endloop
endfacet
facet normal -1.0 0.0 0.0
  outer loop
    vertex -149.36132161607944 27.647806495182596 48.134152851401666
    vertex -149.36132161607944 36.6478064951826 103.1341528514017
    vertex -149.36132161607944 37.6478064951826 48.134152851401666
  endloop
endfacet
facet normal -1.0 0.0 0.0
  outer loop
    vertex -149.36132161607944 37.6478064951826 48.134152851401666
    vertex -149.36132161607944 36.6478064951826 103.1341528514017
    vertex -149.36132161607944 37.6478064951826 103.1341528514017
  endloop
endfacet
facet normal -1.0 0.0 0.0
  outer loop
    vertex -149.36132161607944 27.647806495182596 113.13415285140167
    vertex -149.36132161607944 1.5170440789604758 108.13415285140168
    vertex -149.36132161607944 1.5170440789604758 113.13415285140167
  endloop
endfacet
facet normal -1.0 0.0 0.0
  outer loop
    vertex -149.36132161607944 1.5170440789604758 108.13415285140168
    vertex -149.36132161607944 27.647806495182596 113.13415285140167
    vertex -149.36132161607944 27.647806495182596 108.13415285140168
  endloop
endfacet
facet normal -1.0 0.0 0.0
  outer loop
    vertex -149.36132161607944 1.5170440789604758 113.13415285140167
    vertex -149.36132161607944 -7.482955921039525 108.13415285140168
    vertex -149.36132161607944 -7.482955921039525 113.13415285140167
  endloop
endfacet
facet normal -1.0 0.0 0.0
  outer loop
    vertex -149.36132161607944 -7.482955921039525 108.13415285140168
    vertex -149.36132161607944 1.5170440789604758 113.13415285140167
    vertex -149.36132161607944 1.5170440789604758 108.13415285140168
  endloop
endfacet
facet normal 0.0 1.0 0.0
  outer loop
    vertex -149.36132161607944 37.6478064951826 103.1341528514017
    vertex -146.86132161607944 37.6478064951826 48.134152851401666
    vertex -149.36132161607944 37.6478064951826 48.134152851401666
  endloop
endfacet
facet normal 0.0 1.0 0.0
  outer loop
    vertex -146.86132161607944 37.6478064951826 48.134152851401666
    vertex -149.36132161607944 37.6478064951826 103.1341528514017
    vertex -143.06132161607945 37.6478064951826 48.134152851401666
  endloop
endfacet
facet normal 0.0 1.0 0.0
  outer loop
    vertex -143.06132161607945 37.6478064951826 48.134152851401666
    vertex -149.36132161607944 37.6478064951826 103.1341528514017
    vertex -140.56132161607943 37.6478064951826 48.134152851401666
  endloop
endfacet
facet normal 0.0 1.0 0.0
  outer loop
    vertex -140.56132161607943 37.6478064951826 48.134152851401666
    vertex -149.36132161607944 37.6478064951826 103.1341528514017
    vertex -140.56132161607945 37.6478064951826 103.1341528514017
  endloop
endfacet
facet normal 0.0 1.0 0.0
  outer loop
    vertex -149.36132161607944 36.6478064951826 108.13415285140168
    vertex -140.56132161607945 36.6478064951826 103.1341528514017
    vertex -149.36132161607944 36.6478064951826 103.1341528514017
  endloop
endfacet
facet normal 0.0 1.0 0.0
  outer loop
    vertex -140.56132161607945 36.6478064951826 103.1341528514017
    vertex -149.36132161607944 36.6478064951826 108.13415285140168
    vertex -140.56132161607945 36.6478064951826 108.13415285140168
  endloop
endfacet
facet normal 0.0 1.0 0.0
  outer loop
    vertex -140.56132161607945 36.6478064951826 108.13415285140168
    vertex -149.36132161607944 36.6478064951826 108.13415285140168
    vertex -149.36132161607944 36.6478064951826 113.13415285140167
  endloop
endfacet
facet normal 0.0 1.0 0.0
  outer loop
    vertex -140.56132161607945 36.6478064951826 108.13415285140168
    vertex -149.36132161607944 36.6478064951826 113.13415285140167
    vertex -140.56132161607945 36.6478064951826 113.13415285140167
  endloop
endfacet
facet normal 0.0 -1.0 0.0
  outer loop
    vertex -140.56132161607945 -7.482955921039525 108.13415285140168
    vertex -149.36132161607944 -7.482955921039525 103.1341528514017
    vertex -140.56132161607945 -7.482955921039525 103.1341528514017
  endloop
endfacet
facet normal 0.0 -1.0 0.0
  outer loop
    vertex -149.36132161607944 -7.482955921039525 103.1341528514017
    vertex -140.56132161607945 -7.482955921039525 108.13415285140168
    vertex -149.36132161607944 -7.482955921039525 108.13415285140168
  endloop
endfacet
facet normal 0.0 -1.0 0.0
  outer loop
    vertex -149.36132161607944 -7.482955921039525 108.13415285140168
    vertex -140.56132161607945 -7.482955921039525 108.13415285140168
    vertex -140.56132161607945 -7.482955921039525 113.13415285140167
  endloop
endfacet
facet normal 0.0 -1.0 0.0
  outer loop
    vertex -149.36132161607944 -7.482955921039525 108.13415285140168
    vertex -140.56132161607945 -7.482955921039525 113.13415285140167
    vertex -149.36132161607944 -7.482955921039525 113.13415285140167
  endloop
endfacet
facet normal 0.0 -1.0 0.0
  outer loop
    vertex -140.56132161607945 -8.482955921039524 103.1341528514017
    vertex -143.06132161607945 -8.482955921039524 48.134152851401666
    vertex -140.56132161607943 -8.482955921039524 48.134152851401666
  endloop
endfacet
facet normal 0.0 -1.0 0.0
  outer loop
    vertex -143.06132161607945 -8.482955921039524 48.134152851401666
    vertex -140.56132161607945 -8.482955921039524 103.1341528514017
    vertex -145.46132161607946 -8.482955921039524 48.134152851401666
  endloop
endfacet
facet normal 0.0 -1.0 0.0
  outer loop
    vertex -145.46132161607946 -8.482955921039524 48.134152851401666
    vertex -140.56132161607945 -8.482955921039524 103.1341528514017
    vertex -146.86132161607944 -8.482955921039524 48.134152851401666
  endloop
endfacet
facet normal 0.0 -1.0 0.0
  outer loop
    vertex -146.86132161607944 -8.482955921039524 48.134152851401666
    vertex -140.56132161607945 -8.482955921039524 103.1341528514017
    vertex -149.36132161607944 -8.482955921039524 48.134152851401666
  endloop
endfacet
facet normal 0.0 -1.0 0.0
  outer loop
    vertex -149.36132161607944 -8.482955921039524 48.134152851401666
    vertex -140.56132161607945 -8.482955921039524 103.1341528514017
    vertex -149.36132161607944 -8.482955921039524 103.1341528514017
  endloop
endfacet
facet normal 0.0 0.0 1.0
  outer loop
    vertex -140.56132161607945 36.6478064951826 103.1341528514017
    vertex -149.36132161607944 37.6478064951826 103.1341528514017
    vertex -149.36132161607944 36.6478064951826 103.1341528514017
  endloop
endfacet
facet normal 0.0 0.0 1.0
  outer loop
    vertex -149.36132161607944 37.6478064951826 103.1341528514017
    vertex -140.56132161607945 36.6478064951826 103.1341528514017
    vertex -140.56132161607945 37.6478064951826 103.1341528514017
  endloop
endfacet
facet normal 0.0 0.0 1.0
  outer loop
    vertex -140.56132161607945 -8.482955921039524 103.1341528514017
    vertex -149.36132161607944 -7.482955921039525 103.1341528514017
    vertex -149.36132161607944 -8.482955921039524 103.1341528514017
  endloop
endfacet
facet normal 0.0 0.0 1.0
  outer loop
    vertex -149.36132161607944 -7.482955921039525 103.1341528514017
    vertex -140.56132161607945 -8.482955921039524 103.1341528514017
    vertex -140.56132161607945 -7.482955921039525 103.1341528514017
  endloop
endfacet
endsolid oficina
