solid oficina
facet normal 0.7071067811865477 -0.0 -0.7071067811865475
  outer loop
    vertex -16.72620122020033 24.236886154321635 182.32086955013324
    vertex -17.288957310303203 9.973942713451368 181.7581134600304
    vertex -17.288957310303203 22.31551667918442 181.7581134600304
  endloop
endfacet
facet normal 0.7071067811865477 -0.0 -0.7071067811865475
  outer loop
    vertex -17.288957310303203 9.973942713451368 181.7581134600304
    vertex -16.72620122020033 24.236886154321635 182.32086955013324
    vertex -17.00968018889064 12.973942713451363 182.03739058144296
  endloop
endfacet
facet normal 0.7071067811865477 -0.0 -0.7071067811865475
  outer loop
    vertex -17.00968018889064 12.973942713451363 182.03739058144296
    vertex -16.72620122020033 24.236886154321635 182.32086955013324
    vertex -16.67455828829782 16.57382836356565 182.37251248203577
  endloop
endfacet
facet normal 0.7071067811865477 -0.0 -0.7071067811865475
  outer loop
    vertex -16.67455828829782 16.57382836356565 182.37251248203577
    vertex -16.72620122020033 24.236886154321635 182.32086955013324
    vertex -13.520677830916496 30.14479076689037 185.5263929394171
  endloop
endfacet
facet normal 0.7071067811865477 -0.0 -0.7071067811865475
  outer loop
    vertex -16.67455828829782 16.57382836356565 182.37251248203577
    vertex -13.520677830916496 30.14479076689037 185.5263929394171
    vertex -14.873231500288988 22.72394271345137 184.1738392700446
  endloop
endfacet
facet normal 0.7071067811865477 -0.0 -0.7071067811865475
  outer loop
    vertex -14.873231500288988 22.72394271345137 184.1738392700446
    vertex -13.520677830916496 30.14479076689037 185.5263929394171
    vertex -12.007734390046227 28.00516563370833 187.03933638028735
  endloop
endfacet
facet normal 0.7071067811865477 -0.0 -0.7071067811865475
  outer loop
    vertex -12.007734390046227 28.00516563370833 187.03933638028735
    vertex -13.520677830916496 30.14479076689037 185.5263929394171
    vertex -9.343158416765748 34.67808541851989 189.70391235356786
  endloop
endfacet
facet normal 0.7071067811865477 -0.0 -0.7071067811865475
  outer loop
    vertex -12.007734390046227 28.00516563370833 187.03933638028735
    vertex -9.343158416765748 34.67808541851989 189.70391235356786
    vertex -8.273345850174731 32.05759050995456 190.77372492015888
  endloop
endfacet
facet normal 0.7071067811865477 -0.0 -0.7071067811865475
  outer loop
    vertex -8.273345850174731 32.05759050995456 190.77372492015888
    vertex -9.343158416765748 34.67808541851989 189.70391235356786
    vertex -7.984545031731435 35.473942713451365 191.06252573860215
  endloop
endfacet
facet normal 0.7071067811865477 -0.0 -0.7071067811865475
  outer loop
    vertex -8.273345850174731 32.05759050995456 190.77372492015888
    vertex -7.984545031731435 35.473942713451365 191.06252573860215
    vertex -3.92455828829782 34.60505128382261 195.12251248203575
  endloop
endfacet
facet normal 0.7071067811865477 -0.0 -0.7071067811865475
  outer loop
    vertex -3.92455828829782 34.60505128382261 195.12251248203575
    vertex -7.984545031731435 35.473942713451365 191.06252573860215
    vertex -4.478334022145381 37.52783357032502 194.5687367481882
  endloop
endfacet
facet normal 0.7071067811865477 -0.0 -0.7071067811865475
  outer loop
    vertex -3.92455828829782 34.60505128382261 195.12251248203575
    vertex -4.478334022145381 37.52783357032502 194.5687367481882
    vertex 0.742265609953733 38.49982959519182 199.78933638028732
  endloop
endfacet
facet normal 0.7071067811865477 -0.0 -0.7071067811865475
  outer loop
    vertex -3.92455828829782 34.60505128382261 195.12251248203575
    vertex 0.742265609953733 38.49982959519182 199.78933638028732
    vertex 0.742265609953781 35.473942713451365 199.78933638028735
  endloop
endfacet
facet normal 0.7071067811865477 -0.0 -0.7071067811865475
  outer loop
    vertex 0.742265609953781 35.473942713451365 199.78933638028735
    vertex 0.742265609953733 38.49982959519182 199.78933638028732
    vertex 5.962865242052918 37.52783357032502 205.0099360123865
  endloop
endfacet
facet normal 0.7071067811865477 -0.0 -0.7071067811865475
  outer loop
    vertex 0.742265609953781 35.473942713451365 199.78933638028735
    vertex 5.962865242052918 37.52783357032502 205.0099360123865
    vertex 5.409089508205357 34.60505128382261 204.45616027853896
  endloop
endfacet
facet normal 0.7071067811865477 -0.0 -0.7071067811865475
  outer loop
    vertex 5.409089508205357 34.60505128382261 204.45616027853896
    vertex 5.962865242052918 37.52783357032502 205.0099360123865
    vertex 9.757877070082253 32.05759050995455 208.80494784041585
  endloop
endfacet
facet normal 0.7071067811865477 -0.0 -0.7071067811865475
  outer loop
    vertex 9.757877070082253 32.05759050995455 208.80494784041585
    vertex 5.962865242052918 37.52783357032502 205.0099360123865
    vertex 9.469076251638974 35.473942713451365 208.51614702197259
  endloop
endfacet
facet normal 0.7071067811865477 -0.0 -0.7071067811865475
  outer loop
    vertex 9.757877070082253 32.05759050995455 208.80494784041585
    vertex 9.469076251638974 35.473942713451365 208.51614702197259
    vertex 10.827689636673313 34.67808541851987 209.8747604070069
  endloop
endfacet
facet normal 0.7071067811865477 -0.0 -0.7071067811865475
  outer loop
    vertex 9.757877070082253 32.05759050995455 208.80494784041585
    vertex 10.827689636673313 34.67808541851987 209.8747604070069
    vertex 13.492265609953765 28.00516563370833 212.53933638028735
  endloop
endfacet
facet normal 0.7071067811865477 -0.0 -0.7071067811865475
  outer loop
    vertex 13.492265609953765 28.00516563370833 212.53933638028735
    vertex 10.827689636673313 34.67808541851987 209.8747604070069
    vertex 15.005209050824032 30.14479076689038 214.05227982115758
  endloop
endfacet
facet normal 0.7071067811865477 -0.0 -0.7071067811865475
  outer loop
    vertex 13.492265609953765 28.00516563370833 212.53933638028735
    vertex 15.005209050824032 30.14479076689038 214.05227982115758
    vertex 16.35776272019653 22.723942713451347 215.4048334905301
  endloop
endfacet
facet normal 0.7071067811865477 -0.0 -0.7071067811865475
  outer loop
    vertex 16.35776272019653 22.723942713451347 215.4048334905301
    vertex 15.005209050824032 30.14479076689038 214.05227982115758
    vertex 18.210732440107872 24.236886154321578 217.2578032104415
  endloop
endfacet
facet normal 0.7071067811865477 -0.0 -0.7071067811865475
  outer loop
    vertex 16.35776272019653 22.723942713451347 215.4048334905301
    vertex 18.210732440107872 24.236886154321578 217.2578032104415
    vertex 18.159089508205355 16.57382836356564 217.206160278539
  endloop
endfacet
facet normal 0.7071067811865477 -0.0 -0.7071067811865475
  outer loop
    vertex 18.159089508205355 16.57382836356564 217.206160278539
    vertex 18.210732440107872 24.236886154321578 217.2578032104415
    vertex 18.494211408798094 12.973942713451363 217.54128217913177
  endloop
endfacet
facet normal 0.7071067811865477 -0.0 -0.7071067811865475
  outer loop
    vertex 18.494211408798094 12.973942713451363 217.54128217913177
    vertex 18.210732440107872 24.236886154321578 217.2578032104415
    vertex 18.773488530210706 22.315516679184398 217.82055930054435
  endloop
endfacet
facet normal 0.7071067811865477 -0.0 -0.7071067811865475
  outer loop
    vertex 18.494211408798094 12.973942713451363 217.54128217913177
    vertex 18.773488530210706 22.315516679184398 217.82055930054435
    vertex 18.773488530210706 9.973942713451368 217.82055930054435
  endloop
endfacet
facet normal 0.7071067811865477 -0.0 -0.7071067811865475
  outer loop
    vertex 18.773488530210706 9.973942713451368 217.82055930054435
    vertex 18.773488530210706 22.315516679184398 217.82055930054435
    vertex 19.459296195566193 19.974022846948387 218.50636696589976
  endloop
endfacet
facet normal 0.7071067811865477 -0.0 -0.7071067811865475
  outer loop
    vertex 18.773488530210706 9.973942713451368 217.82055930054435
    vertex 19.459296195566193 19.974022846948387 218.50636696589976
    vertex 18.773488530210706 -2.3676312522816803 217.82055930054435
  endloop
endfacet
facet normal 0.7071067811865477 -0.0 -0.7071067811865475
  outer loop
    vertex 18.773488530210706 -2.3676312522816803 217.82055930054435
    vertex 19.459296195566193 19.974022846948387 218.50636696589976
    vertex 19.45934313668197 -0.025977153051613674 218.50641390701554
  endloop
endfacet
facet normal 0.7071067811865477 -0.0 -0.7071067811865475
  outer loop
    vertex 19.45934313668197 -0.025977153051613674 218.50641390701554
    vertex 19.459296195566193 19.974022846948387 218.50636696589976
    vertex 20.894808873770366 10.170573101897174 219.94187964410395
  endloop
endfacet
facet normal 0.7071067811865477 -0.0 -0.7071067811865475
  outer loop
    vertex 20.894808873770366 10.170573101897174 219.94187964410395
    vertex 19.459296195566193 19.974022846948387 218.50636696589976
    vertex 23.006126203089973 19.974022846948387 222.05319697342355
  endloop
endfacet
facet normal 0.7071067811865477 -0.0 -0.7071067811865475
  outer loop
    vertex 20.894808873770366 10.170573101897174 219.94187964410395
    vertex 23.006126203089973 19.974022846948387 222.05319697342355
    vertex 20.913113663392824 9.973942713451368 219.96018443372645
  endloop
endfacet
facet normal 0.7071067811865477 -0.0 -0.7071067811865475
  outer loop
    vertex 19.45934313668197 -0.025977153051613674 218.50641390701554
    vertex 20.894808873770366 9.777312325005564 219.94187964410395
    vertex 23.006126203089973 -0.025977153051613674 222.05319697342355
  endloop
endfacet
facet normal 0.7071067811865477 -0.0 -0.7071067811865475
  outer loop
    vertex 20.894808873770366 9.777312325005564 219.94187964410395
    vertex 19.45934313668197 -0.025977153051613674 218.50641390701554
    vertex 20.894808873770366 10.170573101897174 219.94187964410395
  endloop
endfacet
facet normal 0.7071067811865477 -0.0 -0.7071067811865475
  outer loop
    vertex 20.894808873770366 9.777312325005564 219.94187964410395
    vertex 20.894808873770366 10.170573101897174 219.94187964410395
    vertex 20.894808873770366 9.973942713451368 219.94187964410395
  endloop
endfacet
facet normal 0.7071067811865477 -0.0 -0.7071067811865475
  outer loop
    vertex 23.006126203089973 -0.025977153051613674 222.05319697342355
    vertex 20.894808873770366 9.777312325005564 219.94187964410395
    vertex 20.913113663392824 9.973942713451368 219.96018443372645
  endloop
endfacet
facet normal 0.7071067811865477 -0.0 -0.7071067811865475
  outer loop
    vertex 23.006126203089973 -0.025977153051613674 222.05319697342355
    vertex 20.913113663392824 9.973942713451368 219.96018443372645
    vertex 23.006126203089973 19.974022846948387 222.05319697342355
  endloop
endfacet
facet normal 0.7071067811865477 -0.0 -0.7071067811865475
  outer loop
    vertex -19.149305322072724 12.973942713451363 179.89776544826086
    vertex -19.149305322072724 6.973942713451363 179.89776544826086
    vertex -19.428582443485286 9.97394271345138 179.6184883268483
  endloop
endfacet
facet normal 0.7071067811865477 -0.0 -0.7071067811865475
  outer loop
    vertex -19.149305322072724 6.973942713451363 179.89776544826086
    vertex -19.149305322072724 12.973942713451363 179.89776544826086
    vertex -19.112852342840583 13.36552129011152 179.93421842749302
  endloop
endfacet
facet normal 0.7071067811865477 -0.0 -0.7071067811865475
  outer loop
    vertex -19.149305322072724 6.973942713451363 179.89776544826086
    vertex -19.112852342840583 13.36552129011152 179.93421842749302
    vertex -18.741277463015628 2.590899910016852 180.30579330731797
  endloop
endfacet
facet normal 0.7071067811865477 -0.0 -0.7071067811865475
  outer loop
    vertex -18.741277463015628 2.590899910016852 180.30579330731797
    vertex -19.112852342840583 13.36552129011152 179.93421842749302
    vertex -18.741277463015628 17.356985516885953 180.30579330731797
  endloop
endfacet
facet normal 0.7071067811865477 -0.0 -0.7071067811865475
  outer loop
    vertex -18.741277463015628 2.590899910016852 180.30579330731797
    vertex -18.741277463015628 17.356985516885953 180.30579330731797
    vertex -17.288957310303203 22.31551667918442 181.7581134600304
  endloop
endfacet
facet normal 0.7071067811865477 -0.0 -0.7071067811865475
  outer loop
    vertex -18.741277463015628 2.590899910016852 180.30579330731797
    vertex -17.288957310303203 22.31551667918442 181.7581134600304
    vertex -17.288957310303203 -2.367631252281646 181.7581134600304
  endloop
endfacet
facet normal 0.7071067811865477 -0.0 -0.7071067811865475
  outer loop
    vertex -17.288957310303203 -2.367631252281646 181.7581134600304
    vertex -17.288957310303203 22.31551667918442 181.7581134600304
    vertex -17.288957310303203 9.973942713451368 181.7581134600304
  endloop
endfacet
facet normal 0.7071067811865477 -0.0 -0.7071067811865475
  outer loop
    vertex -17.288957310303203 -2.367631252281646 181.7581134600304
    vertex -17.288957310303203 9.973942713451368 181.7581134600304
    vertex -17.00968018889064 6.973942713451363 182.03739058144296
  endloop
endfacet
facet normal 0.7071067811865477 -0.0 -0.7071067811865475
  outer loop
    vertex -17.288957310303203 -2.367631252281646 181.7581134600304
    vertex -17.00968018889064 6.973942713451363 182.03739058144296
    vertex -16.72620122020033 -4.289000727418921 182.32086955013324
  endloop
endfacet
facet normal 0.7071067811865477 -0.0 -0.7071067811865475
  outer loop
    vertex -16.72620122020033 -4.289000727418921 182.32086955013324
    vertex -17.00968018889064 6.973942713451363 182.03739058144296
    vertex -16.67455828829782 3.374057063337092 182.37251248203577
  endloop
endfacet
facet normal 0.7071067811865477 -0.0 -0.7071067811865475
  outer loop
    vertex -16.72620122020033 -4.289000727418921 182.32086955013324
    vertex -16.67455828829782 3.374057063337092 182.37251248203577
    vertex -13.520677830916464 -10.19690533998767 185.52639293941712
  endloop
endfacet
facet normal 0.7071067811865477 -0.0 -0.7071067811865475
  outer loop
    vertex -13.520677830916464 -10.19690533998767 185.52639293941712
    vertex -16.67455828829782 3.374057063337092 182.37251248203577
    vertex -14.873231500288988 -2.7760572865486273 184.1738392700446
  endloop
endfacet
facet normal 0.7071067811865477 -0.0 -0.7071067811865475
  outer loop
    vertex -13.520677830916464 -10.19690533998767 185.52639293941712
    vertex -14.873231500288988 -2.7760572865486273 184.1738392700446
    vertex -12.007734390046227 -8.057280206805594 187.03933638028735
  endloop
endfacet
facet normal 0.7071067811865477 -0.0 -0.7071067811865475
  outer loop
    vertex -13.520677830916464 -10.19690533998767 185.52639293941712
    vertex -12.007734390046227 -8.057280206805594 187.03933638028735
    vertex -9.343158416765757 -14.730199991617136 189.70391235356783
  endloop
endfacet
facet normal 0.7071067811865477 -0.0 -0.7071067811865475
  outer loop
    vertex -9.343158416765757 -14.730199991617136 189.70391235356783
    vertex -12.007734390046227 -8.057280206805594 187.03933638028735
    vertex -8.273345850174739 -12.109705083051812 190.77372492015888
  endloop
endfacet
facet normal 0.7071067811865477 -0.0 -0.7071067811865475
  outer loop
    vertex -9.343158416765757 -14.730199991617136 189.70391235356783
    vertex -8.273345850174739 -12.109705083051812 190.77372492015888
    vertex -7.984545031731435 -15.526057286548632 191.06252573860215
  endloop
endfacet
facet normal 0.7071067811865477 -0.0 -0.7071067811865475
  outer loop
    vertex -7.984545031731435 -15.526057286548632 191.06252573860215
    vertex -8.273345850174739 -12.109705083051812 190.77372492015888
    vertex -3.92455828829782 -14.657165856919873 195.12251248203575
  endloop
endfacet
facet normal 0.7071067811865477 -0.0 -0.7071067811865475
  outer loop
    vertex -7.984545031731435 -15.526057286548632 191.06252573860215
    vertex -3.92455828829782 -14.657165856919873 195.12251248203575
    vertex -4.478334022145376 -17.57994814342228 194.56873674818823
  endloop
endfacet
facet normal 0.7071067811865477 -0.0 -0.7071067811865475
  outer loop
    vertex -4.478334022145376 -17.57994814342228 194.56873674818823
    vertex -3.92455828829782 -14.657165856919873 195.12251248203575
    vertex 0.742265609953733 -18.551944168289094 199.78933638028732
  endloop
endfacet
facet normal 0.7071067811865477 -0.0 -0.7071067811865475
  outer loop
    vertex 0.742265609953733 -18.551944168289094 199.78933638028732
    vertex -3.92455828829782 -14.657165856919873 195.12251248203575
    vertex 0.742265609953781 -15.526057286548632 199.78933638028735
  endloop
endfacet
facet normal 0.7071067811865477 -0.0 -0.7071067811865475
  outer loop
    vertex 0.742265609953733 -18.551944168289094 199.78933638028732
    vertex 0.742265609953781 -15.526057286548632 199.78933638028735
    vertex 5.962865242052918 -17.579948143422282 205.0099360123865
  endloop
endfacet
facet normal 0.7071067811865477 -0.0 -0.7071067811865475
  outer loop
    vertex 5.962865242052918 -17.579948143422282 205.0099360123865
    vertex 0.742265609953781 -15.526057286548632 199.78933638028735
    vertex 5.409089508205311 -14.657165856919878 204.45616027853896
  endloop
endfacet
facet normal 0.7071067811865477 -0.0 -0.7071067811865475
  outer loop
    vertex 5.962865242052918 -17.579948143422282 205.0099360123865
    vertex 5.409089508205311 -14.657165856919878 204.45616027853896
    vertex 9.757877070082253 -12.109705083051821 208.80494784041582
  endloop
endfacet
facet normal 0.7071067811865477 -0.0 -0.7071067811865475
  outer loop
    vertex 5.962865242052918 -17.579948143422282 205.0099360123865
    vertex 9.757877070082253 -12.109705083051821 208.80494784041582
    vertex 9.469076251638889 -15.526057286548632 208.51614702197253
  endloop
endfacet
facet normal 0.7071067811865477 -0.0 -0.7071067811865475
  outer loop
    vertex 9.469076251638889 -15.526057286548632 208.51614702197253
    vertex 9.757877070082253 -12.109705083051821 208.80494784041582
    vertex 10.827689636673279 -14.730199991617136 209.87476040700687
  endloop
endfacet
facet normal 0.7071067811865477 -0.0 -0.7071067811865475
  outer loop
    vertex 10.827689636673279 -14.730199991617136 209.87476040700687
    vertex 9.757877070082253 -12.109705083051821 208.80494784041582
    vertex 13.492265609953765 -8.057280206805604 212.53933638028735
  endloop
endfacet
facet normal 0.7071067811865477 -0.0 -0.7071067811865475
  outer loop
    vertex 10.827689636673279 -14.730199991617136 209.87476040700687
    vertex 13.492265609953765 -8.057280206805604 212.53933638028735
    vertex 15.005209050824032 -10.19690533998766 214.05227982115758
  endloop
endfacet
facet normal 0.7071067811865477 -0.0 -0.7071067811865475
  outer loop
    vertex 15.005209050824032 -10.19690533998766 214.05227982115758
    vertex 13.492265609953765 -8.057280206805604 212.53933638028735
    vertex 16.35776272019653 -2.776057286548644 215.4048334905301
  endloop
endfacet
facet normal 0.7071067811865477 -0.0 -0.7071067811865475
  outer loop
    vertex 15.005209050824032 -10.19690533998766 214.05227982115758
    vertex 16.35776272019653 -2.776057286548644 215.4048334905301
    vertex 18.210732440107872 -4.289000727418862 217.2578032104415
  endloop
endfacet
facet normal 0.7071067811865477 -0.0 -0.7071067811865475
  outer loop
    vertex 18.210732440107872 -4.289000727418862 217.2578032104415
    vertex 16.35776272019653 -2.776057286548644 215.4048334905301
    vertex 18.159089508205355 3.3740570633370695 217.206160278539
  endloop
endfacet
facet normal 0.7071067811865477 -0.0 -0.7071067811865475
  outer loop
    vertex 18.210732440107872 -4.289000727418862 217.2578032104415
    vertex 18.159089508205355 3.3740570633370695 217.206160278539
    vertex 18.494211408798094 6.973942713451363 217.54128217913177
  endloop
endfacet
facet normal 0.7071067811865477 -0.0 -0.7071067811865475
  outer loop
    vertex 18.210732440107872 -4.289000727418862 217.2578032104415
    vertex 18.494211408798094 6.973942713451363 217.54128217913177
    vertex 18.773488530210706 -2.3676312522816803 217.82055930054435
  endloop
endfacet
facet normal 0.7071067811865477 -0.0 -0.7071067811865475
  outer loop
    vertex 18.773488530210706 -2.3676312522816803 217.82055930054435
    vertex 18.494211408798094 6.973942713451363 217.54128217913177
    vertex 18.773488530210706 9.973942713451368 217.82055930054435
  endloop
endfacet
facet normal -0.7071067811865477 0.0 0.7071067811865475
  outer loop
    vertex 19.470592297157225 -0.025977153051613674 225.58873087935635
    vertex 17.359274967837614 9.777312325005564 223.47741355003674
    vertex 15.923809230749239 -0.025977153051613674 222.04194781294828
  endloop
endfacet
facet normal -0.7071067811865477 0.0 0.7071067811865475
  outer loop
    vertex 17.359274967837614 9.777312325005564 223.47741355003674
    vertex 19.470592297157225 -0.025977153051613674 225.58873087935635
    vertex 17.37757975746011 9.973942713451368 223.49571833965916
  endloop
endfacet
facet normal -0.7071067811865477 0.0 0.7071067811865475
  outer loop
    vertex -20.261735126133065 -4.289000727418921 185.85640345606598
    vertex -20.824491216235934 9.973942713451368 185.2936473659631
    vertex -20.824491216235934 -2.367631252281646 185.2936473659631
  endloop
endfacet
facet normal -0.7071067811865477 0.0 0.7071067811865475
  outer loop
    vertex -20.824491216235934 9.973942713451368 185.2936473659631
    vertex -20.261735126133065 -4.289000727418921 185.85640345606598
    vertex -20.54521409482339 6.973942713451363 185.5729244873757
  endloop
endfacet
facet normal -0.7071067811865477 0.0 0.7071067811865475
  outer loop
    vertex -20.54521409482339 6.973942713451363 185.5729244873757
    vertex -20.261735126133065 -4.289000727418921 185.85640345606598
    vertex -20.210092194230576 3.374057063337092 185.90804638796848
  endloop
endfacet
facet normal -0.7071067811865477 0.0 0.7071067811865475
  outer loop
    vertex -20.210092194230576 3.374057063337092 185.90804638796848
    vertex -20.261735126133065 -4.289000727418921 185.85640345606598
    vertex -17.05621173684921 -10.19690533998767 189.06192684534986
  endloop
endfacet
facet normal -0.7071067811865477 0.0 0.7071067811865475
  outer loop
    vertex -20.210092194230576 3.374057063337092 185.90804638796848
    vertex -17.05621173684921 -10.19690533998767 189.06192684534986
    vertex -18.408765406221747 -2.7760572865486273 187.7093731759773
  endloop
endfacet
facet normal -0.7071067811865477 0.0 0.7071067811865475
  outer loop
    vertex -18.408765406221747 -2.7760572865486273 187.7093731759773
    vertex -17.05621173684921 -10.19690533998767 189.06192684534986
    vertex -15.543268295978972 -8.057280206805594 190.5748702862201
  endloop
endfacet
facet normal -0.7071067811865477 0.0 0.7071067811865475
  outer loop
    vertex -15.543268295978972 -8.057280206805594 190.5748702862201
    vertex -17.05621173684921 -10.19690533998767 189.06192684534986
    vertex -12.87869232269848 -14.730199991617136 193.23944625950057
  endloop
endfacet
facet normal -0.7071067811865477 0.0 0.7071067811865475
  outer loop
    vertex -15.543268295978972 -8.057280206805594 190.5748702862201
    vertex -12.87869232269848 -14.730199991617136 193.23944625950057
    vertex -11.808879756107494 -12.109705083051812 194.30925882609162
  endloop
endfacet
facet normal -0.7071067811865477 0.0 0.7071067811865475
  outer loop
    vertex -11.808879756107494 -12.109705083051812 194.30925882609162
    vertex -12.87869232269848 -14.730199991617136 193.23944625950057
    vertex -11.520078937664143 -15.526057286548632 194.59805964453489
  endloop
endfacet
facet normal -0.7071067811865477 0.0 0.7071067811865475
  outer loop
    vertex -11.808879756107494 -12.109705083051812 194.30925882609162
    vertex -11.520078937664143 -15.526057286548632 194.59805964453489
    vertex -7.460092194230601 -14.657165856919873 198.6580463879685
  endloop
endfacet
facet normal -0.7071067811865477 0.0 0.7071067811865475
  outer loop
    vertex -7.460092194230601 -14.657165856919873 198.6580463879685
    vertex -11.520078937664143 -15.526057286548632 194.59805964453489
    vertex -8.01386792807809 -17.57994814342228 198.104270654121
  endloop
endfacet
facet normal -0.7071067811865477 0.0 0.7071067811865475
  outer loop
    vertex -7.460092194230601 -14.657165856919873 198.6580463879685
    vertex -8.01386792807809 -17.57994814342228 198.104270654121
    vertex -2.7932682959789825 -18.551944168289094 203.32487028622006
  endloop
endfacet
facet normal -0.7071067811865477 0.0 0.7071067811865475
  outer loop
    vertex -7.460092194230601 -14.657165856919873 198.6580463879685
    vertex -2.7932682959789825 -18.551944168289094 203.32487028622006
    vertex -2.7932682959789514 -15.526057286548632 203.32487028622012
  endloop
endfacet
facet normal -0.7071067811865477 0.0 0.7071067811865475
  outer loop
    vertex -2.7932682959789514 -15.526057286548632 203.32487028622012
    vertex -2.7932682959789825 -18.551944168289094 203.32487028622006
    vertex 2.4273313361201856 -17.579948143422282 208.54546991831924
  endloop
endfacet
facet normal -0.7071067811865477 0.0 0.7071067811865475
  outer loop
    vertex -2.7932682959789514 -15.526057286548632 203.32487028622012
    vertex 2.4273313361201856 -17.579948143422282 208.54546991831924
    vertex 1.8735556022726274 -14.657165856919878 207.9916941844717
  endloop
endfacet
facet normal -0.7071067811865477 0.0 0.7071067811865475
  outer loop
    vertex 1.8735556022726274 -14.657165856919878 207.9916941844717
    vertex 2.4273313361201856 -17.579948143422282 208.54546991831924
    vertex 6.222343164149524 -12.109705083051821 212.34048174634856
  endloop
endfacet
facet normal -0.7071067811865477 0.0 0.7071067811865475
  outer loop
    vertex 6.222343164149524 -12.109705083051821 212.34048174634856
    vertex 2.4273313361201856 -17.579948143422282 208.54546991831924
    vertex 5.9335423457062095 -15.526057286548632 212.05168092790527
  endloop
endfacet
facet normal -0.7071067811865477 0.0 0.7071067811865475
  outer loop
    vertex 6.222343164149524 -12.109705083051821 212.34048174634856
    vertex 5.9335423457062095 -15.526057286548632 212.05168092790527
    vertex 7.292155730740549 -14.730199991617136 213.4102943129396
  endloop
endfacet
facet normal -0.7071067811865477 0.0 0.7071067811865475
  outer loop
    vertex 6.222343164149524 -12.109705083051821 212.34048174634856
    vertex 7.292155730740549 -14.730199991617136 213.4102943129396
    vertex 9.956731704021031 -8.057280206805604 216.0748702862201
  endloop
endfacet
facet normal -0.7071067811865477 0.0 0.7071067811865475
  outer loop
    vertex 9.956731704021031 -8.057280206805604 216.0748702862201
    vertex 7.292155730740549 -14.730199991617136 213.4102943129396
    vertex 11.469675144891303 -10.19690533998766 217.58781372709035
  endloop
endfacet
facet normal -0.7071067811865477 0.0 0.7071067811865475
  outer loop
    vertex 9.956731704021031 -8.057280206805604 216.0748702862201
    vertex 11.469675144891303 -10.19690533998766 217.58781372709035
    vertex 12.82222881426378 -2.776057286548644 218.9403673964629
  endloop
endfacet
facet normal -0.7071067811865477 0.0 0.7071067811865475
  outer loop
    vertex 12.82222881426378 -2.776057286548644 218.9403673964629
    vertex 11.469675144891303 -10.19690533998766 217.58781372709035
    vertex 14.67519853417516 -4.289000727418862 220.7933371163742
  endloop
endfacet
facet normal -0.7071067811865477 0.0 0.7071067811865475
  outer loop
    vertex 12.82222881426378 -2.776057286548644 218.9403673964629
    vertex 14.67519853417516 -4.289000727418862 220.7933371163742
    vertex 14.62355560227261 3.3740570633370695 220.74169418447164
  endloop
endfacet
facet normal -0.7071067811865477 0.0 0.7071067811865475
  outer loop
    vertex 14.62355560227261 3.3740570633370695 220.74169418447164
    vertex 14.67519853417516 -4.289000727418862 220.7933371163742
    vertex 14.958677502865417 6.973942713451363 221.0768160850645
  endloop
endfacet
facet normal -0.7071067811865477 0.0 0.7071067811865475
  outer loop
    vertex 14.958677502865417 6.973942713451363 221.0768160850645
    vertex 14.67519853417516 -4.289000727418862 220.7933371163742
    vertex 15.23795462427796 -2.3676312522816803 221.35609320647706
  endloop
endfacet
facet normal -0.7071067811865477 0.0 0.7071067811865475
  outer loop
    vertex 14.958677502865417 6.973942713451363 221.0768160850645
    vertex 15.23795462427796 -2.3676312522816803 221.35609320647706
    vertex 15.23795462427796 9.973942713451368 221.35609320647706
  endloop
endfacet
facet normal -0.7071067811865477 0.0 0.7071067811865475
  outer loop
    vertex 15.23795462427796 9.973942713451368 221.35609320647706
    vertex 15.23795462427796 -2.3676312522816803 221.35609320647706
    vertex 15.923809230749239 -0.025977153051613674 222.04194781294828
  endloop
endfacet
facet normal -0.7071067811865477 0.0 0.7071067811865475
  outer loop
    vertex 15.23795462427796 9.973942713451368 221.35609320647706
    vertex 15.923809230749239 -0.025977153051613674 222.04194781294828
    vertex 15.23795462427796 22.315516679184398 221.35609320647706
  endloop
endfacet
facet normal -0.7071067811865477 0.0 0.7071067811865475
  outer loop
    vertex 15.23795462427796 22.315516679184398 221.35609320647706
    vertex 15.923809230749239 -0.025977153051613674 222.04194781294828
    vertex 15.923762289633428 19.974022846948387 222.04190087183247
  endloop
endfacet
facet normal -0.7071067811865477 0.0 0.7071067811865475
  outer loop
    vertex 15.923762289633428 19.974022846948387 222.04190087183247
    vertex 15.923809230749239 -0.025977153051613674 222.04194781294828
    vertex 17.359274967837614 10.170573101897174 223.47741355003674
  endloop
endfacet
facet normal -0.7071067811865477 0.0 0.7071067811865475
  outer loop
    vertex 15.923762289633428 19.974022846948387 222.04190087183247
    vertex 17.359274967837614 10.170573101897174 223.47741355003674
    vertex 19.470592297157225 19.974022846948387 225.58873087935635
  endloop
endfacet
facet normal -0.7071067811865477 0.0 0.7071067811865475
  outer loop
    vertex 17.359274967837614 10.170573101897174 223.47741355003674
    vertex 15.923809230749239 -0.025977153051613674 222.04194781294828
    vertex 17.359274967837614 9.777312325005564 223.47741355003674
  endloop
endfacet
facet normal -0.7071067811865477 0.0 0.7071067811865475
  outer loop
    vertex 17.359274967837614 10.170573101897174 223.47741355003674
    vertex 17.359274967837614 9.777312325005564 223.47741355003674
    vertex 17.359274967837614 9.973942713451368 223.47741355003674
  endloop
endfacet
facet normal -0.7071067811865477 0.0 0.7071067811865475
  outer loop
    vertex 19.470592297157225 19.974022846948387 225.58873087935635
    vertex 17.359274967837614 10.170573101897174 223.47741355003674
    vertex 17.37757975746011 9.973942713451368 223.49571833965916
  endloop
endfacet
facet normal -0.7071067811865477 0.0 0.7071067811865475
  outer loop
    vertex 19.470592297157225 19.974022846948387 225.58873087935635
    vertex 17.37757975746011 9.973942713451368 223.49571833965916
    vertex 19.470592297157225 -0.025977153051613674 225.58873087935635
  endloop
endfacet
facet normal -0.7071067811865477 0.0 0.7071067811865475
  outer loop
    vertex -22.684839228005465 6.973942713451363 183.4332993541936
    vertex -22.684839228005465 12.973942713451363 183.4332993541936
    vertex -22.96411634941805 9.97394271345138 183.15402223278102
  endloop
endfacet
facet normal -0.7071067811865477 0.0 0.7071067811865475
  outer loop
    vertex -22.684839228005465 12.973942713451363 183.4332993541936
    vertex -22.684839228005465 6.973942713451363 183.4332993541936
    vertex -22.27681136894836 2.590899910016852 183.8413272132507
  endloop
endfacet
facet normal -0.7071067811865477 0.0 0.7071067811865475
  outer loop
    vertex -22.684839228005465 12.973942713451363 183.4332993541936
    vertex -22.27681136894836 2.590899910016852 183.8413272132507
    vertex -22.64838624877333 13.36552129011152 183.46975233342576
  endloop
endfacet
facet normal -0.7071067811865477 0.0 0.7071067811865475
  outer loop
    vertex -22.64838624877333 13.36552129011152 183.46975233342576
    vertex -22.27681136894836 2.590899910016852 183.8413272132507
    vertex -22.27681136894836 17.356985516885953 183.8413272132507
  endloop
endfacet
facet normal -0.7071067811865477 0.0 0.7071067811865475
  outer loop
    vertex -22.27681136894836 17.356985516885953 183.8413272132507
    vertex -22.27681136894836 2.590899910016852 183.8413272132507
    vertex -20.824491216235934 -2.367631252281646 185.2936473659631
  endloop
endfacet
facet normal -0.7071067811865477 0.0 0.7071067811865475
  outer loop
    vertex -22.27681136894836 17.356985516885953 183.8413272132507
    vertex -20.824491216235934 -2.367631252281646 185.2936473659631
    vertex -20.824491216235934 22.31551667918442 185.2936473659631
  endloop
endfacet
facet normal -0.7071067811865477 0.0 0.7071067811865475
  outer loop
    vertex -20.824491216235934 22.31551667918442 185.2936473659631
    vertex -20.824491216235934 -2.367631252281646 185.2936473659631
    vertex -20.824491216235934 9.973942713451368 185.2936473659631
  endloop
endfacet
facet normal -0.7071067811865477 0.0 0.7071067811865475
  outer loop
    vertex -20.824491216235934 22.31551667918442 185.2936473659631
    vertex -20.824491216235934 9.973942713451368 185.2936473659631
    vertex -20.54521409482339 12.973942713451363 185.5729244873757
  endloop
endfacet
facet normal -0.7071067811865477 0.0 0.7071067811865475
  outer loop
    vertex -20.824491216235934 22.31551667918442 185.2936473659631
    vertex -20.54521409482339 12.973942713451363 185.5729244873757
    vertex -20.26173512613309 24.236886154321635 185.85640345606598
  endloop
endfacet
facet normal -0.7071067811865477 0.0 0.7071067811865475
  outer loop
    vertex -20.26173512613309 24.236886154321635 185.85640345606598
    vertex -20.54521409482339 12.973942713451363 185.5729244873757
    vertex -20.210092194230576 16.57382836356565 185.90804638796848
  endloop
endfacet
facet normal -0.7071067811865477 0.0 0.7071067811865475
  outer loop
    vertex -20.26173512613309 24.236886154321635 185.85640345606598
    vertex -20.210092194230576 16.57382836356565 185.90804638796848
    vertex -17.05621173684925 30.14479076689037 189.0619268453498
  endloop
endfacet
facet normal -0.7071067811865477 0.0 0.7071067811865475
  outer loop
    vertex -17.05621173684925 30.14479076689037 189.0619268453498
    vertex -20.210092194230576 16.57382836356565 185.90804638796848
    vertex -18.408765406221747 22.72394271345137 187.7093731759773
  endloop
endfacet
facet normal -0.7071067811865477 0.0 0.7071067811865475
  outer loop
    vertex -17.05621173684925 30.14479076689037 189.0619268453498
    vertex -18.408765406221747 22.72394271345137 187.7093731759773
    vertex -15.543268295978972 28.00516563370833 190.5748702862201
  endloop
endfacet
facet normal -0.7071067811865477 0.0 0.7071067811865475
  outer loop
    vertex -17.05621173684925 30.14479076689037 189.0619268453498
    vertex -15.543268295978972 28.00516563370833 190.5748702862201
    vertex -12.87869232269849 34.67808541851989 193.2394462595006
  endloop
endfacet
facet normal -0.7071067811865477 0.0 0.7071067811865475
  outer loop
    vertex -12.87869232269849 34.67808541851989 193.2394462595006
    vertex -15.543268295978972 28.00516563370833 190.5748702862201
    vertex -11.808879756107446 32.05759050995456 194.30925882609162
  endloop
endfacet
facet normal -0.7071067811865477 0.0 0.7071067811865475
  outer loop
    vertex -12.87869232269849 34.67808541851989 193.2394462595006
    vertex -11.808879756107446 32.05759050995456 194.30925882609162
    vertex -11.520078937664143 35.473942713451365 194.59805964453489
  endloop
endfacet
facet normal -0.7071067811865477 0.0 0.7071067811865475
  outer loop
    vertex -11.520078937664143 35.473942713451365 194.59805964453489
    vertex -11.808879756107446 32.05759050995456 194.30925882609162
    vertex -7.460092194230601 34.60505128382261 198.6580463879685
  endloop
endfacet
facet normal -0.7071067811865477 0.0 0.7071067811865475
  outer loop
    vertex -11.520078937664143 35.473942713451365 194.59805964453489
    vertex -7.460092194230601 34.60505128382261 198.6580463879685
    vertex -8.01386792807812 37.52783357032502 198.10427065412097
  endloop
endfacet
facet normal -0.7071067811865477 0.0 0.7071067811865475
  outer loop
    vertex -8.01386792807812 37.52783357032502 198.10427065412097
    vertex -7.460092194230601 34.60505128382261 198.6580463879685
    vertex -2.7932682959789825 38.49982959519182 203.32487028622006
  endloop
endfacet
facet normal -0.7071067811865477 0.0 0.7071067811865475
  outer loop
    vertex -2.7932682959789825 38.49982959519182 203.32487028622006
    vertex -7.460092194230601 34.60505128382261 198.6580463879685
    vertex -2.7932682959789514 35.473942713451365 203.32487028622012
  endloop
endfacet
facet normal -0.7071067811865477 0.0 0.7071067811865475
  outer loop
    vertex -2.7932682959789825 38.49982959519182 203.32487028622006
    vertex -2.7932682959789514 35.473942713451365 203.32487028622012
    vertex 2.4273313361201856 37.52783357032502 208.54546991831924
  endloop
endfacet
facet normal -0.7071067811865477 0.0 0.7071067811865475
  outer loop
    vertex 2.4273313361201856 37.52783357032502 208.54546991831924
    vertex -2.7932682959789514 35.473942713451365 203.32487028622012
    vertex 1.8735556022726583 34.60505128382261 207.9916941844717
  endloop
endfacet
facet normal -0.7071067811865477 0.0 0.7071067811865475
  outer loop
    vertex 2.4273313361201856 37.52783357032502 208.54546991831924
    vertex 1.8735556022726583 34.60505128382261 207.9916941844717
    vertex 6.222343164149507 32.05759050995455 212.34048174634862
  endloop
endfacet
facet normal -0.7071067811865477 0.0 0.7071067811865475
  outer loop
    vertex 2.4273313361201856 37.52783357032502 208.54546991831924
    vertex 6.222343164149507 32.05759050995455 212.34048174634862
    vertex 5.933542345706243 35.473942713451365 212.05168092790527
  endloop
endfacet
facet normal -0.7071067811865477 0.0 0.7071067811865475
  outer loop
    vertex 5.933542345706243 35.473942713451365 212.05168092790527
    vertex 6.222343164149507 32.05759050995455 212.34048174634862
    vertex 7.292155730740549 34.67808541851987 213.4102943129396
  endloop
endfacet
facet normal -0.7071067811865477 0.0 0.7071067811865475
  outer loop
    vertex 7.292155730740549 34.67808541851987 213.4102943129396
    vertex 6.222343164149507 32.05759050995455 212.34048174634862
    vertex 9.956731704021031 28.00516563370833 216.0748702862201
  endloop
endfacet
facet normal -0.7071067811865477 0.0 0.7071067811865475
  outer loop
    vertex 7.292155730740549 34.67808541851987 213.4102943129396
    vertex 9.956731704021031 28.00516563370833 216.0748702862201
    vertex 11.469675144891303 30.14479076689038 217.58781372709035
  endloop
endfacet
facet normal -0.7071067811865477 0.0 0.7071067811865475
  outer loop
    vertex 11.469675144891303 30.14479076689038 217.58781372709035
    vertex 9.956731704021031 28.00516563370833 216.0748702862201
    vertex 12.82222881426378 22.723942713451347 218.9403673964629
  endloop
endfacet
facet normal -0.7071067811865477 0.0 0.7071067811865475
  outer loop
    vertex 11.469675144891303 30.14479076689038 217.58781372709035
    vertex 12.82222881426378 22.723942713451347 218.9403673964629
    vertex 14.675198534175136 24.236886154321578 220.79333711637426
  endloop
endfacet
facet normal -0.7071067811865477 0.0 0.7071067811865475
  outer loop
    vertex 14.675198534175136 24.236886154321578 220.79333711637426
    vertex 12.82222881426378 22.723942713451347 218.9403673964629
    vertex 14.62355560227261 16.57382836356564 220.74169418447164
  endloop
endfacet
facet normal -0.7071067811865477 0.0 0.7071067811865475
  outer loop
    vertex 14.675198534175136 24.236886154321578 220.79333711637426
    vertex 14.62355560227261 16.57382836356564 220.74169418447164
    vertex 14.958677502865417 12.973942713451363 221.0768160850645
  endloop
endfacet
facet normal -0.7071067811865477 0.0 0.7071067811865475
  outer loop
    vertex 14.675198534175136 24.236886154321578 220.79333711637426
    vertex 14.958677502865417 12.973942713451363 221.0768160850645
    vertex 15.23795462427796 22.315516679184398 221.35609320647706
  endloop
endfacet
facet normal -0.7071067811865477 0.0 0.7071067811865475
  outer loop
    vertex 15.23795462427796 22.315516679184398 221.35609320647706
    vertex 14.958677502865417 12.973942713451363 221.0768160850645
    vertex 15.23795462427796 9.973942713451368 221.35609320647706
  endloop
endfacet
facet normal -0.6532814824381877 0.38268343236509117 -0.653281482438188
  outer loop
    vertex -20.824491216235934 22.31551667918442 185.2936473659631
    vertex -18.741277463015628 17.356985516885953 180.30579330731797
    vertex -22.27681136894836 17.356985516885953 183.8413272132507
  endloop
endfacet
facet normal -0.6532814824381877 0.38268343236509117 -0.653281482438188
  outer loop
    vertex -18.741277463015628 17.356985516885953 180.30579330731797
    vertex -20.824491216235934 22.31551667918442 185.2936473659631
    vertex -17.288957310303203 22.31551667918442 181.7581134600304
  endloop
endfacet
facet normal -0.6532814824381881 0.3826834323650903 -0.6532814824381883
  outer loop
    vertex -20.26173512613309 24.236886154321635 185.85640345606598
    vertex -17.288957310303203 22.31551667918442 181.7581134600304
    vertex -20.824491216235934 22.31551667918442 185.2936473659631
  endloop
endfacet
facet normal -0.6532814824381881 0.3826834323650903 -0.6532814824381883
  outer loop
    vertex -17.288957310303203 22.31551667918442 181.7581134600304
    vertex -20.26173512613309 24.236886154321635 185.85640345606598
    vertex -16.72620122020033 24.236886154321635 182.32086955013324
  endloop
endfacet
facet normal -0.560985526796931 0.6087614290087204 -0.5609855267969313
  outer loop
    vertex -17.05621173684925 30.14479076689037 189.0619268453498
    vertex -16.72620122020033 24.236886154321635 182.32086955013324
    vertex -20.26173512613309 24.236886154321635 185.85640345606598
  endloop
endfacet
facet normal -0.560985526796931 0.6087614290087204 -0.5609855267969313
  outer loop
    vertex -16.72620122020033 24.236886154321635 182.32086955013324
    vertex -17.05621173684925 30.14479076689037 189.0619268453498
    vertex -13.520677830916496 30.14479076689037 185.5263929394171
  endloop
endfacet
facet normal -0.4304593345768794 0.7933533402912353 -0.4304593345768795
  outer loop
    vertex -17.05621173684925 30.14479076689037 189.0619268453498
    vertex -9.343158416765748 34.67808541851989 189.70391235356786
    vertex -13.520677830916496 30.14479076689037 185.5263929394171
  endloop
endfacet
facet normal -0.4304593345768794 0.7933533402912353 -0.4304593345768795
  outer loop
    vertex -9.343158416765748 34.67808541851989 189.70391235356786
    vertex -17.05621173684925 30.14479076689037 189.0619268453498
    vertex -12.87869232269849 34.67808541851989 193.2394462595006
  endloop
endfacet
facet normal -0.27059805007309873 0.9238795325112867 -0.27059805007309884
  outer loop
    vertex -9.343158416765748 34.67808541851989 189.70391235356786
    vertex -11.520078937664143 35.473942713451365 194.59805964453489
    vertex -7.984545031731435 35.473942713451365 191.06252573860215
  endloop
endfacet
facet normal -0.27059805007309873 0.9238795325112867 -0.27059805007309884
  outer loop
    vertex -11.520078937664143 35.473942713451365 194.59805964453489
    vertex -9.343158416765748 34.67808541851989 189.70391235356786
    vertex -12.87869232269849 34.67808541851989 193.2394462595006
  endloop
endfacet
facet normal -0.2705980500730989 0.9238795325112865 -0.270598050073099
  outer loop
    vertex -11.520078937664143 35.473942713451365 194.59805964453489
    vertex -4.478334022145381 37.52783357032502 194.5687367481882
    vertex -7.984545031731435 35.473942713451365 191.06252573860215
  endloop
endfacet
facet normal -0.2705980500730989 0.9238795325112865 -0.270598050073099
  outer loop
    vertex -4.478334022145381 37.52783357032502 194.5687367481882
    vertex -11.520078937664143 35.473942713451365 194.59805964453489
    vertex -8.01386792807812 37.52783357032502 198.10427065412097
  endloop
endfacet
facet normal -0.09229595564125666 0.9914448613738106 -0.09229595564125669
  outer loop
    vertex -8.01386792807812 37.52783357032502 198.10427065412097
    vertex 0.742265609953733 38.49982959519182 199.78933638028732
    vertex -4.478334022145381 37.52783357032502 194.5687367481882
  endloop
endfacet
facet normal -0.09229595564125666 0.9914448613738106 -0.09229595564125669
  outer loop
    vertex 0.742265609953733 38.49982959519182 199.78933638028732
    vertex -8.01386792807812 37.52783357032502 198.10427065412097
    vertex -2.7932682959789825 38.49982959519182 203.32487028622006
  endloop
endfacet
facet normal 0.09229595564125553 0.9914448613738107 0.0922959556412556
  outer loop
    vertex -2.7932682959789825 38.49982959519182 203.32487028622006
    vertex 5.962865242052918 37.52783357032502 205.0099360123865
    vertex 0.742265609953733 38.49982959519182 199.78933638028732
  endloop
endfacet
facet normal 0.09229595564125553 0.9914448613738107 0.0922959556412556
  outer loop
    vertex 5.962865242052918 37.52783357032502 205.0099360123865
    vertex -2.7932682959789825 38.49982959519182 203.32487028622006
    vertex 2.4273313361201856 37.52783357032502 208.54546991831924
  endloop
endfacet
facet normal 0.2705980500730989 0.9238795325112865 0.270598050073099
  outer loop
    vertex 2.4273313361201856 37.52783357032502 208.54546991831924
    vertex 9.469076251638974 35.473942713451365 208.51614702197259
    vertex 5.962865242052918 37.52783357032502 205.0099360123865
  endloop
endfacet
facet normal 0.2705980500730989 0.9238795325112865 0.270598050073099
  outer loop
    vertex 9.469076251638974 35.473942713451365 208.51614702197259
    vertex 2.4273313361201856 37.52783357032502 208.54546991831924
    vertex 5.933542345706243 35.473942713451365 212.05168092790527
  endloop
endfacet
facet normal 0.27059805007309984 0.9238795325112861 0.27059805007309995
  outer loop
    vertex 5.933542345706243 35.473942713451365 212.05168092790527
    vertex 10.827689636673313 34.67808541851987 209.8747604070069
    vertex 9.469076251638974 35.473942713451365 208.51614702197259
  endloop
endfacet
facet normal 0.27059805007309984 0.9238795325112861 0.27059805007309995
  outer loop
    vertex 10.827689636673313 34.67808541851987 209.8747604070069
    vertex 5.933542345706243 35.473942713451365 212.05168092790527
    vertex 7.292155730740549 34.67808541851987 213.4102943129396
  endloop
endfacet
facet normal 0.4304593345768805 0.7933533402912339 0.43045933457688057
  outer loop
    vertex 7.292155730740549 34.67808541851987 213.4102943129396
    vertex 15.005209050824032 30.14479076689038 214.05227982115758
    vertex 10.827689636673313 34.67808541851987 209.8747604070069
  endloop
endfacet
facet normal 0.4304593345768805 0.7933533402912339 0.43045933457688057
  outer loop
    vertex 15.005209050824032 30.14479076689038 214.05227982115758
    vertex 7.292155730740549 34.67808541851987 213.4102943129396
    vertex 11.469675144891303 30.14479076689038 217.58781372709035
  endloop
endfacet
facet normal 0.5609855267969314 0.60876142900872 0.5609855267969316
  outer loop
    vertex 15.005209050824032 30.14479076689038 214.05227982115758
    vertex 14.675198534175136 24.236886154321578 220.79333711637426
    vertex 18.210732440107872 24.236886154321578 217.2578032104415
  endloop
endfacet
facet normal 0.5609855267969314 0.60876142900872 0.5609855267969316
  outer loop
    vertex 14.675198534175136 24.236886154321578 220.79333711637426
    vertex 15.005209050824032 30.14479076689038 214.05227982115758
    vertex 11.469675144891303 30.14479076689038 217.58781372709035
  endloop
endfacet
facet normal 0.6532814824381891 0.38268343236508673 0.6532814824381892
  outer loop
    vertex 18.210732440107872 24.236886154321578 217.2578032104415
    vertex 15.23795462427796 22.315516679184398 221.35609320647706
    vertex 18.773488530210706 22.315516679184398 217.82055930054435
  endloop
endfacet
facet normal 0.6532814824381891 0.38268343236508673 0.6532814824381892
  outer loop
    vertex 15.23795462427796 22.315516679184398 221.35609320647706
    vertex 18.210732440107872 24.236886154321578 217.2578032104415
    vertex 14.675198534175136 24.236886154321578 220.79333711637426
  endloop
endfacet
facet normal 0.6532814824381884 0.38268343236508945 0.6532814824381885
  outer loop
    vertex 18.773488530210706 22.315516679184398 217.82055930054435
    vertex 15.923762289633428 19.974022846948387 222.04190087183247
    vertex 19.459296195566193 19.974022846948387 218.50636696589976
  endloop
endfacet
facet normal 0.6532814824381884 0.38268343236508945 0.6532814824381885
  outer loop
    vertex 15.923762289633428 19.974022846948387 222.04190087183247
    vertex 18.773488530210706 22.315516679184398 217.82055930054435
    vertex 15.23795462427796 22.315516679184398 221.35609320647706
  endloop
endfacet
facet normal 0.0 1.0 0.0
  outer loop
    vertex 15.923762289633428 19.974022846948387 222.04190087183247
    vertex 23.006126203089973 19.974022846948387 222.05319697342355
    vertex 19.459296195566193 19.974022846948387 218.50636696589976
  endloop
endfacet
facet normal 0.0 1.0 0.0
  outer loop
    vertex 23.006126203089973 19.974022846948387 222.05319697342355
    vertex 15.923762289633428 19.974022846948387 222.04190087183247
    vertex 19.470592297157225 19.974022846948387 225.58873087935635
  endloop
endfacet
facet normal 0.0 -1.0 0.0
  outer loop
    vertex 19.470592297157225 -0.025977153051613674 225.58873087935635
    vertex 19.45934313668197 -0.025977153051613674 218.50641390701554
    vertex 23.006126203089973 -0.025977153051613674 222.05319697342355
  endloop
endfacet
facet normal 0.0 -1.0 0.0
  outer loop
    vertex 19.45934313668197 -0.025977153051613674 218.50641390701554
    vertex 19.470592297157225 -0.025977153051613674 225.58873087935635
    vertex 15.923809230749239 -0.025977153051613674 222.04194781294828
  endloop
endfacet
facet normal 0.6532814824381857 -0.3826834323650984 0.6532814824381858
  outer loop
    vertex 19.45934313668197 -0.025977153051613674 218.50641390701554
    vertex 15.23795462427796 -2.3676312522816803 221.35609320647706
    vertex 18.773488530210706 -2.3676312522816803 217.82055930054435
  endloop
endfacet
facet normal 0.6532814824381857 -0.3826834323650984 0.6532814824381858
  outer loop
    vertex 15.23795462427796 -2.3676312522816803 221.35609320647706
    vertex 19.45934313668197 -0.025977153051613674 218.50641390701554
    vertex 15.923809230749239 -0.025977153051613674 222.04194781294828
  endloop
endfacet
facet normal 0.6532814824381865 -0.38268343236509567 0.6532814824381867
  outer loop
    vertex 18.773488530210706 -2.3676312522816803 217.82055930054435
    vertex 14.67519853417516 -4.289000727418862 220.7933371163742
    vertex 18.210732440107872 -4.289000727418862 217.2578032104415
  endloop
endfacet
facet normal 0.6532814824381865 -0.38268343236509567 0.6532814824381867
  outer loop
    vertex 14.67519853417516 -4.289000727418862 220.7933371163742
    vertex 18.773488530210706 -2.3676312522816803 217.82055930054435
    vertex 15.23795462427796 -2.3676312522816803 221.35609320647706
  endloop
endfacet
facet normal 0.5609855267969321 -0.6087614290087183 0.5609855267969324
  outer loop
    vertex 18.210732440107872 -4.289000727418862 217.2578032104415
    vertex 11.469675144891303 -10.19690533998766 217.58781372709035
    vertex 15.005209050824032 -10.19690533998766 214.05227982115758
  endloop
endfacet
facet normal 0.5609855267969321 -0.6087614290087183 0.5609855267969324
  outer loop
    vertex 11.469675144891303 -10.19690533998766 217.58781372709035
    vertex 18.210732440107872 -4.289000727418862 217.2578032104415
    vertex 14.67519853417516 -4.289000727418862 220.7933371163742
  endloop
endfacet
facet normal 0.43045933457687896 -0.7933533402912358 0.43045933457687907
  outer loop
    vertex 11.469675144891303 -10.19690533998766 217.58781372709035
    vertex 10.827689636673279 -14.730199991617136 209.87476040700687
    vertex 15.005209050824032 -10.19690533998766 214.05227982115758
  endloop
endfacet
facet normal 0.43045933457687896 -0.7933533402912358 0.43045933457687907
  outer loop
    vertex 10.827689636673279 -14.730199991617136 209.87476040700687
    vertex 11.469675144891303 -10.19690533998766 217.58781372709035
    vertex 7.292155730740549 -14.730199991617136 213.4102943129396
  endloop
endfacet
facet normal 0.2705980500730986 -0.9238795325112867 0.27059805007309873
  outer loop
    vertex 7.292155730740549 -14.730199991617136 213.4102943129396
    vertex 9.469076251638889 -15.526057286548632 208.51614702197253
    vertex 10.827689636673279 -14.730199991617136 209.87476040700687
  endloop
endfacet
facet normal 0.2705980500730986 -0.9238795325112867 0.27059805007309873
  outer loop
    vertex 9.469076251638889 -15.526057286548632 208.51614702197253
    vertex 7.292155730740549 -14.730199991617136 213.4102943129396
    vertex 5.9335423457062095 -15.526057286548632 212.05168092790527
  endloop
endfacet
facet normal 0.27059805007309984 -0.9238795325112862 0.2705980500730999
  outer loop
    vertex 9.469076251638889 -15.526057286548632 208.51614702197253
    vertex 2.4273313361201856 -17.579948143422282 208.54546991831924
    vertex 5.962865242052918 -17.579948143422282 205.0099360123865
  endloop
endfacet
facet normal 0.27059805007309984 -0.9238795325112862 0.2705980500730999
  outer loop
    vertex 2.4273313361201856 -17.579948143422282 208.54546991831924
    vertex 9.469076251638889 -15.526057286548632 208.51614702197253
    vertex 5.9335423457062095 -15.526057286548632 212.05168092790527
  endloop
endfacet
facet normal 0.09229595564125648 -0.9914448613738107 0.09229595564125653
  outer loop
    vertex 2.4273313361201856 -17.579948143422282 208.54546991831924
    vertex 0.742265609953733 -18.551944168289094 199.78933638028732
    vertex 5.962865242052918 -17.579948143422282 205.0099360123865
  endloop
endfacet
facet normal 0.09229595564125648 -0.9914448613738107 0.09229595564125653
  outer loop
    vertex 0.742265609953733 -18.551944168289094 199.78933638028732
    vertex 2.4273313361201856 -17.579948143422282 208.54546991831924
    vertex -2.7932682959789825 -18.551944168289094 203.32487028622006
  endloop
endfacet
facet normal -0.09229595564125827 -0.9914448613738104 -0.0922959556412583
  outer loop
    vertex -2.7932682959789825 -18.551944168289094 203.32487028622006
    vertex -4.478334022145376 -17.57994814342228 194.56873674818823
    vertex 0.742265609953733 -18.551944168289094 199.78933638028732
  endloop
endfacet
facet normal -0.09229595564125827 -0.9914448613738104 -0.0922959556412583
  outer loop
    vertex -4.478334022145376 -17.57994814342228 194.56873674818823
    vertex -2.7932682959789825 -18.551944168289094 203.32487028622006
    vertex -8.01386792807809 -17.57994814342228 198.104270654121
  endloop
endfacet
facet normal -0.27059805007309734 -0.9238795325112874 -0.2705980500730974
  outer loop
    vertex -4.478334022145376 -17.57994814342228 194.56873674818823
    vertex -11.520078937664143 -15.526057286548632 194.59805964453489
    vertex -7.984545031731435 -15.526057286548632 191.06252573860215
  endloop
endfacet
facet normal -0.27059805007309734 -0.9238795325112874 -0.2705980500730974
  outer loop
    vertex -11.520078937664143 -15.526057286548632 194.59805964453489
    vertex -4.478334022145376 -17.57994814342228 194.56873674818823
    vertex -8.01386792807809 -17.57994814342228 198.104270654121
  endloop
endfacet
facet normal -0.270598050073099 -0.9238795325112866 -0.27059805007309906
  outer loop
    vertex -11.520078937664143 -15.526057286548632 194.59805964453489
    vertex -9.343158416765757 -14.730199991617136 189.70391235356783
    vertex -7.984545031731435 -15.526057286548632 191.06252573860215
  endloop
endfacet
facet normal -0.270598050073099 -0.9238795325112866 -0.27059805007309906
  outer loop
    vertex -9.343158416765757 -14.730199991617136 189.70391235356783
    vertex -11.520078937664143 -15.526057286548632 194.59805964453489
    vertex -12.87869232269848 -14.730199991617136 193.23944625950057
  endloop
endfacet
facet normal -0.43045933457688035 -0.7933533402912343 -0.43045933457688046
  outer loop
    vertex -12.87869232269848 -14.730199991617136 193.23944625950057
    vertex -13.520677830916464 -10.19690533998767 185.52639293941712
    vertex -9.343158416765757 -14.730199991617136 189.70391235356783
  endloop
endfacet
facet normal -0.43045933457688035 -0.7933533402912343 -0.43045933457688046
  outer loop
    vertex -13.520677830916464 -10.19690533998767 185.52639293941712
    vertex -12.87869232269848 -14.730199991617136 193.23944625950057
    vertex -17.05621173684921 -10.19690533998767 189.06192684534986
  endloop
endfacet
facet normal -0.5609855267969305 -0.6087614290087218 -0.5609855267969306
  outer loop
    vertex -20.261735126133065 -4.289000727418921 185.85640345606598
    vertex -13.520677830916464 -10.19690533998767 185.52639293941712
    vertex -17.05621173684921 -10.19690533998767 189.06192684534986
  endloop
endfacet
facet normal -0.5609855267969305 -0.6087614290087218 -0.5609855267969306
  outer loop
    vertex -13.520677830916464 -10.19690533998767 185.52639293941712
    vertex -20.261735126133065 -4.289000727418921 185.85640345606598
    vertex -16.72620122020033 -4.289000727418921 182.32086955013324
  endloop
endfacet
facet normal -0.6532814824381884 -0.3826834323650891 -0.6532814824381886
  outer loop
    vertex -20.824491216235934 -2.367631252281646 185.2936473659631
    vertex -16.72620122020033 -4.289000727418921 182.32086955013324
    vertex -20.261735126133065 -4.289000727418921 185.85640345606598
  endloop
endfacet
facet normal -0.6532814824381884 -0.3826834323650891 -0.6532814824381886
  outer loop
    vertex -16.72620122020033 -4.289000727418921 182.32086955013324
    vertex -20.824491216235934 -2.367631252281646 185.2936473659631
    vertex -17.288957310303203 -2.367631252281646 181.7581134600304
  endloop
endfacet
facet normal -0.6532814824381883 -0.3826834323650894 -0.6532814824381885
  outer loop
    vertex -22.27681136894836 2.590899910016852 183.8413272132507
    vertex -17.288957310303203 -2.367631252281646 181.7581134600304
    vertex -20.824491216235934 -2.367631252281646 185.2936473659631
  endloop
endfacet
facet normal -0.6532814824381883 -0.3826834323650894 -0.6532814824381885
  outer loop
    vertex -17.288957310303203 -2.367631252281646 181.7581134600304
    vertex -22.27681136894836 2.590899910016852 183.8413272132507
    vertex -18.741277463015628 2.590899910016852 180.30579330731797
  endloop
endfacet
facet normal -0.7010573846499778 -0.130526192220052 -0.701057384649978
  outer loop
    vertex -22.684839228005465 6.973942713451363 183.4332993541936
    vertex -18.741277463015628 2.590899910016852 180.30579330731797
    vertex -22.27681136894836 2.590899910016852 183.8413272132507
  endloop
endfacet
facet normal -0.7010573846499778 -0.130526192220052 -0.701057384649978
  outer loop
    vertex -18.741277463015628 2.590899910016852 180.30579330731797
    vertex -22.684839228005465 6.973942713451363 183.4332993541936
    vertex -19.149305322072724 6.973942713451363 179.89776544826086
  endloop
endfacet
facet normal -0.701057384649978 -0.13052619222004974 -0.7010573846499782
  outer loop
    vertex -22.96411634941805 9.97394271345138 183.15402223278102
    vertex -19.149305322072724 6.973942713451363 179.89776544826086
    vertex -22.684839228005465 6.973942713451363 183.4332993541936
  endloop
endfacet
facet normal -0.701057384649978 -0.13052619222004974 -0.7010573846499782
  outer loop
    vertex -19.149305322072724 6.973942713451363 179.89776544826086
    vertex -22.96411634941805 9.97394271345138 183.15402223278102
    vertex -19.428582443485286 9.97394271345138 179.6184883268483
  endloop
endfacet
facet normal -0.7010573846499779 0.13052619222005116 -0.7010573846499781
  outer loop
    vertex -22.684839228005465 12.973942713451363 183.4332993541936
    vertex -19.428582443485286 9.97394271345138 179.6184883268483
    vertex -22.96411634941805 9.97394271345138 183.15402223278102
  endloop
endfacet
facet normal -0.7010573846499779 0.13052619222005116 -0.7010573846499781
  outer loop
    vertex -19.428582443485286 9.97394271345138 179.6184883268483
    vertex -22.684839228005465 12.973942713451363 183.4332993541936
    vertex -19.149305322072724 12.973942713451363 179.89776544826086
  endloop
endfacet
facet normal -0.701057384649979 0.13052619222003847 -0.7010573846499792
  outer loop
    vertex -22.64838624877333 13.36552129011152 183.46975233342576
    vertex -19.149305322072724 12.973942713451363 179.89776544826086
    vertex -22.684839228005465 12.973942713451363 183.4332993541936
  endloop
endfacet
facet normal -0.701057384649979 0.13052619222003847 -0.7010573846499792
  outer loop
    vertex -19.149305322072724 12.973942713451363 179.89776544826086
    vertex -22.64838624877333 13.36552129011152 183.46975233342576
    vertex -19.112852342840583 13.36552129011152 179.93421842749302
  endloop
endfacet
facet normal -0.7010573846499779 0.1305261922200508 -0.7010573846499781
  outer loop
    vertex -22.27681136894836 17.356985516885953 183.8413272132507
    vertex -19.112852342840583 13.36552129011152 179.93421842749302
    vertex -22.64838624877333 13.36552129011152 183.46975233342576
  endloop
endfacet
facet normal -0.7010573846499779 0.1305261922200508 -0.7010573846499781
  outer loop
    vertex -19.112852342840583 13.36552129011152 179.93421842749302
    vertex -22.27681136894836 17.356985516885953 183.8413272132507
    vertex -18.741277463015628 17.356985516885953 180.30579330731797
  endloop
endfacet
facet normal -0.7010573846499781 0.1305261922200488 -0.7010573846499784
  outer loop
    vertex 17.37757975746011 9.973942713451368 223.49571833965916
    vertex 20.894808873770366 9.777312325005564 219.94187964410395
    vertex 17.359274967837614 9.777312325005564 223.47741355003674
  endloop
endfacet
facet normal -0.7010573846499781 0.1305261922200488 -0.7010573846499784
  outer loop
    vertex 20.894808873770366 9.777312325005564 219.94187964410395
    vertex 17.37757975746011 9.973942713451368 223.49571833965916
    vertex 20.913113663392824 9.973942713451368 219.96018443372645
  endloop
endfacet
facet normal -0.7010573846499781 -0.1305261922200488 -0.7010573846499784
  outer loop
    vertex 17.359274967837614 10.170573101897174 223.47741355003674
    vertex 20.913113663392824 9.973942713451368 219.96018443372645
    vertex 17.37757975746011 9.973942713451368 223.49571833965916
  endloop
endfacet
facet normal -0.7010573846499781 -0.1305261922200488 -0.7010573846499784
  outer loop
    vertex 20.913113663392824 9.973942713451368 219.96018443372645
    vertex 17.359274967837614 10.170573101897174 223.47741355003674
    vertex 20.894808873770366 10.170573101897174 219.94187964410395
  endloop
endfacet
facet normal 0.7071067811865475 0.0 0.7071067811865477
  outer loop
    vertex 20.894808873770366 10.170573101897174 219.94187964410395
    vertex 17.359274967837614 9.973942713451368 223.47741355003674
    vertex 20.894808873770366 9.973942713451368 219.94187964410395
  endloop
endfacet
facet normal 0.7071067811865475 0.0 0.7071067811865477
  outer loop
    vertex 17.359274967837614 9.973942713451368 223.47741355003674
    vertex 20.894808873770366 10.170573101897174 219.94187964410395
    vertex 17.359274967837614 10.170573101897174 223.47741355003674
  endloop
endfacet
facet normal 0.7071067811865475 0.0 0.7071067811865477
  outer loop
    vertex 20.894808873770366 9.973942713451368 219.94187964410395
    vertex 17.359274967837614 9.777312325005564 223.47741355003674
    vertex 20.894808873770366 9.777312325005564 219.94187964410395
  endloop
endfacet
facet normal 0.7071067811865475 0.0 0.7071067811865477
  outer loop
    vertex 17.359274967837614 9.777312325005564 223.47741355003674
    vertex 20.894808873770366 9.973942713451368 219.94187964410395
    vertex 17.359274967837614 9.973942713451368 223.47741355003674
  endloop
endfacet
facet normal 0.7010573846499779 -0.13052619222005069 0.7010573846499781
  outer loop
    vertex -17.00968018889064 12.973942713451363 182.03739058144296
    vertex -20.824491216235934 9.973942713451368 185.2936473659631
    vertex -17.288957310303203 9.973942713451368 181.7581134600304
  endloop
endfacet
facet normal 0.7010573846499779 -0.13052619222005069 0.7010573846499781
  outer loop
    vertex -20.824491216235934 9.973942713451368 185.2936473659631
    vertex -17.00968018889064 12.973942713451363 182.03739058144296
    vertex -20.54521409482339 12.973942713451363 185.5729244873757
  endloop
endfacet
facet normal 0.701057384649978 0.1305261922200502 0.7010573846499782
  outer loop
    vertex -17.288957310303203 9.973942713451368 181.7581134600304
    vertex -20.54521409482339 6.973942713451363 185.5729244873757
    vertex -17.00968018889064 6.973942713451363 182.03739058144296
  endloop
endfacet
facet normal 0.701057384649978 0.1305261922200502 0.7010573846499782
  outer loop
    vertex -20.54521409482339 6.973942713451363 185.5729244873757
    vertex -17.288957310303203 9.973942713451368 181.7581134600304
    vertex -20.824491216235934 9.973942713451368 185.2936473659631
  endloop
endfacet
facet normal 0.7010573846499778 0.13052619222005238 0.701057384649978
  outer loop
    vertex -17.00968018889064 6.973942713451363 182.03739058144296
    vertex -20.210092194230576 3.374057063337092 185.90804638796848
    vertex -16.67455828829782 3.374057063337092 182.37251248203577
  endloop
endfacet
facet normal 0.7010573846499778 0.13052619222005238 0.701057384649978
  outer loop
    vertex -20.210092194230576 3.374057063337092 185.90804638796848
    vertex -17.00968018889064 6.973942713451363 182.03739058144296
    vertex -20.54521409482339 6.973942713451363 185.5729244873757
  endloop
endfacet
facet normal 0.6532814824381884 0.38268343236508917 0.6532814824381886
  outer loop
    vertex -16.67455828829782 3.374057063337092 182.37251248203577
    vertex -18.408765406221747 -2.7760572865486273 187.7093731759773
    vertex -14.873231500288988 -2.7760572865486273 184.1738392700446
  endloop
endfacet
facet normal 0.6532814824381884 0.38268343236508917 0.6532814824381886
  outer loop
    vertex -18.408765406221747 -2.7760572865486273 187.7093731759773
    vertex -16.67455828829782 3.374057063337092 182.37251248203577
    vertex -20.210092194230576 3.374057063337092 185.90804638796848
  endloop
endfacet
facet normal 0.5609855267969309 0.6087614290087208 0.5609855267969311
  outer loop
    vertex -14.873231500288988 -2.7760572865486273 184.1738392700446
    vertex -15.543268295978972 -8.057280206805594 190.5748702862201
    vertex -12.007734390046227 -8.057280206805594 187.03933638028735
  endloop
endfacet
facet normal 0.5609855267969309 0.6087614290087208 0.5609855267969311
  outer loop
    vertex -15.543268295978972 -8.057280206805594 190.5748702862201
    vertex -14.873231500288988 -2.7760572865486273 184.1738392700446
    vertex -18.408765406221747 -2.7760572865486273 187.7093731759773
  endloop
endfacet
facet normal 0.43045933457687985 0.7933533402912348 0.43045933457688
  outer loop
    vertex -15.543268295978972 -8.057280206805594 190.5748702862201
    vertex -8.273345850174739 -12.109705083051812 190.77372492015888
    vertex -12.007734390046227 -8.057280206805594 187.03933638028735
  endloop
endfacet
facet normal 0.43045933457687985 0.7933533402912348 0.43045933457688
  outer loop
    vertex -8.273345850174739 -12.109705083051812 190.77372492015888
    vertex -15.543268295978972 -8.057280206805594 190.5748702862201
    vertex -11.808879756107494 -12.109705083051812 194.30925882609162
  endloop
endfacet
facet normal 0.2705980500730985 0.9238795325112868 0.2705980500730986
  outer loop
    vertex -8.273345850174739 -12.109705083051812 190.77372492015888
    vertex -7.460092194230601 -14.657165856919873 198.6580463879685
    vertex -3.92455828829782 -14.657165856919873 195.12251248203575
  endloop
endfacet
facet normal 0.2705980500730985 0.9238795325112868 0.2705980500730986
  outer loop
    vertex -7.460092194230601 -14.657165856919873 198.6580463879685
    vertex -8.273345850174739 -12.109705083051812 190.77372492015888
    vertex -11.808879756107494 -12.109705083051812 194.30925882609162
  endloop
endfacet
facet normal 0.09229595564125737 0.9914448613738105 0.0922959556412574
  outer loop
    vertex -7.460092194230601 -14.657165856919873 198.6580463879685
    vertex 0.742265609953781 -15.526057286548632 199.78933638028735
    vertex -3.92455828829782 -14.657165856919873 195.12251248203575
  endloop
endfacet
facet normal 0.09229595564125737 0.9914448613738105 0.0922959556412574
  outer loop
    vertex 0.742265609953781 -15.526057286548632 199.78933638028735
    vertex -7.460092194230601 -14.657165856919873 198.6580463879685
    vertex -2.7932682959789514 -15.526057286548632 203.32487028622012
  endloop
endfacet
facet normal -0.09229595564125678 0.9914448613738105 -0.09229595564125678
  outer loop
    vertex -2.7932682959789514 -15.526057286548632 203.32487028622012
    vertex 5.409089508205311 -14.657165856919878 204.45616027853896
    vertex 0.742265609953781 -15.526057286548632 199.78933638028735
  endloop
endfacet
facet normal -0.09229595564125678 0.9914448613738105 -0.09229595564125678
  outer loop
    vertex 5.409089508205311 -14.657165856919878 204.45616027853896
    vertex -2.7932682959789514 -15.526057286548632 203.32487028622012
    vertex 1.8735556022726274 -14.657165856919878 207.9916941844717
  endloop
endfacet
facet normal -0.2705980500730991 0.9238795325112865 -0.2705980500730992
  outer loop
    vertex 5.409089508205311 -14.657165856919878 204.45616027853896
    vertex 6.222343164149524 -12.109705083051821 212.34048174634856
    vertex 9.757877070082253 -12.109705083051821 208.80494784041582
  endloop
endfacet
facet normal -0.2705980500730991 0.9238795325112865 -0.2705980500730992
  outer loop
    vertex 6.222343164149524 -12.109705083051821 212.34048174634856
    vertex 5.409089508205311 -14.657165856919878 204.45616027853896
    vertex 1.8735556022726274 -14.657165856919878 207.9916941844717
  endloop
endfacet
facet normal -0.4304593345768784 0.7933533402912364 -0.4304593345768787
  outer loop
    vertex 6.222343164149524 -12.109705083051821 212.34048174634856
    vertex 13.492265609953765 -8.057280206805604 212.53933638028735
    vertex 9.757877070082253 -12.109705083051821 208.80494784041582
  endloop
endfacet
facet normal -0.4304593345768784 0.7933533402912364 -0.4304593345768787
  outer loop
    vertex 13.492265609953765 -8.057280206805604 212.53933638028735
    vertex 6.222343164149524 -12.109705083051821 212.34048174634856
    vertex 9.956731704021031 -8.057280206805604 216.0748702862201
  endloop
endfacet
facet normal -0.5609855267969318 0.6087614290087191 -0.5609855267969319
  outer loop
    vertex 12.82222881426378 -2.776057286548644 218.9403673964629
    vertex 13.492265609953765 -8.057280206805604 212.53933638028735
    vertex 9.956731704021031 -8.057280206805604 216.0748702862201
  endloop
endfacet
facet normal -0.5609855267969318 0.6087614290087191 -0.5609855267969319
  outer loop
    vertex 13.492265609953765 -8.057280206805604 212.53933638028735
    vertex 12.82222881426378 -2.776057286548644 218.9403673964629
    vertex 16.35776272019653 -2.776057286548644 215.4048334905301
  endloop
endfacet
facet normal -0.6532814824381874 0.38268343236509217 -0.6532814824381876
  outer loop
    vertex 14.62355560227261 3.3740570633370695 220.74169418447164
    vertex 16.35776272019653 -2.776057286548644 215.4048334905301
    vertex 12.82222881426378 -2.776057286548644 218.9403673964629
  endloop
endfacet
facet normal -0.6532814824381874 0.38268343236509217 -0.6532814824381876
  outer loop
    vertex 16.35776272019653 -2.776057286548644 215.4048334905301
    vertex 14.62355560227261 3.3740570633370695 220.74169418447164
    vertex 18.159089508205355 3.3740570633370695 217.206160278539
  endloop
endfacet
facet normal -0.7010573846499778 0.13052619222005152 -0.701057384649978
  outer loop
    vertex 14.958677502865417 6.973942713451363 221.0768160850645
    vertex 18.159089508205355 3.3740570633370695 217.206160278539
    vertex 14.62355560227261 3.3740570633370695 220.74169418447164
  endloop
endfacet
facet normal -0.7010573846499778 0.13052619222005152 -0.701057384649978
  outer loop
    vertex 18.159089508205355 3.3740570633370695 217.206160278539
    vertex 14.958677502865417 6.973942713451363 221.0768160850645
    vertex 18.494211408798094 6.973942713451363 217.54128217913177
  endloop
endfacet
facet normal -0.701057384649978 0.1305261922200502 -0.7010573846499782
  outer loop
    vertex 15.23795462427796 9.973942713451368 221.35609320647706
    vertex 18.494211408798094 6.973942713451363 217.54128217913177
    vertex 14.958677502865417 6.973942713451363 221.0768160850645
  endloop
endfacet
facet normal -0.701057384649978 0.1305261922200502 -0.7010573846499782
  outer loop
    vertex 18.494211408798094 6.973942713451363 217.54128217913177
    vertex 15.23795462427796 9.973942713451368 221.35609320647706
    vertex 18.773488530210706 9.973942713451368 217.82055930054435
  endloop
endfacet
facet normal -0.7010573846499779 -0.13052619222005069 -0.7010573846499781
  outer loop
    vertex 14.958677502865417 12.973942713451363 221.0768160850645
    vertex 18.773488530210706 9.973942713451368 217.82055930054435
    vertex 15.23795462427796 9.973942713451368 221.35609320647706
  endloop
endfacet
facet normal -0.7010573846499779 -0.13052619222005069 -0.7010573846499781
  outer loop
    vertex 18.773488530210706 9.973942713451368 217.82055930054435
    vertex 14.958677502865417 12.973942713451363 221.0768160850645
    vertex 18.494211408798094 12.973942713451363 217.54128217913177
  endloop
endfacet
facet normal -0.7010573846499778 -0.13052619222005218 -0.701057384649978
  outer loop
    vertex 14.62355560227261 16.57382836356564 220.74169418447164
    vertex 18.494211408798094 12.973942713451363 217.54128217913177
    vertex 14.958677502865417 12.973942713451363 221.0768160850645
  endloop
endfacet
facet normal -0.7010573846499778 -0.13052619222005218 -0.701057384649978
  outer loop
    vertex 18.494211408798094 12.973942713451363 217.54128217913177
    vertex 14.62355560227261 16.57382836356564 220.74169418447164
    vertex 18.159089508205355 16.57382836356564 217.206160278539
  endloop
endfacet
facet normal -0.6532814824381882 -0.3826834323650896 -0.6532814824381884
  outer loop
    vertex 12.82222881426378 22.723942713451347 218.9403673964629
    vertex 18.159089508205355 16.57382836356564 217.206160278539
    vertex 14.62355560227261 16.57382836356564 220.74169418447164
  endloop
endfacet
facet normal -0.6532814824381882 -0.3826834323650896 -0.6532814824381884
  outer loop
    vertex 18.159089508205355 16.57382836356564 217.206160278539
    vertex 12.82222881426378 22.723942713451347 218.9403673964629
    vertex 16.35776272019653 22.723942713451347 215.4048334905301
  endloop
endfacet
facet normal -0.5609855267969317 -0.6087614290087193 -0.5609855267969319
  outer loop
    vertex 9.956731704021031 28.00516563370833 216.0748702862201
    vertex 16.35776272019653 22.723942713451347 215.4048334905301
    vertex 12.82222881426378 22.723942713451347 218.9403673964629
  endloop
endfacet
facet normal -0.5609855267969317 -0.6087614290087193 -0.5609855267969319
  outer loop
    vertex 16.35776272019653 22.723942713451347 215.4048334905301
    vertex 9.956731704021031 28.00516563370833 216.0748702862201
    vertex 13.492265609953765 28.00516563370833 212.53933638028735
  endloop
endfacet
facet normal -0.4304593345768794 -0.7933533402912349 -0.43045933457687957
  outer loop
    vertex 9.956731704021031 28.00516563370833 216.0748702862201
    vertex 9.757877070082253 32.05759050995455 208.80494784041585
    vertex 13.492265609953765 28.00516563370833 212.53933638028735
  endloop
endfacet
facet normal -0.4304593345768794 -0.7933533402912349 -0.43045933457687957
  outer loop
    vertex 9.757877070082253 32.05759050995455 208.80494784041585
    vertex 9.956731704021031 28.00516563370833 216.0748702862201
    vertex 6.222343164149507 32.05759050995455 212.34048174634862
  endloop
endfacet
facet normal -0.2705980500730996 -0.9238795325112861 -0.27059805007309967
  outer loop
    vertex 9.757877070082253 32.05759050995455 208.80494784041585
    vertex 1.8735556022726583 34.60505128382261 207.9916941844717
    vertex 5.409089508205357 34.60505128382261 204.45616027853896
  endloop
endfacet
facet normal -0.2705980500730996 -0.9238795325112861 -0.27059805007309967
  outer loop
    vertex 1.8735556022726583 34.60505128382261 207.9916941844717
    vertex 9.757877070082253 32.05759050995455 208.80494784041585
    vertex 6.222343164149507 32.05759050995455 212.34048174634862
  endloop
endfacet
facet normal -0.09229595564125678 -0.9914448613738106 -0.09229595564125678
  outer loop
    vertex 1.8735556022726583 34.60505128382261 207.9916941844717
    vertex 0.742265609953781 35.473942713451365 199.78933638028735
    vertex 5.409089508205357 34.60505128382261 204.45616027853896
  endloop
endfacet
facet normal -0.09229595564125678 -0.9914448613738106 -0.09229595564125678
  outer loop
    vertex 0.742265609953781 35.473942713451365 199.78933638028735
    vertex 1.8735556022726583 34.60505128382261 207.9916941844717
    vertex -2.7932682959789514 35.473942713451365 203.32487028622012
  endloop
endfacet
facet normal 0.09229595564125709 -0.9914448613738105 0.09229595564125712
  outer loop
    vertex -2.7932682959789514 35.473942713451365 203.32487028622012
    vertex -3.92455828829782 34.60505128382261 195.12251248203575
    vertex 0.742265609953781 35.473942713451365 199.78933638028735
  endloop
endfacet
facet normal 0.09229595564125709 -0.9914448613738105 0.09229595564125712
  outer loop
    vertex -3.92455828829782 34.60505128382261 195.12251248203575
    vertex -2.7932682959789514 35.473942713451365 203.32487028622012
    vertex -7.460092194230601 34.60505128382261 198.6580463879685
  endloop
endfacet
facet normal 0.2705980500730986 -0.9238795325112867 0.27059805007309873
  outer loop
    vertex -7.460092194230601 34.60505128382261 198.6580463879685
    vertex -8.273345850174731 32.05759050995456 190.77372492015888
    vertex -3.92455828829782 34.60505128382261 195.12251248203575
  endloop
endfacet
facet normal 0.2705980500730986 -0.9238795325112867 0.27059805007309873
  outer loop
    vertex -8.273345850174731 32.05759050995456 190.77372492015888
    vertex -7.460092194230601 34.60505128382261 198.6580463879685
    vertex -11.808879756107446 32.05759050995456 194.30925882609162
  endloop
endfacet
facet normal 0.4304593345768792 -0.7933533402912353 0.4304593345768794
  outer loop
    vertex -8.273345850174731 32.05759050995456 190.77372492015888
    vertex -15.543268295978972 28.00516563370833 190.5748702862201
    vertex -12.007734390046227 28.00516563370833 187.03933638028735
  endloop
endfacet
facet normal 0.4304593345768792 -0.7933533402912353 0.4304593345768794
  outer loop
    vertex -15.543268295978972 28.00516563370833 190.5748702862201
    vertex -8.273345850174731 32.05759050995456 190.77372492015888
    vertex -11.808879756107446 32.05759050995456 194.30925882609162
  endloop
endfacet
facet normal 0.5609855267969307 -0.608761429008721 0.5609855267969309
  outer loop
    vertex -12.007734390046227 28.00516563370833 187.03933638028735
    vertex -18.408765406221747 22.72394271345137 187.7093731759773
    vertex -14.873231500288988 22.72394271345137 184.1738392700446
  endloop
endfacet
facet normal 0.5609855267969307 -0.608761429008721 0.5609855267969309
  outer loop
    vertex -18.408765406221747 22.72394271345137 187.7093731759773
    vertex -12.007734390046227 28.00516563370833 187.03933638028735
    vertex -15.543268295978972 28.00516563370833 190.5748702862201
  endloop
endfacet
facet normal 0.6532814824381884 -0.38268343236508917 0.6532814824381886
  outer loop
    vertex -14.873231500288988 22.72394271345137 184.1738392700446
    vertex -20.210092194230576 16.57382836356565 185.90804638796848
    vertex -16.67455828829782 16.57382836356565 182.37251248203577
  endloop
endfacet
facet normal 0.6532814824381884 -0.38268343236508917 0.6532814824381886
  outer loop
    vertex -20.210092194230576 16.57382836356565 185.90804638796848
    vertex -14.873231500288988 22.72394271345137 184.1738392700446
    vertex -18.408765406221747 22.72394271345137 187.7093731759773
  endloop
endfacet
facet normal 0.7010573846499778 -0.13052619222005174 0.701057384649978
  outer loop
    vertex -16.67455828829782 16.57382836356565 182.37251248203577
    vertex -20.54521409482339 12.973942713451363 185.5729244873757
    vertex -17.00968018889064 12.973942713451363 182.03739058144296
  endloop
endfacet
facet normal 0.7010573846499778 -0.13052619222005174 0.701057384649978
  outer loop
    vertex -20.54521409482339 12.973942713451363 185.5729244873757
    vertex -16.67455828829782 16.57382836356565 182.37251248203577
    vertex -20.210092194230576 16.57382836356565 185.90804638796848
  endloop
endfacet
facet normal 0.7071067811865475 0.0 0.7071067811865477
  outer loop
    vertex 86.64573650987923 19.974022846948387 285.692807280213
    vertex 79.57466869801372 -0.025977153051613674 292.7638750920785
    vertex 86.64573650987923 -0.025977153051613674 285.692807280213
  endloop
endfacet
facet normal 0.7071067811865475 0.0 0.7071067811865477
  outer loop
    vertex 79.57466869801372 -0.025977153051613674 292.7638750920785
    vertex 86.64573650987923 19.974022846948387 285.692807280213
    vertex 79.57466869801372 19.974022846948387 292.7638750920785
  endloop
endfacet
facet normal 0.7071067811865477 0.0 -0.7071067811865475
  outer loop
    vertex 86.64573650987923 19.974022846948387 285.692807280213
    vertex 23.006126203089973 -0.025977153051613674 222.05319697342355
    vertex 23.006126203089973 19.974022846948387 222.05319697342355
  endloop
endfacet
facet normal 0.7071067811865477 0.0 -0.7071067811865475
  outer loop
    vertex 23.006126203089973 -0.025977153051613674 222.05319697342355
    vertex 86.64573650987923 19.974022846948387 285.692807280213
    vertex 86.64573650987923 -0.025977153051613674 285.692807280213
  endloop
endfacet
facet normal 0.0 1.0 0.0
  outer loop
    vertex 19.470592297157225 19.974022846948387 225.58873087935635
    vertex 86.64573650987923 19.974022846948387 285.692807280213
    vertex 23.006126203089973 19.974022846948387 222.05319697342355
  endloop
endfacet
facet normal 0.0 1.0 0.0
  outer loop
    vertex 86.64573650987923 19.974022846948387 285.692807280213
    vertex 19.470592297157225 19.974022846948387 225.58873087935635
    vertex 76.03913479208097 19.974022846948387 282.1572733742802
  endloop
endfacet
facet normal 0.0 1.0 0.0
  outer loop
    vertex 86.64573650987923 19.974022846948387 285.692807280213
    vertex 76.03913479208097 19.974022846948387 282.1572733742802
    vertex 79.57466869801372 19.974022846948387 292.7638750920785
  endloop
endfacet
facet normal 0.0 1.0 0.0
  outer loop
    vertex 79.57466869801372 19.974022846948387 292.7638750920785
    vertex 76.03913479208097 19.974022846948387 282.1572733742802
    vertex 72.50360088614822 19.974022846948387 285.69280728021295
  endloop
endfacet
facet normal -0.7071067811865483 -1.8993015949582978e-16 0.7071067811865468
  outer loop
    vertex 76.039134792081 -0.025977153051613674 282.1572733742802
    vertex 19.470592297157225 19.974022846948387 225.58873087935635
    vertex 19.470592297157225 -0.025977153051613674 225.58873087935635
  endloop
endfacet
facet normal -0.7071067811865483 -1.8993015949582978e-16 0.7071067811865468
  outer loop
    vertex 19.470592297157225 19.974022846948387 225.58873087935635
    vertex 76.039134792081 -0.025977153051613674 282.1572733742802
    vertex 76.03913479208097 19.974022846948387 282.1572733742802
  endloop
endfacet
facet normal 0.0 -1.0 0.0
  outer loop
    vertex 86.64573650987923 -0.025977153051613674 285.692807280213
    vertex 19.470592297157225 -0.025977153051613674 225.58873087935635
    vertex 23.006126203089973 -0.025977153051613674 222.05319697342355
  endloop
endfacet
facet normal 0.0 -1.0 0.0
  outer loop
    vertex 19.470592297157225 -0.025977153051613674 225.58873087935635
    vertex 86.64573650987923 -0.025977153051613674 285.692807280213
    vertex 76.039134792081 -0.025977153051613674 282.1572733742802
  endloop
endfacet
facet normal 0.0 -1.0 0.0
  outer loop
    vertex 76.039134792081 -0.025977153051613674 282.1572733742802
    vertex 86.64573650987923 -0.025977153051613674 285.692807280213
    vertex 79.57466869801372 -0.025977153051613674 292.7638750920785
  endloop
endfacet
facet normal 0.0 -1.0 0.0
  outer loop
    vertex 76.039134792081 -0.025977153051613674 282.1572733742802
    vertex 79.57466869801372 -0.025977153051613674 292.7638750920785
    vertex 72.50360088614828 -0.025977153051613674 285.69280728021295
  endloop
endfacet
facet normal -0.7071067811865506 -1.9784391614149015e-16 0.7071067811865446
  outer loop
    vertex 72.50360088614828 -0.025977153051613674 285.69280728021295
    vertex 79.57466869801372 19.974022846948387 292.7638750920785
    vertex 72.50360088614822 19.974022846948387 285.69280728021295
  endloop
endfacet
facet normal -0.7071067811865506 -1.9784391614149015e-16 0.7071067811865446
  outer loop
    vertex 79.57466869801372 19.974022846948387 292.7638750920785
    vertex 72.50360088614828 -0.025977153051613674 285.69280728021295
    vertex 79.57466869801372 -0.025977153051613674 292.7638750920785
  endloop
endfacet
facet normal -0.7071067811865447 -3.9880348450567713e-16 -0.7071067811865505
  outer loop
    vertex 72.50360088614822 19.974022846948387 285.69280728021295
    vertex 76.039134792081 -0.025977153051613674 282.1572733742802
    vertex 72.50360088614828 -0.025977153051613674 285.69280728021295
  endloop
endfacet
facet normal -0.7071067811865447 -3.9880348450567713e-16 -0.7071067811865505
  outer loop
    vertex 76.039134792081 -0.025977153051613674 282.1572733742802
    vertex 72.50360088614822 19.974022846948387 285.69280728021295
    vertex 76.03913479208097 19.974022846948387 282.1572733742802
  endloop
endfacet
endsolid oficina
