solid oficina
facet normal -0.3826834323650988 0.9238795325112832 0.0
  outer loop
    vertex 264.8080425396433 278.9692168531386 96.85829183553675
    vertex 272.04347118656204 281.9662295282755 91.75484355967677
    vertex 264.8080425396433 278.9692168531386 91.75484355967677
  endloop
endfacet
facet normal -0.3826834323650988 0.9238795325112832 0.0
  outer loop
    vertex 272.04347118656204 281.9662295282755 91.75484355967677
    vertex 264.8080425396433 278.9692168531386 96.85829183553675
    vertex 272.04347118656204 281.9662295282755 96.85829183553675
  endloop
endfacet
facet normal -0.13052619222004308 0.9914448613738115 0.0
  outer loop
    vertex 257.0434711865728 277.94699164181094 96.85829183553675
    vertex 264.8080425396433 278.9692168531386 91.75484355967677
    vertex 257.0434711865728 277.94699164181094 91.75484355967677
  endloop
endfacet
facet normal -0.13052619222004308 0.9914448613738115 0.0
  outer loop
    vertex 264.8080425396433 278.9692168531386 91.75484355967677
    vertex 257.0434711865728 277.94699164181094 96.85829183553675
    vertex 264.8080425396433 278.9692168531386 96.85829183553675
  endloop
endfacet
facet normal 0.38268343236508684 0.9238795325112882 0.0
  outer loop
    vertex 242.04347118658265 281.96622952827545 96.85829183553675
    vertex 249.27889983350232 278.9692168531381 91.75484355967677
    vertex 242.04347118658265 281.96622952827545 91.75484355967677
  endloop
endfacet
facet normal 0.38268343236508684 0.9238795325112882 0.0
  outer loop
    vertex 249.27889983350232 278.9692168531381 91.75484355967677
    vertex 242.04347118658265 281.96622952827545 96.85829183553675
    vertex 249.27889983350232 278.9692168531381 96.85829183553675
  endloop
endfacet
facet normal 0.9238795325112884 0.38268343236508634 -1.914781730789474e-17
  outer loop
    vertex 229.1344735240797 297.60216405559095 91.75484355967677
    vertex 231.0627090730564 292.94699164180093 96.85829183553675
    vertex 231.0627090730564 292.94699164180093 91.75484355967677
  endloop
endfacet
facet normal 0.9238795325112884 0.38268343236508634 -1.914781730789474e-17
  outer loop
    vertex 231.0627090730564 292.94699164180093 96.85829183553675
    vertex 229.1344735240797 297.60216405559095 91.75484355967677
    vertex 229.1344735240797 297.60216405559095 96.85829183553675
  endloop
endfacet
facet normal 0.9238795325112884 0.38268343236508634 -1.914781730789474e-17
  outer loop
    vertex 229.1344735240797 297.60216405559095 96.85829183553675
    vertex 229.1344735240797 297.60216405559095 91.75484355967677
    vertex 228.06569639791988 300.1824202887206 91.75484355967677
  endloop
endfacet
facet normal 0.9238795325112884 0.38268343236508634 -1.914781730789474e-17
  outer loop
    vertex 229.1344735240797 297.60216405559095 96.85829183553675
    vertex 228.06569639791988 300.1824202887206 91.75484355967677
    vertex 228.06569639791988 300.1824202887206 96.85829183553675
  endloop
endfacet
facet normal -0.9238795325112853 0.3826834323650933 0.0
  outer loop
    vertex 286.02124597522504 300.1824202887206 96.85829183553675
    vertex 283.0242333000885 292.946991641801 91.75484355967677
    vertex 283.0242333000885 292.946991641801 96.85829183553675
  endloop
endfacet
facet normal -0.9238795325112853 0.3826834323650933 0.0
  outer loop
    vertex 283.0242333000885 292.946991641801 91.75484355967677
    vertex 286.02124597522504 300.1824202887206 96.85829183553675
    vertex 286.02124597522504 300.1824202887206 91.75484355967677
  endloop
endfacet
facet normal 1.0 7.665554534124869e-16 -6.455638596953505e-16
  outer loop
    vertex 341.6641608416926 284.18837095215144 70.20311942175681
    vertex 341.6641608416926 286.25733646939136 74.30656769761686
    vertex 341.6641608416926 284.18837095215144 96.85829183553676
  endloop
endfacet
facet normal 1.0 7.665554534124869e-16 -6.455638596953505e-16
  outer loop
    vertex 341.6641608416926 286.25733646939136 74.30656769761686
    vertex 341.6641608416926 284.18837095215144 70.20311942175681
    vertex 341.6641608416926 307.9469916417914 70.20311942175681
  endloop
endfacet
facet normal 1.0 7.665554534124869e-16 -6.455638596953505e-16
  outer loop
    vertex 341.6641608416926 286.25733646939136 74.30656769761686
    vertex 341.6641608416926 307.9469916417914 70.20311942175681
    vertex 341.6641608416926 307.9469916417914 74.30656769761686
  endloop
endfacet
facet normal 1.0 7.665554534124869e-16 -6.455638596953505e-16
  outer loop
    vertex 341.6641608416926 284.18837095215144 96.85829183553676
    vertex 341.6641608416926 286.25733646939136 93.75484355967674
    vertex 341.6641608416926 307.9469916417914 96.85829183553676
  endloop
endfacet
facet normal 1.0 7.665554534124869e-16 -6.455638596953505e-16
  outer loop
    vertex 341.6641608416926 286.25733646939136 93.75484355967674
    vertex 341.6641608416926 284.18837095215144 96.85829183553676
    vertex 341.6641608416926 286.25733646939136 74.30656769761686
  endloop
endfacet
facet normal 1.0 7.665554534124869e-16 -6.455638596953505e-16
  outer loop
    vertex 341.6641608416926 307.9469916417914 96.85829183553676
    vertex 341.6641608416926 286.25733646939136 93.75484355967674
    vertex 341.6641608416926 307.9469916417914 93.75484355967674
  endloop
endfacet
facet normal 0.6087614290087189 0.7933533402912366 0.0
  outer loop
    vertex 235.8302677509905 286.73378820620843 96.85829183553675
    vertex 242.04347118658265 281.96622952827545 91.75484355967677
    vertex 235.8302677509905 286.73378820620843 91.75484355967677
  endloop
endfacet
facet normal 0.6087614290087189 0.7933533402912366 0.0
  outer loop
    vertex 242.04347118658265 281.96622952827545 91.75484355967677
    vertex 235.8302677509905 286.73378820620843 96.85829183553675
    vertex 242.04347118658265 281.96622952827545 96.85829183553675
  endloop
endfacet
facet normal 0.1305261922200437 0.9914448613738115 0.0
  outer loop
    vertex 249.27889983350232 278.9692168531381 96.85829183553675
    vertex 257.0434711865728 277.94699164181094 91.75484355967677
    vertex 249.27889983350232 278.9692168531381 91.75484355967677
  endloop
endfacet
facet normal 0.1305261922200437 0.9914448613738115 0.0
  outer loop
    vertex 257.0434711865728 277.94699164181094 91.75484355967677
    vertex 249.27889983350232 278.9692168531381 96.85829183553675
    vertex 257.0434711865728 277.94699164181094 96.85829183553675
  endloop
endfacet
facet normal 0.7933533402912362 0.6087614290087193 0.0
  outer loop
    vertex 231.0627090730564 292.94699164180093 91.75484355967677
    vertex 235.8302677509905 286.73378820620843 96.85829183553675
    vertex 235.8302677509905 286.73378820620843 91.75484355967677
  endloop
endfacet
facet normal 0.7933533402912362 0.6087614290087193 0.0
  outer loop
    vertex 235.8302677509905 286.73378820620843 96.85829183553675
    vertex 231.0627090730564 292.94699164180093 91.75484355967677
    vertex 231.0627090730564 292.94699164180093 96.85829183553675
  endloop
endfacet
facet normal -3.4966587742816504e-17 1.2011902112267923e-16 1.0
  outer loop
    vertex 223.76881259920302 297.60216405559095 96.85829183553676
    vertex 204.35381601419292 307.9469916417911 96.85829183553676
    vertex 204.35381601419263 297.60216405559095 96.85829183553676
  endloop
endfacet
facet normal -3.4966587742816504e-17 1.2011902112267923e-16 1.0
  outer loop
    vertex 204.35381601419292 307.9469916417911 96.85829183553676
    vertex 223.76881259920302 297.60216405559095 96.85829183553676
    vertex 227.04347118659243 307.94699164179116 96.85829183553675
  endloop
endfacet
facet normal -3.4966587742816504e-17 1.2011902112267923e-16 1.0
  outer loop
    vertex 227.04347118659243 307.94699164179116 96.85829183553675
    vertex 223.76881259920302 297.60216405559095 96.85829183553676
    vertex 226.73258205411702 290.44699164179116 96.85829183553676
  endloop
endfacet
facet normal -3.4966587742816504e-17 1.2011902112267923e-16 1.0
  outer loop
    vertex 227.04347118659243 307.94699164179116 96.85829183553675
    vertex 226.73258205411702 290.44699164179116 96.85829183553676
    vertex 228.06569639791988 300.1824202887206 96.85829183553675
  endloop
endfacet
facet normal -3.4966587742816504e-17 1.2011902112267923e-16 1.0
  outer loop
    vertex 228.06569639791988 300.1824202887206 96.85829183553675
    vertex 226.73258205411702 290.44699164179116 96.85829183553676
    vertex 232.29473384504317 283.19825430026225 96.85829183553676
  endloop
endfacet
facet normal -3.4966587742816504e-17 1.2011902112267923e-16 1.0
  outer loop
    vertex 228.06569639791988 300.1824202887206 96.85829183553675
    vertex 232.29473384504317 283.19825430026225 96.85829183553676
    vertex 229.1344735240797 297.60216405559095 96.85829183553675
  endloop
endfacet
facet normal -3.4966587742816504e-17 1.2011902112267923e-16 1.0
  outer loop
    vertex 229.1344735240797 297.60216405559095 96.85829183553675
    vertex 232.29473384504317 283.19825430026225 96.85829183553676
    vertex 231.0627090730564 292.94699164180093 96.85829183553675
  endloop
endfacet
facet normal -3.4966587742816504e-17 1.2011902112267923e-16 1.0
  outer loop
    vertex 231.0627090730564 292.94699164180093 96.85829183553675
    vertex 232.29473384504317 283.19825430026225 96.85829183553676
    vertex 235.8302677509905 286.73378820620843 96.85829183553675
  endloop
endfacet
facet normal -3.4966587742816504e-17 1.2011902112267923e-16 1.0
  outer loop
    vertex 235.8302677509905 286.73378820620843 96.85829183553675
    vertex 232.29473384504317 283.19825430026225 96.85829183553676
    vertex 239.54347118657256 277.6361025093358 96.85829183553676
  endloop
endfacet
facet normal -3.4966587742816504e-17 1.2011902112267923e-16 1.0
  outer loop
    vertex 235.8302677509905 286.73378820620843 96.85829183553675
    vertex 239.54347118657256 277.6361025093358 96.85829183553676
    vertex 242.04347118658265 281.96622952827545 96.85829183553675
  endloop
endfacet
facet normal -3.4966587742816504e-17 1.2011902112267923e-16 1.0
  outer loop
    vertex 242.04347118658265 281.96622952827545 96.85829183553675
    vertex 239.54347118657256 277.6361025093358 96.85829183553676
    vertex 247.98480460798433 274.1395877216739 96.85829183553676
  endloop
endfacet
facet normal -3.4966587742816504e-17 1.2011902112267923e-16 1.0
  outer loop
    vertex 242.04347118658265 281.96622952827545 96.85829183553675
    vertex 247.98480460798433 274.1395877216739 96.85829183553676
    vertex 249.27889983350232 278.9692168531381 96.85829183553675
  endloop
endfacet
facet normal -3.4966587742816504e-17 1.2011902112267923e-16 1.0
  outer loop
    vertex 249.27889983350232 278.9692168531381 96.85829183553675
    vertex 247.98480460798433 274.1395877216739 96.85829183553676
    vertex 257.0434711865727 272.94699164179116 96.85829183553676
  endloop
endfacet
facet normal -3.4966587742816504e-17 1.2011902112267923e-16 1.0
  outer loop
    vertex 249.27889983350232 278.9692168531381 96.85829183553675
    vertex 257.0434711865727 272.94699164179116 96.85829183553676
    vertex 257.0434711865728 277.94699164181094 96.85829183553675
  endloop
endfacet
facet normal -3.4966587742816504e-17 1.2011902112267923e-16 1.0
  outer loop
    vertex 257.0434711865728 277.94699164181094 96.85829183553675
    vertex 257.0434711865727 272.94699164179116 96.85829183553676
    vertex 266.1021377651609 274.1395877216739 96.85829183553676
  endloop
endfacet
facet normal -3.4966587742816504e-17 1.2011902112267923e-16 1.0
  outer loop
    vertex 257.0434711865728 277.94699164181094 96.85829183553675
    vertex 266.1021377651609 274.1395877216739 96.85829183553676
    vertex 264.8080425396433 278.9692168531386 96.85829183553675
  endloop
endfacet
facet normal -3.4966587742816504e-17 1.2011902112267923e-16 1.0
  outer loop
    vertex 264.8080425396433 278.9692168531386 96.85829183553675
    vertex 266.1021377651609 274.1395877216739 96.85829183553676
    vertex 272.04347118656204 281.9662295282755 96.85829183553675
  endloop
endfacet
facet normal -3.4966587742816504e-17 1.2011902112267923e-16 1.0
  outer loop
    vertex 272.04347118656204 281.9662295282755 96.85829183553675
    vertex 266.1021377651609 274.1395877216739 96.85829183553676
    vertex 274.5434711865726 277.63610250933596 96.85829183553676
  endloop
endfacet
facet normal -3.4966587742816504e-17 1.2011902112267923e-16 1.0
  outer loop
    vertex 272.04347118656204 281.9662295282755 96.85829183553675
    vertex 274.5434711865726 277.63610250933596 96.85829183553676
    vertex 278.2566746221546 286.73378820620854 96.85829183553675
  endloop
endfacet
facet normal -3.4966587742816504e-17 1.2011902112267923e-16 1.0
  outer loop
    vertex 278.2566746221546 286.73378820620854 96.85829183553675
    vertex 274.5434711865726 277.63610250933596 96.85829183553676
    vertex 281.7922085281017 283.1982543002623 96.85829183553676
  endloop
endfacet
facet normal -3.4966587742816504e-17 1.2011902112267923e-16 1.0
  outer loop
    vertex 278.2566746221546 286.73378820620854 96.85829183553675
    vertex 281.7922085281017 283.1982543002623 96.85829183553676
    vertex 283.0242333000885 292.946991641801 96.85829183553675
  endloop
endfacet
facet normal -3.4966587742816504e-17 1.2011902112267923e-16 1.0
  outer loop
    vertex 283.0242333000885 292.946991641801 96.85829183553675
    vertex 281.7922085281017 283.1982543002623 96.85829183553676
    vertex 282.55195175634344 284.1883709521513 96.85829183553676
  endloop
endfacet
facet normal -3.4966587742816504e-17 1.2011902112267923e-16 1.0
  outer loop
    vertex 283.0242333000885 292.946991641801 96.85829183553675
    vertex 282.55195175634344 284.1883709521513 96.85829183553676
    vertex 341.6641608416926 284.18837095215144 96.85829183553676
  endloop
endfacet
facet normal -3.4966587742816504e-17 1.2011902112267923e-16 1.0
  outer loop
    vertex 283.0242333000885 292.946991641801 96.85829183553675
    vertex 341.6641608416926 284.18837095215144 96.85829183553676
    vertex 286.02124597522504 300.1824202887206 96.85829183553675
  endloop
endfacet
facet normal -3.4966587742816504e-17 1.2011902112267923e-16 1.0
  outer loop
    vertex 286.02124597522504 300.1824202887206 96.85829183553675
    vertex 341.6641608416926 284.18837095215144 96.85829183553676
    vertex 286.36250999213496 302.774577848691 96.85829183553675
  endloop
endfacet
facet normal -3.4966587742816504e-17 1.2011902112267923e-16 1.0
  outer loop
    vertex 286.36250999213496 302.774577848691 96.85829183553675
    vertex 341.6641608416926 284.18837095215144 96.85829183553676
    vertex 287.043471186552 307.94699164179116 96.85829183553676
  endloop
endfacet
facet normal -3.4966587742816504e-17 1.2011902112267923e-16 1.0
  outer loop
    vertex 287.043471186552 307.94699164179116 96.85829183553676
    vertex 341.6641608416926 284.18837095215144 96.85829183553676
    vertex 341.6641608416926 307.9469916417914 96.85829183553676
  endloop
endfacet
facet normal 1.330261050136615e-16 -2.749382487240983e-16 -1.0
  outer loop
    vertex 341.6641608416926 307.9469916417914 70.20311942175681
    vertex 293.11243670379287 284.1883709521513 70.20311942175681
    vertex 293.1124367037928 307.94699164179116 70.20311942175681
  endloop
endfacet
facet normal 1.330261050136615e-16 -2.749382487240983e-16 -1.0
  outer loop
    vertex 293.11243670379287 284.1883709521513 70.20311942175681
    vertex 341.6641608416926 307.9469916417914 70.20311942175681
    vertex 341.6641608416926 284.18837095215144 70.20311942175681
  endloop
endfacet
facet normal -3.4825382073603274e-15 1.0 -3.605731760124922e-16
  outer loop
    vertex 293.1124367037928 307.94699164179116 70.20311942175681
    vertex 295.11243670379247 307.94699164179116 74.30656769761686
    vertex 341.6641608416926 307.9469916417914 70.20311942175681
  endloop
endfacet
facet normal -3.4825382073603274e-15 1.0 -3.605731760124922e-16
  outer loop
    vertex 295.11243670379247 307.94699164179116 74.30656769761686
    vertex 293.1124367037928 307.94699164179116 70.20311942175681
    vertex 293.11243670379287 307.9469916417912 80.63433572777788
  endloop
endfacet
facet normal -3.4825382073603274e-15 1.0 -3.605731760124922e-16
  outer loop
    vertex 295.11243670379247 307.94699164179116 74.30656769761686
    vertex 293.11243670379287 307.9469916417912 80.63433572777788
    vertex 295.11243670379247 307.94699164179116 93.75484355967679
  endloop
endfacet
facet normal -3.4825382073603274e-15 1.0 -3.605731760124922e-16
  outer loop
    vertex 295.11243670379247 307.94699164179116 93.75484355967679
    vertex 293.11243670379287 307.9469916417912 80.63433572777788
    vertex 287.0434711865519 307.94699164179116 91.75484355967677
  endloop
endfacet
facet normal -3.4825382073603274e-15 1.0 -3.605731760124922e-16
  outer loop
    vertex 295.11243670379247 307.94699164179116 93.75484355967679
    vertex 287.0434711865519 307.94699164179116 91.75484355967677
    vertex 287.043471186552 307.94699164179116 96.85829183553676
  endloop
endfacet
facet normal -3.4825382073603274e-15 1.0 -3.605731760124922e-16
  outer loop
    vertex 295.11243670379247 307.94699164179116 93.75484355967679
    vertex 341.6641608416926 307.9469916417914 96.85829183553676
    vertex 341.6641608416926 307.9469916417914 93.75484355967674
  endloop
endfacet
facet normal -3.4825382073603274e-15 1.0 -3.605731760124922e-16
  outer loop
    vertex 341.6641608416926 307.9469916417914 96.85829183553676
    vertex 295.11243670379247 307.94699164179116 93.75484355967679
    vertex 287.043471186552 307.94699164179116 96.85829183553676
  endloop
endfacet
facet normal -3.4825382073603274e-15 1.0 -3.605731760124922e-16
  outer loop
    vertex 341.6641608416926 307.9469916417914 74.30656769761686
    vertex 341.6641608416926 307.9469916417914 70.20311942175681
    vertex 295.11243670379247 307.94699164179116 74.30656769761686
  endloop
endfacet
facet normal -0.9914448613738158 0.1305261922200114 2.9229707411151197e-15
  outer loop
    vertex 286.36250999213496 302.774577848691 96.85829183553675
    vertex 286.02124597522504 300.1824202887206 91.75484355967677
    vertex 286.02124597522504 300.1824202887206 96.85829183553675
  endloop
endfacet
facet normal -0.9914448613738158 0.1305261922200114 2.9229707411151197e-15
  outer loop
    vertex 286.02124597522504 300.1824202887206 91.75484355967677
    vertex 286.36250999213496 302.774577848691 96.85829183553675
    vertex 286.36250999213496 302.774577848691 91.75484355967677
  endloop
endfacet
facet normal -0.9914448613738158 0.1305261922200114 2.9229707411151197e-15
  outer loop
    vertex 286.36250999213496 302.774577848691 91.75484355967677
    vertex 286.36250999213496 302.774577848691 96.85829183553675
    vertex 287.043471186552 307.94699164179116 96.85829183553676
  endloop
endfacet
facet normal -0.9914448613738158 0.1305261922200114 2.9229707411151197e-15
  outer loop
    vertex 286.36250999213496 302.774577848691 91.75484355967677
    vertex 287.043471186552 307.94699164179116 96.85829183553676
    vertex 287.0434711865519 307.94699164179116 91.75484355967677
  endloop
endfacet
facet normal -0.6087614290087148 0.7933533402912396 0.0
  outer loop
    vertex 272.04347118656204 281.9662295282755 96.85829183553675
    vertex 278.2566746221546 286.73378820620854 91.75484355967677
    vertex 272.04347118656204 281.9662295282755 91.75484355967677
  endloop
endfacet
facet normal -0.6087614290087148 0.7933533402912396 0.0
  outer loop
    vertex 278.2566746221546 286.73378820620854 91.75484355967677
    vertex 272.04347118656204 281.9662295282755 96.85829183553675
    vertex 278.2566746221546 286.73378820620854 96.85829183553675
  endloop
endfacet
facet normal -0.7933533402912358 0.6087614290087198 0.0
  outer loop
    vertex 283.0242333000885 292.946991641801 96.85829183553675
    vertex 278.2566746221546 286.73378820620854 91.75484355967677
    vertex 278.2566746221546 286.73378820620854 96.85829183553675
  endloop
endfacet
facet normal -0.7933533402912358 0.6087614290087198 0.0
  outer loop
    vertex 278.2566746221546 286.73378820620854 91.75484355967677
    vertex 283.0242333000885 292.946991641801 96.85829183553675
    vertex 283.0242333000885 292.946991641801 91.75484355967677
  endloop
endfacet
facet normal 0.9914448613738099 0.13052619222005651 0.0
  outer loop
    vertex 227.04347118659243 307.94699164179116 91.75484355967679
    vertex 228.06569639791988 300.1824202887206 96.85829183553675
    vertex 228.06569639791988 300.1824202887206 91.75484355967677
  endloop
endfacet
facet normal 0.9914448613738099 0.13052619222005651 0.0
  outer loop
    vertex 228.06569639791988 300.1824202887206 96.85829183553675
    vertex 227.04347118659243 307.94699164179116 91.75484355967679
    vertex 227.04347118659243 307.94699164179116 96.85829183553675
  endloop
endfacet
facet normal -4.070525050691127e-16 1.1912371195334063e-15 -1.0
  outer loop
    vertex 341.6641608416926 307.9469916417914 93.75484355967674
    vertex 295.11243670379247 286.2573364693908 93.75484355967674
    vertex 295.11243670379247 307.94699164179116 93.75484355967679
  endloop
endfacet
facet normal -4.070525050691127e-16 1.1912371195334063e-15 -1.0
  outer loop
    vertex 295.11243670379247 286.2573364693908 93.75484355967674
    vertex 341.6641608416926 307.9469916417914 93.75484355967674
    vertex 341.6641608416926 286.25733646939136 93.75484355967674
  endloop
endfacet
facet normal -3.876931697490675e-15 1.0 1.510308020158761e-31
  outer loop
    vertex 295.11243670379247 286.2573364693908 93.75484355967674
    vertex 341.6641608416926 286.25733646939136 74.30656769761686
    vertex 295.11243670379247 286.2573364693908 74.30656769761686
  endloop
endfacet
facet normal -3.876931697490675e-15 1.0 1.510308020158761e-31
  outer loop
    vertex 341.6641608416926 286.25733646939136 74.30656769761686
    vertex 295.11243670379247 286.2573364693908 93.75484355967674
    vertex 341.6641608416926 286.25733646939136 93.75484355967674
  endloop
endfacet
facet normal 1.8022747112782492e-15 -1.0 7.524635366015254e-16
  outer loop
    vertex 341.6641608416926 284.18837095215144 96.85829183553676
    vertex 293.11243670379287 284.1883709521513 70.20311942175681
    vertex 341.6641608416926 284.18837095215144 70.20311942175681
  endloop
endfacet
facet normal 1.8022747112782492e-15 -1.0 7.524635366015254e-16
  outer loop
    vertex 293.11243670379287 284.1883709521513 70.20311942175681
    vertex 341.6641608416926 284.18837095215144 96.85829183553676
    vertex 293.11243670379287 284.1883709521513 80.63433572777782
  endloop
endfacet
facet normal 1.8022747112782492e-15 -1.0 7.524635366015254e-16
  outer loop
    vertex 293.11243670379287 284.1883709521513 80.63433572777782
    vertex 341.6641608416926 284.18837095215144 96.85829183553676
    vertex 287.04347118655227 284.1883709521513 91.75484355967677
  endloop
endfacet
facet normal 1.8022747112782492e-15 -1.0 7.524635366015254e-16
  outer loop
    vertex 287.04347118655227 284.1883709521513 91.75484355967677
    vertex 341.6641608416926 284.18837095215144 96.85829183553676
    vertex 282.55195175634344 284.1883709521513 91.75484355967677
  endloop
endfacet
facet normal 1.8022747112782492e-15 -1.0 7.524635366015254e-16
  outer loop
    vertex 282.55195175634344 284.1883709521513 91.75484355967677
    vertex 341.6641608416926 284.18837095215144 96.85829183553676
    vertex 282.55195175634344 284.1883709521513 96.85829183553676
  endloop
endfacet
facet normal 0.0 0.0 1.0
  outer loop
    vertex 341.6641608416926 286.25733646939136 74.30656769761686
    vertex 295.11243670379247 307.94699164179116 74.30656769761686
    vertex 295.11243670379247 286.2573364693908 74.30656769761686
  endloop
endfacet
facet normal 0.0 0.0 1.0
  outer loop
    vertex 295.11243670379247 307.94699164179116 74.30656769761686
    vertex 341.6641608416926 286.25733646939136 74.30656769761686
    vertex 341.6641608416926 307.9469916417914 74.30656769761686
  endloop
endfacet
facet normal 1.0 0.0 0.0
  outer loop
    vertex 295.11243670379247 307.94699164179116 74.30656769761686
    vertex 295.11243670379247 286.2573364693908 93.75484355967674
    vertex 295.11243670379247 286.2573364693908 74.30656769761686
  endloop
endfacet
facet normal 1.0 0.0 0.0
  outer loop
    vertex 295.11243670379247 286.2573364693908 93.75484355967674
    vertex 295.11243670379247 307.94699164179116 74.30656769761686
    vertex 295.11243670379247 307.94699164179116 93.75484355967679
  endloop
endfacet
facet normal 0.6087614290087207 -0.7933533402912353 0.0
  outer loop
    vertex 281.7922085281017 283.1982543002623 96.85829183553676
    vertex 274.5434711865726 277.63610250933596 91.75484355967677
    vertex 281.7922085281017 283.1982543002623 91.75484355967677
  endloop
endfacet
facet normal 0.6087614290087207 -0.7933533402912353 0.0
  outer loop
    vertex 274.5434711865726 277.63610250933596 91.75484355967677
    vertex 281.7922085281017 283.1982543002623 96.85829183553676
    vertex 274.5434711865726 277.63610250933596 96.85829183553676
  endloop
endfacet
facet normal -1.8591184855096362e-16 2.4615913526083267e-16 -1.0
  outer loop
    vertex 209.14691946246694 307.9469916417911 91.75484355967679
    vertex 223.76881259920302 297.60216405559095 91.75484355967677
    vertex 209.1469194624667 297.60216405559095 91.75484355967679
  endloop
endfacet
facet normal -1.8591184855096362e-16 2.4615913526083267e-16 -1.0
  outer loop
    vertex 223.76881259920302 297.60216405559095 91.75484355967677
    vertex 209.14691946246694 307.9469916417911 91.75484355967679
    vertex 227.04347118659243 307.94699164179116 91.75484355967679
  endloop
endfacet
facet normal -1.8591184855096362e-16 2.4615913526083267e-16 -1.0
  outer loop
    vertex 223.76881259920302 297.60216405559095 91.75484355967677
    vertex 227.04347118659243 307.94699164179116 91.75484355967679
    vertex 226.73258205411702 290.44699164179116 91.75484355967677
  endloop
endfacet
facet normal -1.8591184855096362e-16 2.4615913526083267e-16 -1.0
  outer loop
    vertex 226.73258205411702 290.44699164179116 91.75484355967677
    vertex 227.04347118659243 307.94699164179116 91.75484355967679
    vertex 228.06569639791988 300.1824202887206 91.75484355967677
  endloop
endfacet
facet normal -1.8591184855096362e-16 2.4615913526083267e-16 -1.0
  outer loop
    vertex 226.73258205411702 290.44699164179116 91.75484355967677
    vertex 228.06569639791988 300.1824202887206 91.75484355967677
    vertex 232.29473384504317 283.19825430026225 91.75484355967677
  endloop
endfacet
facet normal -1.8591184855096362e-16 2.4615913526083267e-16 -1.0
  outer loop
    vertex 232.29473384504317 283.19825430026225 91.75484355967677
    vertex 228.06569639791988 300.1824202887206 91.75484355967677
    vertex 229.1344735240797 297.60216405559095 91.75484355967677
  endloop
endfacet
facet normal -1.8591184855096362e-16 2.4615913526083267e-16 -1.0
  outer loop
    vertex 232.29473384504317 283.19825430026225 91.75484355967677
    vertex 229.1344735240797 297.60216405559095 91.75484355967677
    vertex 231.0627090730564 292.94699164180093 91.75484355967677
  endloop
endfacet
facet normal -1.8591184855096362e-16 2.4615913526083267e-16 -1.0
  outer loop
    vertex 232.29473384504317 283.19825430026225 91.75484355967677
    vertex 231.0627090730564 292.94699164180093 91.75484355967677
    vertex 235.8302677509905 286.73378820620843 91.75484355967677
  endloop
endfacet
facet normal -1.8591184855096362e-16 2.4615913526083267e-16 -1.0
  outer loop
    vertex 232.29473384504317 283.19825430026225 91.75484355967677
    vertex 235.8302677509905 286.73378820620843 91.75484355967677
    vertex 239.54347118657256 277.6361025093358 91.75484355967677
  endloop
endfacet
facet normal -1.8591184855096362e-16 2.4615913526083267e-16 -1.0
  outer loop
    vertex 239.54347118657256 277.6361025093358 91.75484355967677
    vertex 235.8302677509905 286.73378820620843 91.75484355967677
    vertex 242.04347118658265 281.96622952827545 91.75484355967677
  endloop
endfacet
facet normal -1.8591184855096362e-16 2.4615913526083267e-16 -1.0
  outer loop
    vertex 239.54347118657256 277.6361025093358 91.75484355967677
    vertex 242.04347118658265 281.96622952827545 91.75484355967677
    vertex 247.98480460798433 274.1395877216739 91.75484355967677
  endloop
endfacet
facet normal -1.8591184855096362e-16 2.4615913526083267e-16 -1.0
  outer loop
    vertex 247.98480460798433 274.1395877216739 91.75484355967677
    vertex 242.04347118658265 281.96622952827545 91.75484355967677
    vertex 249.27889983350232 278.9692168531381 91.75484355967677
  endloop
endfacet
facet normal -1.8591184855096362e-16 2.4615913526083267e-16 -1.0
  outer loop
    vertex 247.98480460798433 274.1395877216739 91.75484355967677
    vertex 249.27889983350232 278.9692168531381 91.75484355967677
    vertex 257.0434711865727 272.94699164179116 91.75484355967677
  endloop
endfacet
facet normal -1.8591184855096362e-16 2.4615913526083267e-16 -1.0
  outer loop
    vertex 257.0434711865727 272.94699164179116 91.75484355967677
    vertex 249.27889983350232 278.9692168531381 91.75484355967677
    vertex 257.0434711865728 277.94699164181094 91.75484355967677
  endloop
endfacet
facet normal -1.8591184855096362e-16 2.4615913526083267e-16 -1.0
  outer loop
    vertex 257.0434711865727 272.94699164179116 91.75484355967677
    vertex 257.0434711865728 277.94699164181094 91.75484355967677
    vertex 266.1021377651609 274.1395877216739 91.75484355967677
  endloop
endfacet
facet normal -1.8591184855096362e-16 2.4615913526083267e-16 -1.0
  outer loop
    vertex 266.1021377651609 274.1395877216739 91.75484355967677
    vertex 257.0434711865728 277.94699164181094 91.75484355967677
    vertex 264.8080425396433 278.9692168531386 91.75484355967677
  endloop
endfacet
facet normal -1.8591184855096362e-16 2.4615913526083267e-16 -1.0
  outer loop
    vertex 266.1021377651609 274.1395877216739 91.75484355967677
    vertex 264.8080425396433 278.9692168531386 91.75484355967677
    vertex 272.04347118656204 281.9662295282755 91.75484355967677
  endloop
endfacet
facet normal -1.8591184855096362e-16 2.4615913526083267e-16 -1.0
  outer loop
    vertex 266.1021377651609 274.1395877216739 91.75484355967677
    vertex 272.04347118656204 281.9662295282755 91.75484355967677
    vertex 274.5434711865726 277.63610250933596 91.75484355967677
  endloop
endfacet
facet normal -1.8591184855096362e-16 2.4615913526083267e-16 -1.0
  outer loop
    vertex 274.5434711865726 277.63610250933596 91.75484355967677
    vertex 272.04347118656204 281.9662295282755 91.75484355967677
    vertex 278.2566746221546 286.73378820620854 91.75484355967677
  endloop
endfacet
facet normal -1.8591184855096362e-16 2.4615913526083267e-16 -1.0
  outer loop
    vertex 274.5434711865726 277.63610250933596 91.75484355967677
    vertex 278.2566746221546 286.73378820620854 91.75484355967677
    vertex 281.7922085281017 283.1982543002623 91.75484355967677
  endloop
endfacet
facet normal -1.8591184855096362e-16 2.4615913526083267e-16 -1.0
  outer loop
    vertex 281.7922085281017 283.1982543002623 91.75484355967677
    vertex 278.2566746221546 286.73378820620854 91.75484355967677
    vertex 283.0242333000885 292.946991641801 91.75484355967677
  endloop
endfacet
facet normal -1.8591184855096362e-16 2.4615913526083267e-16 -1.0
  outer loop
    vertex 281.7922085281017 283.1982543002623 91.75484355967677
    vertex 283.0242333000885 292.946991641801 91.75484355967677
    vertex 282.55195175634344 284.1883709521513 91.75484355967677
  endloop
endfacet
facet normal -1.8591184855096362e-16 2.4615913526083267e-16 -1.0
  outer loop
    vertex 282.55195175634344 284.1883709521513 91.75484355967677
    vertex 283.0242333000885 292.946991641801 91.75484355967677
    vertex 287.04347118655227 284.1883709521513 91.75484355967677
  endloop
endfacet
facet normal -1.8591184855096362e-16 2.4615913526083267e-16 -1.0
  outer loop
    vertex 287.04347118655227 284.1883709521513 91.75484355967677
    vertex 283.0242333000885 292.946991641801 91.75484355967677
    vertex 286.02124597522504 300.1824202887206 91.75484355967677
  endloop
endfacet
facet normal -1.8591184855096362e-16 2.4615913526083267e-16 -1.0
  outer loop
    vertex 287.04347118655227 284.1883709521513 91.75484355967677
    vertex 286.02124597522504 300.1824202887206 91.75484355967677
    vertex 286.36250999213496 302.774577848691 91.75484355967677
  endloop
endfacet
facet normal -1.8591184855096362e-16 2.4615913526083267e-16 -1.0
  outer loop
    vertex 287.04347118655227 284.1883709521513 91.75484355967677
    vertex 286.36250999213496 302.774577848691 91.75484355967677
    vertex 287.0434711865519 307.94699164179116 91.75484355967677
  endloop
endfacet
facet normal -0.3826834323650892 -0.9238795325112872 0.0
  outer loop
    vertex 247.98480460798433 274.1395877216739 96.85829183553676
    vertex 239.54347118657256 277.6361025093358 91.75484355967677
    vertex 247.98480460798433 274.1395877216739 91.75484355967677
  endloop
endfacet
facet normal -0.3826834323650892 -0.9238795325112872 0.0
  outer loop
    vertex 239.54347118657256 277.6361025093358 91.75484355967677
    vertex 247.98480460798433 274.1395877216739 96.85829183553676
    vertex 239.54347118657256 277.6361025093358 96.85829183553676
  endloop
endfacet
facet normal 0.7933533402912316 -0.6087614290087254 0.0
  outer loop
    vertex 282.55195175634344 284.1883709521513 91.75484355967677
    vertex 281.7922085281017 283.1982543002623 96.85829183553676
    vertex 281.7922085281017 283.1982543002623 91.75484355967677
  endloop
endfacet
facet normal 0.7933533402912316 -0.6087614290087254 0.0
  outer loop
    vertex 281.7922085281017 283.1982543002623 96.85829183553676
    vertex 282.55195175634344 284.1883709521513 91.75484355967677
    vertex 282.55195175634344 284.1883709521513 96.85829183553676
  endloop
endfacet
facet normal -0.9238795325112819 -0.38268343236510205 0.0
  outer loop
    vertex 223.76881259920302 297.60216405559095 96.85829183553676
    vertex 226.73258205411702 290.44699164179116 91.75484355967677
    vertex 226.73258205411702 290.44699164179116 96.85829183553676
  endloop
endfacet
facet normal -0.9238795325112819 -0.38268343236510205 0.0
  outer loop
    vertex 226.73258205411702 290.44699164179116 91.75484355967677
    vertex 223.76881259920302 297.60216405559095 96.85829183553676
    vertex 223.76881259920302 297.60216405559095 91.75484355967677
  endloop
endfacet
facet normal -0.6087614290087182 -0.7933533402912373 0.0
  outer loop
    vertex 239.54347118657256 277.6361025093358 96.85829183553676
    vertex 232.29473384504317 283.19825430026225 91.75484355967677
    vertex 239.54347118657256 277.6361025093358 91.75484355967677
  endloop
endfacet
facet normal -0.6087614290087182 -0.7933533402912373 0.0
  outer loop
    vertex 232.29473384504317 283.19825430026225 91.75484355967677
    vertex 239.54347118657256 277.6361025093358 96.85829183553676
    vertex 232.29473384504317 283.19825430026225 96.85829183553676
  endloop
endfacet
facet normal 0.13052619222005138 -0.9914448613738106 0.0
  outer loop
    vertex 266.1021377651609 274.1395877216739 96.85829183553676
    vertex 257.0434711865727 272.94699164179116 91.75484355967677
    vertex 266.1021377651609 274.1395877216739 91.75484355967677
  endloop
endfacet
facet normal 0.13052619222005138 -0.9914448613738106 0.0
  outer loop
    vertex 257.0434711865727 272.94699164179116 91.75484355967677
    vertex 266.1021377651609 274.1395877216739 96.85829183553676
    vertex 257.0434711865727 272.94699164179116 96.85829183553676
  endloop
endfacet
facet normal 0.3826834323650935 -0.9238795325112854 0.0
  outer loop
    vertex 274.5434711865726 277.63610250933596 96.85829183553676
    vertex 266.1021377651609 274.1395877216739 91.75484355967677
    vertex 274.5434711865726 277.63610250933596 91.75484355967677
  endloop
endfacet
facet normal 0.3826834323650935 -0.9238795325112854 0.0
  outer loop
    vertex 266.1021377651609 274.1395877216739 91.75484355967677
    vertex 274.5434711865726 277.63610250933596 96.85829183553676
    vertex 266.1021377651609 274.1395877216739 96.85829183553676
  endloop
endfacet
facet normal -0.7933533402912369 -0.6087614290087187 0.0
  outer loop
    vertex 226.73258205411702 290.44699164179116 96.85829183553676
    vertex 232.29473384504317 283.19825430026225 91.75484355967677
    vertex 232.29473384504317 283.19825430026225 96.85829183553676
  endloop
endfacet
facet normal -0.7933533402912369 -0.6087614290087187 0.0
  outer loop
    vertex 232.29473384504317 283.19825430026225 91.75484355967677
    vertex 226.73258205411702 290.44699164179116 96.85829183553676
    vertex 226.73258205411702 290.44699164179116 91.75484355967677
  endloop
endfacet
facet normal -0.1305261922200511 -0.9914448613738106 0.0
  outer loop
    vertex 257.0434711865727 272.94699164179116 96.85829183553676
    vertex 247.98480460798433 274.1395877216739 91.75484355967677
    vertex 257.0434711865727 272.94699164179116 91.75484355967677
  endloop
endfacet
facet normal -0.1305261922200511 -0.9914448613738106 0.0
  outer loop
    vertex 247.98480460798433 274.1395877216739 91.75484355967677
    vertex 257.0434711865727 272.94699164179116 96.85829183553676
    vertex 247.98480460798433 274.1395877216739 96.85829183553676
  endloop
endfacet
facet normal -1.0 -1.2660517154359585e-15 -2.231174394147865e-17
  outer loop
    vertex 293.11243670379287 307.9469916417912 80.63433572777788
    vertex 293.11243670379287 284.1883709521513 70.20311942175681
    vertex 293.11243670379287 284.1883709521513 80.63433572777782
  endloop
endfacet
facet normal -1.0 -1.2660517154359585e-15 -2.231174394147865e-17
  outer loop
    vertex 293.11243670379287 284.1883709521513 70.20311942175681
    vertex 293.11243670379287 307.9469916417912 80.63433572777788
    vertex 293.1124367037928 307.94699164179116 70.20311942175681
  endloop
endfacet
facet normal -0.8777882394965708 -4.0995317764256786e-15 -0.47904885617388887
  outer loop
    vertex 287.0434711865519 307.94699164179116 91.75484355967677
    vertex 293.11243670379287 284.1883709521513 80.63433572777782
    vertex 287.04347118655227 284.1883709521513 91.75484355967677
  endloop
endfacet
facet normal -0.8777882394965708 -4.0995317764256786e-15 -0.47904885617388887
  outer loop
    vertex 293.11243670379287 284.1883709521513 80.63433572777782
    vertex 287.0434711865519 307.94699164179116 91.75484355967677
    vertex 293.11243670379287 307.9469916417912 80.63433572777788
  endloop
endfacet
facet normal -2.8502127262927144e-15 -2.9076987731179855e-15 -1.0
  outer loop
    vertex 204.35381601419292 307.9469916417911 55.490956426569035
    vertex 212.6219300996499 303.9044880724177 55.490956426569035
    vertex 204.35381601419294 297.602164055591 55.49095642656913
  endloop
endfacet
facet normal -2.8502127262927144e-15 -2.9076987731179855e-15 -1.0
  outer loop
    vertex 212.6219300996499 303.9044880724177 55.490956426569035
    vertex 204.35381601419292 307.9469916417911 55.490956426569035
    vertex 218.1469194624666 307.9469916417912 55.490956426569035
  endloop
endfacet
facet normal -2.8502127262927144e-15 -2.9076987731179855e-15 -1.0
  outer loop
    vertex 204.35381601419294 297.602164055591 55.49095642656913
    vertex 212.6219300996499 303.9044880724177 55.490956426569035
    vertex 212.3337169779812 303.63940888010484 55.490956426569035
  endloop
endfacet
facet normal -2.8502127262927144e-15 -2.9076987731179855e-15 -1.0
  outer loop
    vertex 204.35381601419294 297.602164055591 55.49095642656913
    vertex 212.3337169779812 303.63940888010484 55.490956426569035
    vertex 212.123932023717 303.3087669973017 55.490956426569035
  endloop
endfacet
facet normal -2.8502127262927144e-15 -2.9076987731179855e-15 -1.0
  outer loop
    vertex 204.35381601419294 297.602164055591 55.49095642656913
    vertex 212.123932023717 303.3087669973017 55.490956426569035
    vertex 212.00687173480446 302.93509512190985 55.490956426569035
  endloop
endfacet
facet normal -2.8502127262927144e-15 -2.9076987731179855e-15 -1.0
  outer loop
    vertex 204.35381601419294 297.602164055591 55.49095642656913
    vertex 212.00687173480446 302.93509512190985 55.490956426569035
    vertex 211.99051357648153 302.5438583747151 55.490956426569035
  endloop
endfacet
facet normal -2.8502127262927144e-15 -2.9076987731179855e-15 -1.0
  outer loop
    vertex 212.6219300996499 303.9044880724177 55.490956426569035
    vertex 218.1469194624666 307.9469916417912 55.490956426569035
    vertex 212.96893014077597 304.08593986534817 55.490956426569035
  endloop
endfacet
facet normal -2.8502127262927144e-15 -2.9076987731179855e-15 -1.0
  outer loop
    vertex 212.96893014077597 304.08593986534817 55.490956426569035
    vertex 218.1469194624666 307.9469916417912 55.490956426569035
    vertex 213.3510696220014 304.17139861907145 55.490956426569035
  endloop
endfacet
facet normal -2.8502127262927144e-15 -2.9076987731179855e-15 -1.0
  outer loop
    vertex 213.3510696220014 304.17139861907145 55.490956426569035
    vertex 218.1469194624666 307.9469916417912 55.490956426569035
    vertex 213.7423063691961 304.1550404607485 55.490956426569035
  endloop
endfacet
facet normal -2.8502127262927144e-15 -2.9076987731179855e-15 -1.0
  outer loop
    vertex 213.7423063691961 304.1550404607485 55.490956426569035
    vertex 218.1469194624666 307.9469916417912 55.490956426569035
    vertex 214.11597824458798 304.0379801718359 55.490956426569035
  endloop
endfacet
facet normal -2.8502127262927144e-15 -2.9076987731179855e-15 -1.0
  outer loop
    vertex 214.11597824458798 304.0379801718359 55.490956426569035
    vertex 218.1469194624666 307.9469916417912 55.490956426569035
    vertex 214.44662012739101 303.8281952175719 55.49095642656903
  endloop
endfacet
facet normal -2.8502127262927144e-15 -2.9076987731179855e-15 -1.0
  outer loop
    vertex 214.44662012739101 303.8281952175719 55.49095642656903
    vertex 218.1469194624666 307.9469916417912 55.490956426569035
    vertex 214.71169931970388 303.53998209590316 55.490956426569035
  endloop
endfacet
facet normal -2.8502127262927144e-15 -2.9076987731179855e-15 -1.0
  outer loop
    vertex 214.71169931970388 303.53998209590316 55.490956426569035
    vertex 218.1469194624666 307.9469916417912 55.490956426569035
    vertex 214.8931511126344 303.1929820547771 55.490956426569035
  endloop
endfacet
facet normal -2.8502127262927144e-15 -2.9076987731179855e-15 -1.0
  outer loop
    vertex 214.8931511126344 303.1929820547771 55.490956426569035
    vertex 218.1469194624666 307.9469916417912 55.490956426569035
    vertex 214.9786098663577 302.8108425735516 55.490956426569035
  endloop
endfacet
facet normal -2.8502127262927144e-15 -2.9076987731179855e-15 -1.0
  outer loop
    vertex 204.35381601419294 297.602164055591 55.49095642656913
    vertex 212.52250331544815 301.526505730695 55.490956426569035
    vertex 218.14691946246674 297.6021640555911 55.490956426569035
  endloop
endfacet
facet normal -2.8502127262927144e-15 -2.9076987731179855e-15 -1.0
  outer loop
    vertex 212.52250331544815 301.526505730695 55.490956426569035
    vertex 204.35381601419294 297.602164055591 55.49095642656913
    vertex 212.25742412313537 301.8147188523637 55.490956426569035
  endloop
endfacet
facet normal -2.8502127262927144e-15 -2.9076987731179855e-15 -1.0
  outer loop
    vertex 212.25742412313537 301.8147188523637 55.490956426569035
    vertex 204.35381601419294 297.602164055591 55.49095642656913
    vertex 212.07597233020485 302.16171889348976 55.490956426569035
  endloop
endfacet
facet normal -2.8502127262927144e-15 -2.9076987731179855e-15 -1.0
  outer loop
    vertex 212.07597233020485 302.16171889348976 55.490956426569035
    vertex 204.35381601419294 297.602164055591 55.49095642656913
    vertex 211.99051357648153 302.5438583747151 55.490956426569035
  endloop
endfacet
facet normal -2.8502127262927144e-15 -2.9076987731179855e-15 -1.0
  outer loop
    vertex 218.14691946246674 297.6021640555911 55.490956426569035
    vertex 212.52250331544815 301.526505730695 55.490956426569035
    vertex 212.85314519825133 301.3167207764309 55.490956426569035
  endloop
endfacet
facet normal -2.8502127262927144e-15 -2.9076987731179855e-15 -1.0
  outer loop
    vertex 218.14691946246674 297.6021640555911 55.490956426569035
    vertex 212.85314519825133 301.3167207764309 55.490956426569035
    vertex 213.2268170736432 301.19966048751826 55.490956426569035
  endloop
endfacet
facet normal -2.8502127262927144e-15 -2.9076987731179855e-15 -1.0
  outer loop
    vertex 218.14691946246674 297.6021640555911 55.490956426569035
    vertex 213.2268170736432 301.19966048751826 55.490956426569035
    vertex 213.6180538208379 301.18330232919527 55.490956426569035
  endloop
endfacet
facet normal -2.8502127262927144e-15 -2.9076987731179855e-15 -1.0
  outer loop
    vertex 218.14691946246674 297.6021640555911 55.490956426569035
    vertex 213.6180538208379 301.18330232919527 55.490956426569035
    vertex 214.00019330206334 301.26876108291856 55.490956426569035
  endloop
endfacet
facet normal -2.8502127262927144e-15 -2.9076987731179855e-15 -1.0
  outer loop
    vertex 218.14691946246674 297.6021640555911 55.490956426569035
    vertex 214.00019330206334 301.26876108291856 55.490956426569035
    vertex 214.34719334318933 301.4502128758491 55.490956426569035
  endloop
endfacet
facet normal -2.8502127262927144e-15 -2.9076987731179855e-15 -1.0
  outer loop
    vertex 218.14691946246674 297.6021640555911 55.490956426569035
    vertex 214.34719334318933 301.4502128758491 55.490956426569035
    vertex 214.635406464858 301.715292068162 55.490956426569035
  endloop
endfacet
facet normal -2.8502127262927144e-15 -2.9076987731179855e-15 -1.0
  outer loop
    vertex 218.14691946246674 297.6021640555911 55.490956426569035
    vertex 214.635406464858 301.715292068162 55.490956426569035
    vertex 214.84519141912216 302.04593395096504 55.49095642656906
  endloop
endfacet
facet normal -2.8502127262927144e-15 -2.9076987731179855e-15 -1.0
  outer loop
    vertex 218.14691946246674 297.6021640555911 55.490956426569035
    vertex 214.84519141912216 302.04593395096504 55.49095642656906
    vertex 214.96225170803473 302.419605826357 55.490956426569035
  endloop
endfacet
facet normal -2.8502127262927144e-15 -2.9076987731179855e-15 -1.0
  outer loop
    vertex 218.14691946246674 297.6021640555911 55.490956426569035
    vertex 214.96225170803473 302.419605826357 55.490956426569035
    vertex 214.9786098663577 302.8108425735516 55.490956426569035
  endloop
endfacet
facet normal -2.8502127262927144e-15 -2.9076987731179855e-15 -1.0
  outer loop
    vertex 218.14691946246674 297.6021640555911 55.490956426569035
    vertex 214.9786098663577 302.8108425735516 55.490956426569035
    vertex 218.1469194624666 307.9469916417912 55.490956426569035
  endloop
endfacet
facet normal -4.025408847221496e-15 1.0 1.8827122056696756e-15
  outer loop
    vertex 204.35381601419292 307.9469916417911 55.490956426569035
    vertex 209.14691946246666 307.94699164179116 70.49095642656904
    vertex 218.1469194624666 307.9469916417912 55.490956426569035
  endloop
endfacet
facet normal -4.025408847221496e-15 1.0 1.8827122056696756e-15
  outer loop
    vertex 209.14691946246666 307.94699164179116 70.49095642656904
    vertex 204.35381601419292 307.9469916417911 55.490956426569035
    vertex 204.35381601419292 307.9469916417911 96.85829183553676
  endloop
endfacet
facet normal -4.025408847221496e-15 1.0 1.8827122056696756e-15
  outer loop
    vertex 218.1469194624666 307.9469916417912 55.490956426569035
    vertex 209.14691946246666 307.94699164179116 70.49095642656904
    vertex 218.1469194624666 307.9469916417912 60.49095642656905
  endloop
endfacet
facet normal -4.025408847221496e-15 1.0 1.8827122056696756e-15
  outer loop
    vertex 209.14691946246666 307.94699164179116 70.49095642656904
    vertex 204.35381601419292 307.9469916417911 96.85829183553676
    vertex 209.14691946246694 307.9469916417911 91.75484355967679
  endloop
endfacet
facet normal -4.025408847221496e-15 1.0 1.8827122056696756e-15
  outer loop
    vertex 209.14691946246694 307.9469916417911 91.75484355967679
    vertex 204.35381601419292 307.9469916417911 96.85829183553676
    vertex 227.04347118659243 307.94699164179116 91.75484355967679
  endloop
endfacet
facet normal -4.025408847221496e-15 1.0 1.8827122056696756e-15
  outer loop
    vertex 227.04347118659243 307.94699164179116 91.75484355967679
    vertex 204.35381601419292 307.9469916417911 96.85829183553676
    vertex 227.04347118659243 307.94699164179116 96.85829183553675
  endloop
endfacet
facet normal 3.367920208645301e-15 -1.0 -3.3919003245767553e-15
  outer loop
    vertex 223.76881259920302 297.60216405559095 96.85829183553676
    vertex 209.1469194624667 297.60216405559095 91.75484355967679
    vertex 223.76881259920302 297.60216405559095 91.75484355967677
  endloop
endfacet
facet normal 3.367920208645301e-15 -1.0 -3.3919003245767553e-15
  outer loop
    vertex 218.14691946246674 297.6021640555911 60.49095642656905
    vertex 204.35381601419294 297.602164055591 55.49095642656913
    vertex 218.14691946246674 297.6021640555911 55.490956426569035
  endloop
endfacet
facet normal 3.367920208645301e-15 -1.0 -3.3919003245767553e-15
  outer loop
    vertex 204.35381601419294 297.602164055591 55.49095642656913
    vertex 218.14691946246674 297.6021640555911 60.49095642656905
    vertex 209.1469194624667 297.602164055591 70.49095642656904
  endloop
endfacet
facet normal 3.367920208645301e-15 -1.0 -3.3919003245767553e-15
  outer loop
    vertex 204.35381601419294 297.602164055591 55.49095642656913
    vertex 209.1469194624667 297.602164055591 70.49095642656904
    vertex 204.35381601419263 297.60216405559095 96.85829183553676
  endloop
endfacet
facet normal 3.367920208645301e-15 -1.0 -3.3919003245767553e-15
  outer loop
    vertex 204.35381601419263 297.60216405559095 96.85829183553676
    vertex 209.1469194624667 297.602164055591 70.49095642656904
    vertex 209.1469194624667 297.60216405559095 91.75484355967679
  endloop
endfacet
facet normal 3.367920208645301e-15 -1.0 -3.3919003245767553e-15
  outer loop
    vertex 204.35381601419263 297.60216405559095 96.85829183553676
    vertex 209.1469194624667 297.60216405559095 91.75484355967679
    vertex 223.76881259920302 297.60216405559095 96.85829183553676
  endloop
endfacet
facet normal -1.0026547493503602e-14 1.0 4.511946372076639e-15
  outer loop
    vertex 209.1469194624667 299.60216405559095 70.49095642656904
    vertex 218.14691946246674 299.6021640555911 60.49095642656905
    vertex 209.1469194624667 299.602164055591 60.49095642656905
  endloop
endfacet
facet normal 1.0026547493503605e-14 -1.0 -9.120797199451293e-29
  outer loop
    vertex 209.14691946246666 305.94699164179116 70.49095642656904
    vertex 209.14691946246657 305.94699164179116 60.49095642656905
    vertex 218.1469194624666 305.9469916417912 60.49095642656905
  endloop
endfacet
facet normal 0.0 0.0 1.0
  outer loop
    vertex 209.1469194624667 299.602164055591 60.49095642656905
    vertex 212.07597233020485 302.16171889348976 60.49095642656904
    vertex 211.99051357648153 302.5438583747151 60.49095642656905
  endloop
endfacet
facet normal 0.0 0.0 1.0
  outer loop
    vertex 212.07597233020485 302.16171889348976 60.49095642656904
    vertex 209.1469194624667 299.602164055591 60.49095642656905
    vertex 212.25742412313537 301.8147188523637 60.49095642656905
  endloop
endfacet
facet normal 0.0 0.0 1.0
  outer loop
    vertex 212.25742412313537 301.8147188523637 60.49095642656905
    vertex 209.1469194624667 299.602164055591 60.49095642656905
    vertex 212.52250331544815 301.526505730695 60.49095642656905
  endloop
endfacet
facet normal 0.0 0.0 1.0
  outer loop
    vertex 212.52250331544815 301.526505730695 60.49095642656905
    vertex 209.1469194624667 299.602164055591 60.49095642656905
    vertex 212.85314519825124 301.3167207764309 60.49095642656905
  endloop
endfacet
facet normal 0.0 0.0 1.0
  outer loop
    vertex 212.85314519825124 301.3167207764309 60.49095642656905
    vertex 209.1469194624667 299.602164055591 60.49095642656905
    vertex 218.14691946246674 299.6021640555911 60.49095642656905
  endloop
endfacet
facet normal 0.0 0.0 1.0
  outer loop
    vertex 212.85314519825124 301.3167207764309 60.49095642656905
    vertex 218.14691946246674 299.6021640555911 60.49095642656905
    vertex 213.2268170736432 301.19966048751826 60.49095642656905
  endloop
endfacet
facet normal 0.0 0.0 1.0
  outer loop
    vertex 213.2268170736432 301.19966048751826 60.49095642656905
    vertex 218.14691946246674 299.6021640555911 60.49095642656905
    vertex 213.6180538208379 301.18330232919527 60.49095642656905
  endloop
endfacet
facet normal 0.0 0.0 1.0
  outer loop
    vertex 213.6180538208379 301.18330232919527 60.49095642656905
    vertex 218.14691946246674 299.6021640555911 60.49095642656905
    vertex 214.00019330206334 301.26876108291856 60.49095642656905
  endloop
endfacet
facet normal 0.0 0.0 1.0
  outer loop
    vertex 214.00019330206334 301.26876108291856 60.49095642656905
    vertex 218.14691946246674 299.6021640555911 60.49095642656905
    vertex 214.34719334318933 301.4502128758491 60.49095642656905
  endloop
endfacet
facet normal 0.0 0.0 1.0
  outer loop
    vertex 214.34719334318933 301.4502128758491 60.49095642656905
    vertex 218.14691946246674 299.6021640555911 60.49095642656905
    vertex 214.635406464858 301.715292068162 60.49095642656905
  endloop
endfacet
facet normal 0.0 0.0 1.0
  outer loop
    vertex 214.635406464858 301.715292068162 60.49095642656905
    vertex 218.14691946246674 299.6021640555911 60.49095642656905
    vertex 214.84519141912216 302.0459339509651 60.49095642656905
  endloop
endfacet
facet normal 0.0 0.0 1.0
  outer loop
    vertex 214.84519141912216 302.0459339509651 60.49095642656905
    vertex 218.14691946246674 299.6021640555911 60.49095642656905
    vertex 214.96225170803473 302.41960582635693 60.49095642656905
  endloop
endfacet
facet normal 0.0 0.0 1.0
  outer loop
    vertex 214.96225170803473 302.41960582635693 60.49095642656905
    vertex 218.14691946246674 299.6021640555911 60.49095642656905
    vertex 214.9786098663577 302.8108425735516 60.49095642656905
  endloop
endfacet
facet normal 0.0 0.0 1.0
  outer loop
    vertex 214.9786098663577 302.8108425735516 60.49095642656905
    vertex 218.14691946246674 299.6021640555911 60.49095642656905
    vertex 218.1469194624666 305.9469916417912 60.49095642656905
  endloop
endfacet
facet normal 0.0 0.0 1.0
  outer loop
    vertex 209.14691946246657 305.94699164179116 60.49095642656905
    vertex 212.96893014077597 304.08593986534817 60.49095642656905
    vertex 218.1469194624666 305.9469916417912 60.49095642656905
  endloop
endfacet
facet normal 0.0 0.0 1.0
  outer loop
    vertex 212.96893014077597 304.08593986534817 60.49095642656905
    vertex 209.14691946246657 305.94699164179116 60.49095642656905
    vertex 212.6219300996499 303.9044880724177 60.49095642656905
  endloop
endfacet
facet normal 0.0 0.0 1.0
  outer loop
    vertex 212.6219300996499 303.9044880724177 60.49095642656905
    vertex 209.14691946246657 305.94699164179116 60.49095642656905
    vertex 212.3337169779812 303.63940888010484 60.49095642656905
  endloop
endfacet
facet normal 0.0 0.0 1.0
  outer loop
    vertex 212.3337169779812 303.63940888010484 60.49095642656905
    vertex 209.14691946246657 305.94699164179116 60.49095642656905
    vertex 209.1469194624667 299.602164055591 60.49095642656905
  endloop
endfacet
facet normal 0.0 0.0 1.0
  outer loop
    vertex 212.3337169779812 303.63940888010484 60.49095642656905
    vertex 209.1469194624667 299.602164055591 60.49095642656905
    vertex 212.123932023717 303.3087669973017 60.49095642656905
  endloop
endfacet
facet normal 0.0 0.0 1.0
  outer loop
    vertex 212.123932023717 303.3087669973017 60.49095642656905
    vertex 209.1469194624667 299.602164055591 60.49095642656905
    vertex 212.00687173480446 302.93509512190985 60.49095642656905
  endloop
endfacet
facet normal 0.0 0.0 1.0
  outer loop
    vertex 212.00687173480446 302.93509512190985 60.49095642656905
    vertex 209.1469194624667 299.602164055591 60.49095642656905
    vertex 211.99051357648153 302.5438583747151 60.49095642656905
  endloop
endfacet
facet normal 0.0 0.0 1.0
  outer loop
    vertex 218.1469194624666 305.9469916417912 60.49095642656905
    vertex 212.96893014077597 304.08593986534817 60.49095642656905
    vertex 213.3510696220014 304.17139861907145 60.49095642656905
  endloop
endfacet
facet normal 0.0 0.0 1.0
  outer loop
    vertex 218.1469194624666 305.9469916417912 60.49095642656905
    vertex 213.3510696220014 304.17139861907145 60.49095642656905
    vertex 213.7423063691961 304.1550404607485 60.49095642656905
  endloop
endfacet
facet normal 0.0 0.0 1.0
  outer loop
    vertex 218.1469194624666 305.9469916417912 60.49095642656905
    vertex 213.7423063691961 304.1550404607485 60.49095642656905
    vertex 214.11597824458798 304.0379801718359 60.49095642656905
  endloop
endfacet
facet normal 0.0 0.0 1.0
  outer loop
    vertex 218.1469194624666 305.9469916417912 60.49095642656905
    vertex 214.11597824458798 304.0379801718359 60.49095642656905
    vertex 214.44662012739101 303.8281952175719 60.49095642656905
  endloop
endfacet
facet normal 0.0 0.0 1.0
  outer loop
    vertex 218.1469194624666 305.9469916417912 60.49095642656905
    vertex 214.44662012739101 303.8281952175719 60.49095642656905
    vertex 214.71169931970388 303.5399820959031 60.49095642656905
  endloop
endfacet
facet normal 0.0 0.0 1.0
  outer loop
    vertex 218.1469194624666 305.9469916417912 60.49095642656905
    vertex 214.71169931970388 303.5399820959031 60.49095642656905
    vertex 214.89315111263437 303.1929820547771 60.49095642656905
  endloop
endfacet
facet normal 0.0 0.0 1.0
  outer loop
    vertex 218.1469194624666 305.9469916417912 60.49095642656905
    vertex 214.89315111263437 303.1929820547771 60.49095642656905
    vertex 214.9786098663577 302.8108425735516 60.49095642656905
  endloop
endfacet
facet normal 0.743294146247165 1.0398445372914457e-16 0.6689647316224511
  outer loop
    vertex 218.14691946246674 297.6021640555911 60.49095642656905
    vertex 209.1469194624667 299.60216405559095 70.49095642656904
    vertex 209.1469194624667 297.602164055591 70.49095642656904
  endloop
endfacet
facet normal 0.743294146247165 1.0398445372914457e-16 0.6689647316224511
  outer loop
    vertex 209.1469194624667 299.60216405559095 70.49095642656904
    vertex 218.14691946246674 297.6021640555911 60.49095642656905
    vertex 218.14691946246674 299.6021640555911 60.49095642656905
  endloop
endfacet
facet normal 0.7432941462471685 2.7035957969274927e-16 0.6689647316224474
  outer loop
    vertex 218.1469194624666 305.9469916417912 60.49095642656905
    vertex 209.14691946246666 307.94699164179116 70.49095642656904
    vertex 209.14691946246666 305.94699164179116 70.49095642656904
  endloop
endfacet
facet normal 0.7432941462471685 2.7035957969274927e-16 0.6689647316224474
  outer loop
    vertex 209.14691946246666 307.94699164179116 70.49095642656904
    vertex 218.1469194624666 305.9469916417912 60.49095642656905
    vertex 218.1469194624666 307.9469916417912 60.49095642656905
  endloop
endfacet
facet normal 1.0 -2.4509410275947988e-15 -5.9091628904295334e-15
  outer loop
    vertex 209.1469194624667 297.602164055591 70.49095642656904
    vertex 209.14691946246694 307.9469916417911 91.75484355967679
    vertex 209.1469194624667 297.60216405559095 91.75484355967679
  endloop
endfacet
facet normal 1.0 -2.4509410275947988e-15 -5.9091628904295334e-15
  outer loop
    vertex 209.14691946246694 307.9469916417911 91.75484355967679
    vertex 209.1469194624667 297.602164055591 70.49095642656904
    vertex 209.1469194624667 299.60216405559095 70.49095642656904
  endloop
endfacet
facet normal 1.0 -2.4509410275947988e-15 -5.9091628904295334e-15
  outer loop
    vertex 209.14691946246694 307.9469916417911 91.75484355967679
    vertex 209.1469194624667 299.60216405559095 70.49095642656904
    vertex 209.1469194624667 299.602164055591 60.49095642656905
  endloop
endfacet
facet normal 1.0 -2.4509410275947988e-15 -5.9091628904295334e-15
  outer loop
    vertex 209.14691946246694 307.9469916417911 91.75484355967679
    vertex 209.1469194624667 299.602164055591 60.49095642656905
    vertex 209.14691946246666 305.94699164179116 70.49095642656904
  endloop
endfacet
facet normal 1.0 -2.4509410275947988e-15 -5.9091628904295334e-15
  outer loop
    vertex 209.14691946246666 305.94699164179116 70.49095642656904
    vertex 209.1469194624667 299.602164055591 60.49095642656905
    vertex 209.14691946246657 305.94699164179116 60.49095642656905
  endloop
endfacet
facet normal 1.0 -2.4509410275947988e-15 -5.9091628904295334e-15
  outer loop
    vertex 209.14691946246694 307.9469916417911 91.75484355967679
    vertex 209.14691946246666 305.94699164179116 70.49095642656904
    vertex 209.14691946246666 307.94699164179116 70.49095642656904
  endloop
endfacet
facet normal -1.0 1.0903870399192334e-14 -3.817459390639119e-15
  outer loop
    vertex 204.35381601419292 307.9469916417911 96.85829183553676
    vertex 204.35381601419294 297.602164055591 55.49095642656913
    vertex 204.35381601419263 297.60216405559095 96.85829183553676
  endloop
endfacet
facet normal -1.0 1.0903870399192334e-14 -3.817459390639119e-15
  outer loop
    vertex 204.35381601419294 297.602164055591 55.49095642656913
    vertex 204.35381601419292 307.9469916417911 96.85829183553676
    vertex 204.35381601419292 307.9469916417911 55.490956426569035
  endloop
endfacet
facet normal 0.2182416475695943 -0.9758947603436086 0.0
  outer loop
    vertex 213.3510696220014 304.17139861907145 60.49095642656905
    vertex 212.96893014077597 304.08593986534817 55.490956426569035
    vertex 213.3510696220014 304.17139861907145 55.490956426569035
  endloop
endfacet
facet normal 0.2182416475695943 -0.9758947603436086 0.0
  outer loop
    vertex 212.96893014077597 304.08593986534817 55.490956426569035
    vertex 213.3510696220014 304.17139861907145 60.49095642656905
    vertex 212.96893014077597 304.08593986534817 60.49095642656905
  endloop
endfacet
facet normal -0.04177490623327926 -0.9991270475816381 0.0
  outer loop
    vertex 213.7423063691961 304.1550404607485 60.49095642656905
    vertex 213.3510696220014 304.17139861907145 55.490956426569035
    vertex 213.7423063691961 304.1550404607485 55.490956426569035
  endloop
endfacet
facet normal -0.04177490623327926 -0.9991270475816381 0.0
  outer loop
    vertex 213.3510696220014 304.17139861907145 55.490956426569035
    vertex 213.7423063691961 304.1550404607485 60.49095642656905
    vertex 213.3510696220014 304.17139861907145 60.49095642656905
  endloop
endfacet
facet normal 0.8861568579305302 0.4633853937519933 3.5118730847534364e-19
  outer loop
    vertex 212.07597233020485 302.16171889348976 55.490956426569035
    vertex 212.25742412313537 301.8147188523637 60.49095642656905
    vertex 212.25742412313537 301.8147188523637 55.490956426569035
  endloop
endfacet
facet normal 0.8861568579305302 0.4633853937519933 3.5118730847534364e-19
  outer loop
    vertex 212.25742412313537 301.8147188523637 60.49095642656905
    vertex 212.07597233020485 302.16171889348976 55.490956426569035
    vertex 212.07597233020485 302.16171889348976 60.49095642656904
  endloop
endfacet
facet normal -0.5357416538294096 -0.8443819516972926 -3.0925993585894675e-19
  outer loop
    vertex 214.44662012739101 303.8281952175719 60.49095642656905
    vertex 214.11597824458798 304.0379801718359 55.490956426569035
    vertex 214.44662012739101 303.8281952175719 55.49095642656903
  endloop
endfacet
facet normal -0.5357416538294096 -0.8443819516972926 -3.0925993585894675e-19
  outer loop
    vertex 214.11597824458798 304.0379801718359 55.490956426569035
    vertex 214.44662012739101 303.8281952175719 60.49095642656905
    vertex 214.11597824458798 304.0379801718359 60.49095642656905
  endloop
endfacet
facet normal -0.7360288300930099 -0.6769501911307176 -3.0533810690198243e-15
  outer loop
    vertex 214.44662012739101 303.8281952175719 60.49095642656905
    vertex 214.71169931970388 303.53998209590316 55.490956426569035
    vertex 214.71169931970388 303.5399820959031 60.49095642656905
  endloop
endfacet
facet normal -0.7360288300930099 -0.6769501911307176 -3.0533810690198243e-15
  outer loop
    vertex 214.71169931970388 303.53998209590316 55.490956426569035
    vertex 214.44662012739101 303.8281952175719 60.49095642656905
    vertex 214.44662012739101 303.8281952175719 55.49095642656903
  endloop
endfacet
facet normal 0.8443819516971338 -0.53574165382966 2.4178395601862958e-15
  outer loop
    vertex 212.3337169779812 303.63940888010484 55.490956426569035
    vertex 212.123932023717 303.3087669973017 60.49095642656905
    vertex 212.123932023717 303.3087669973017 55.490956426569035
  endloop
endfacet
facet normal 0.8443819516971338 -0.53574165382966 2.4178395601862958e-15
  outer loop
    vertex 212.123932023717 303.3087669973017 60.49095642656905
    vertex 212.3337169779812 303.63940888010484 55.490956426569035
    vertex 212.3337169779812 303.63940888010484 60.49095642656905
  endloop
endfacet
facet normal -0.2989445692127788 -0.9542704776624844 0.0
  outer loop
    vertex 214.11597824458798 304.0379801718359 60.49095642656905
    vertex 213.7423063691961 304.1550404607485 55.490956426569035
    vertex 214.11597824458798 304.0379801718359 55.490956426569035
  endloop
endfacet
facet normal -0.2989445692127788 -0.9542704776624844 0.0
  outer loop
    vertex 213.7423063691961 304.1550404607485 55.490956426569035
    vertex 214.11597824458798 304.0379801718359 60.49095642656905
    vertex 213.7423063691961 304.1550404607485 60.49095642656905
  endloop
endfacet
facet normal 0.2989445692127788 0.9542704776624844 2.697479077916698e-15
  outer loop
    vertex 212.85314519825124 301.3167207764309 60.49095642656905
    vertex 213.2268170736432 301.19966048751826 55.490956426569035
    vertex 212.85314519825133 301.3167207764309 55.490956426569035
  endloop
endfacet
facet normal 0.2989445692127788 0.9542704776624844 2.697479077916698e-15
  outer loop
    vertex 213.2268170736432 301.19966048751826 55.490956426569035
    vertex 212.85314519825124 301.3167207764309 60.49095642656905
    vertex 213.2268170736432 301.19966048751826 60.49095642656905
  endloop
endfacet
facet normal -0.9991270475816381 0.04177490623328166 1.885330740887588e-16
  outer loop
    vertex 214.9786098663577 302.8108425735516 60.49095642656905
    vertex 214.96225170803473 302.419605826357 55.490956426569035
    vertex 214.96225170803473 302.41960582635693 60.49095642656905
  endloop
endfacet
facet normal -0.9991270475816381 0.04177490623328166 1.885330740887588e-16
  outer loop
    vertex 214.96225170803473 302.419605826357 55.490956426569035
    vertex 214.9786098663577 302.8108425735516 60.49095642656905
    vertex 214.9786098663577 302.8108425735516 55.490956426569035
  endloop
endfacet
facet normal 0.975894760343573 0.2182416475697531 1.840265065058703e-19
  outer loop
    vertex 211.99051357648153 302.5438583747151 55.490956426569035
    vertex 212.07597233020485 302.16171889348976 60.49095642656904
    vertex 212.07597233020485 302.16171889348976 55.490956426569035
  endloop
endfacet
facet normal 0.975894760343573 0.2182416475697531 1.840265065058703e-19
  outer loop
    vertex 212.07597233020485 302.16171889348976 60.49095642656904
    vertex 211.99051357648153 302.5438583747151 55.490956426569035
    vertex 211.99051357648153 302.5438583747151 60.49095642656905
  endloop
endfacet
facet normal 0.9991270475816385 -0.04177490623326964 0.0
  outer loop
    vertex 212.00687173480446 302.93509512190985 55.490956426569035
    vertex 211.99051357648153 302.5438583747151 60.49095642656905
    vertex 211.99051357648153 302.5438583747151 55.490956426569035
  endloop
endfacet
facet normal 0.9991270475816385 -0.04177490623326964 0.0
  outer loop
    vertex 211.99051357648153 302.5438583747151 60.49095642656905
    vertex 212.00687173480446 302.93509512190985 55.490956426569035
    vertex 212.00687173480446 302.93509512190985 60.49095642656905
  endloop
endfacet
facet normal 0.9542704776625398 -0.2989445692126018 0.0
  outer loop
    vertex 212.123932023717 303.3087669973017 55.490956426569035
    vertex 212.00687173480446 302.93509512190985 60.49095642656905
    vertex 212.00687173480446 302.93509512190985 55.490956426569035
  endloop
endfacet
facet normal 0.9542704776625398 -0.2989445692126018 0.0
  outer loop
    vertex 212.00687173480446 302.93509512190985 60.49095642656905
    vertex 212.123932023717 303.3087669973017 55.490956426569035
    vertex 212.123932023717 303.3087669973017 60.49095642656905
  endloop
endfacet
facet normal -0.2182416475695943 0.9758947603436086 0.0
  outer loop
    vertex 213.6180538208379 301.18330232919527 60.49095642656905
    vertex 214.00019330206334 301.26876108291856 55.490956426569035
    vertex 213.6180538208379 301.18330232919527 55.490956426569035
  endloop
endfacet
facet normal -0.2182416475695943 0.9758947603436086 0.0
  outer loop
    vertex 214.00019330206334 301.26876108291856 55.490956426569035
    vertex 213.6180538208379 301.18330232919527 60.49095642656905
    vertex 214.00019330206334 301.26876108291856 60.49095642656905
  endloop
endfacet
facet normal 1.0 1.4390563657171885e-14 6.591559569056709e-43
  outer loop
    vertex 218.1469194624666 307.9469916417912 55.490956426569035
    vertex 218.14691946246674 297.6021640555911 60.49095642656905
    vertex 218.14691946246674 297.6021640555911 55.490956426569035
  endloop
endfacet
facet normal 1.0 1.4390563657171885e-14 6.591559569056709e-43
  outer loop
    vertex 218.14691946246674 297.6021640555911 60.49095642656905
    vertex 218.1469194624666 307.9469916417912 55.490956426569035
    vertex 218.14691946246674 299.6021640555911 60.49095642656905
  endloop
endfacet
facet normal 1.0 1.4390563657171885e-14 6.591559569056709e-43
  outer loop
    vertex 218.14691946246674 299.6021640555911 60.49095642656905
    vertex 218.1469194624666 307.9469916417912 55.490956426569035
    vertex 218.1469194624666 305.9469916417912 60.49095642656905
  endloop
endfacet
facet normal 1.0 1.4390563657171885e-14 6.591559569056709e-43
  outer loop
    vertex 218.1469194624666 305.9469916417912 60.49095642656905
    vertex 218.1469194624666 307.9469916417912 55.490956426569035
    vertex 218.1469194624666 307.9469916417912 60.49095642656905
  endloop
endfacet
facet normal -0.4633853937521786 0.8861568579304336 0.0
  outer loop
    vertex 214.00019330206334 301.26876108291856 60.49095642656905
    vertex 214.34719334318933 301.4502128758491 55.490956426569035
    vertex 214.00019330206334 301.26876108291856 55.490956426569035
  endloop
endfacet
facet normal -0.4633853937521786 0.8861568579304336 0.0
  outer loop
    vertex 214.34719334318933 301.4502128758491 55.490956426569035
    vertex 214.00019330206334 301.26876108291856 60.49095642656905
    vertex 214.34719334318933 301.4502128758491 60.49095642656905
  endloop
endfacet
facet normal -0.954270477662507 0.29894456921270673 1.2339650016972812e-19
  outer loop
    vertex 214.84519141912216 302.0459339509651 60.49095642656905
    vertex 214.96225170803473 302.419605826357 55.490956426569035
    vertex 214.84519141912216 302.04593395096504 55.49095642656906
  endloop
endfacet
facet normal -0.954270477662507 0.29894456921270673 1.2339650016972812e-19
  outer loop
    vertex 214.96225170803473 302.419605826357 55.490956426569035
    vertex 214.84519141912216 302.0459339509651 60.49095642656905
    vertex 214.96225170803473 302.41960582635693 60.49095642656905
  endloop
endfacet
facet normal -0.8861568579305416 -0.46338539375197185 -6.089338880796554e-15
  outer loop
    vertex 214.71169931970388 303.5399820959031 60.49095642656905
    vertex 214.8931511126344 303.1929820547771 55.490956426569035
    vertex 214.89315111263437 303.1929820547771 60.49095642656905
  endloop
endfacet
facet normal -0.8861568579305416 -0.46338539375197185 -6.089338880796554e-15
  outer loop
    vertex 214.8931511126344 303.1929820547771 55.490956426569035
    vertex 214.71169931970388 303.5399820959031 60.49095642656905
    vertex 214.71169931970388 303.53998209590316 55.490956426569035
  endloop
endfacet
facet normal 0.4633853937519934 -0.8861568579305302 0.0
  outer loop
    vertex 212.96893014077597 304.08593986534817 60.49095642656905
    vertex 212.6219300996499 303.9044880724177 55.490956426569035
    vertex 212.96893014077597 304.08593986534817 55.490956426569035
  endloop
endfacet
facet normal 0.4633853937519934 -0.8861568579305302 0.0
  outer loop
    vertex 212.6219300996499 303.9044880724177 55.490956426569035
    vertex 212.96893014077597 304.08593986534817 60.49095642656905
    vertex 212.6219300996499 303.9044880724177 60.49095642656905
  endloop
endfacet
facet normal -0.9758947603436018 -0.21824164756962464 -4.4035986970343826e-15
  outer loop
    vertex 214.89315111263437 303.1929820547771 60.49095642656905
    vertex 214.9786098663577 302.8108425735516 55.490956426569035
    vertex 214.9786098663577 302.8108425735516 60.49095642656905
  endloop
endfacet
facet normal -0.9758947603436018 -0.21824164756962464 -4.4035986970343826e-15
  outer loop
    vertex 214.9786098663577 302.8108425735516 55.490956426569035
    vertex 214.89315111263437 303.1929820547771 60.49095642656905
    vertex 214.8931511126344 303.1929820547771 55.490956426569035
  endloop
endfacet
facet normal -0.8443819516971528 0.53574165382963 -2.4154601388797848e-15
  outer loop
    vertex 214.84519141912216 302.0459339509651 60.49095642656905
    vertex 214.635406464858 301.715292068162 55.490956426569035
    vertex 214.635406464858 301.715292068162 60.49095642656905
  endloop
endfacet
facet normal -0.8443819516971528 0.53574165382963 -2.4154601388797848e-15
  outer loop
    vertex 214.635406464858 301.715292068162 55.490956426569035
    vertex 214.84519141912216 302.0459339509651 60.49095642656905
    vertex 214.84519141912216 302.04593395096504 55.49095642656906
  endloop
endfacet
facet normal -0.6769501911308662 0.7360288300928733 0.0
  outer loop
    vertex 214.34719334318933 301.4502128758491 60.49095642656905
    vertex 214.635406464858 301.715292068162 55.490956426569035
    vertex 214.34719334318933 301.4502128758491 55.490956426569035
  endloop
endfacet
facet normal -0.6769501911308662 0.7360288300928733 0.0
  outer loop
    vertex 214.635406464858 301.715292068162 55.490956426569035
    vertex 214.34719334318933 301.4502128758491 60.49095642656905
    vertex 214.635406464858 301.715292068162 60.49095642656905
  endloop
endfacet
facet normal 0.6769501911307725 -0.7360288300929594 3.321749597245655e-15
  outer loop
    vertex 212.6219300996499 303.9044880724177 60.49095642656905
    vertex 212.3337169779812 303.63940888010484 55.490956426569035
    vertex 212.6219300996499 303.9044880724177 55.490956426569035
  endloop
endfacet
facet normal 0.6769501911307725 -0.7360288300929594 3.321749597245655e-15
  outer loop
    vertex 212.3337169779812 303.63940888010484 55.490956426569035
    vertex 212.6219300996499 303.9044880724177 60.49095642656905
    vertex 212.3337169779812 303.63940888010484 60.49095642656905
  endloop
endfacet
facet normal 0.7360288300929928 0.6769501911307363 0.0
  outer loop
    vertex 212.25742412313537 301.8147188523637 55.490956426569035
    vertex 212.52250331544815 301.526505730695 60.49095642656905
    vertex 212.52250331544815 301.526505730695 55.490956426569035
  endloop
endfacet
facet normal 0.7360288300929928 0.6769501911307363 0.0
  outer loop
    vertex 212.52250331544815 301.526505730695 60.49095642656905
    vertex 212.25742412313537 301.8147188523637 55.490956426569035
    vertex 212.25742412313537 301.8147188523637 60.49095642656905
  endloop
endfacet
facet normal 0.5357416538295519 0.8443819516972024 4.834180149782535e-15
  outer loop
    vertex 212.52250331544815 301.526505730695 60.49095642656905
    vertex 212.85314519825133 301.3167207764309 55.490956426569035
    vertex 212.52250331544815 301.526505730695 55.490956426569035
  endloop
endfacet
facet normal 0.5357416538295519 0.8443819516972024 4.834180149782535e-15
  outer loop
    vertex 212.85314519825133 301.3167207764309 55.490956426569035
    vertex 212.52250331544815 301.526505730695 60.49095642656905
    vertex 212.85314519825124 301.3167207764309 60.49095642656905
  endloop
endfacet
facet normal 0.041774906233389475 0.9991270475816334 0.0
  outer loop
    vertex 213.2268170736432 301.19966048751826 60.49095642656905
    vertex 213.6180538208379 301.18330232919527 55.490956426569035
    vertex 213.2268170736432 301.19966048751826 55.490956426569035
  endloop
endfacet
facet normal 0.041774906233389475 0.9991270475816334 0.0
  outer loop
    vertex 213.6180538208379 301.18330232919527 55.490956426569035
    vertex 213.2268170736432 301.19966048751826 60.49095642656905
    vertex 213.6180538208379 301.18330232919527 60.49095642656905
  endloop
endfacet
endsolid oficina
