solid oficina
facet normal -1.2545520178264269e-14 1.0 4.08595989298785e-33
  outer loop
    vertex 224.60428425277783 355.63067667521034 -98.97322833795872
    vertex 229.60428425277786 355.6306766752104 -98.97322833795872
    vertex 224.60428425277783 355.63067667521034 -103.97322833795872
  endloop
endfacet
facet normal -1.2545520178264269e-14 1.0 4.08595989298785e-33
  outer loop
    vertex 229.60428425277786 355.6306766752104 -103.9732283379587
    vertex 224.60428425277783 355.63067667521034 -103.97322833795872
    vertex 229.60428425277786 355.6306766752104 -98.97322833795872
  endloop
endfacet
facet normal 1.2545520178264269e-14 -1.0 -4.08595989298785e-33
  outer loop
    vertex 229.604284252778 345.6306766752104 -98.97322833795872
    vertex 224.60428425277797 345.63067667521034 -98.97322833795872
    vertex 229.604284252778 345.6306766752104 -103.9732283379587
  endloop
endfacet
facet normal 1.2545520178264269e-14 -1.0 -4.08595989298785e-33
  outer loop
    vertex 224.60428425277797 345.63067667521034 -103.97322833795872
    vertex 229.604284252778 345.6306766752104 -103.9732283379587
    vertex 224.60428425277797 345.63067667521034 -98.97322833795872
  endloop
endfacet
facet normal 1.0 1.2545520178264269e-14 2.3348698237725085e-16
  outer loop
    vertex 229.60428425277786 355.6306766752104 -103.9732283379587
    vertex 229.60428425277786 355.6306766752104 -98.97322833795872
    vertex 229.604284252778 345.6306766752104 -103.9732283379587
  endloop
endfacet
facet normal 1.0 1.2545520178264269e-14 2.3348698237725085e-16
  outer loop
    vertex 229.604284252778 345.6306766752104 -98.97322833795872
    vertex 229.604284252778 345.6306766752104 -103.9732283379587
    vertex 229.60428425277786 355.6306766752104 -98.97322833795872
  endloop
endfacet
facet normal -1.0 -1.2545520178264269e-14 -2.3348698237725085e-16
  outer loop
    vertex 224.60428425277783 355.63067667521034 -98.97322833795872
    vertex 224.60428425277783 355.63067667521034 -103.97322833795872
    vertex 224.60428425277797 345.63067667521034 -98.97322833795872
  endloop
endfacet
facet normal -1.0 -1.2545520178264269e-14 -2.3348698237725085e-16
  outer loop
    vertex 224.60428425277797 345.63067667521034 -103.97322833795872
    vertex 224.60428425277797 345.63067667521034 -98.97322833795872
    vertex 224.60428425277783 355.63067667521034 -103.97322833795872
  endloop
endfacet
facet normal 0.2182416475695943 -0.9758947603436086 5.095658372006119e-17
  outer loop
    vertex 226.80843441231266 352.1999112386908 -98.97322833795872
    vertex 226.42629493108723 352.11445248496756 -98.97322833795872
    vertex 226.80843441231266 352.1999112386908 -103.97322833795872
  endloop
endfacet
facet normal 0.2182416475695943 -0.9758947603436086 5.095658372006119e-17
  outer loop
    vertex 226.42629493108723 352.11445248496756 -103.97322833795872
    vertex 226.80843441231266 352.1999112386908 -103.97322833795872
    vertex 226.42629493108723 352.11445248496756 -98.97322833795872
  endloop
endfacet
facet normal -0.29894456921277507 -0.9542704776624857 -7.439603279374922e-16
  outer loop
    vertex 227.57334303489924 352.06649279145523 -98.97322833795872
    vertex 227.19967115950735 352.18355308036786 -98.97322833795872
    vertex 227.57334303489924 352.06649279145523 -103.97322833795872
  endloop
endfacet
facet normal -0.29894456921277507 -0.9542704776624857 -7.439603279374922e-16
  outer loop
    vertex 227.19967115950735 352.18355308036786 -103.97322833795872
    vertex 227.57334303489924 352.06649279145523 -103.97322833795872
    vertex 227.19967115950735 352.18355308036786 -98.97322833795872
  endloop
endfacet
facet normal 0.9991270475816364 -0.04177490623331702 2.332831593513281e-16
  outer loop
    vertex 225.46423652511578 350.9636077415292 -103.97322833795872
    vertex 225.46423652511578 350.9636077415292 -98.97322833795872
    vertex 225.44787836679285 350.5723709943344 -103.97322833795872
  endloop
endfacet
facet normal 0.9991270475816364 -0.04177490623331702 2.332831593513281e-16
  outer loop
    vertex 225.44787836679285 350.5723709943344 -98.97322833795872
    vertex 225.44787836679285 350.5723709943344 -103.97322833795872
    vertex 225.46423652511578 350.9636077415292 -98.97322833795872
  endloop
endfacet
facet normal -0.041774906233266726 -0.9991270475816386 -9.753896795500985e-18
  outer loop
    vertex 227.19967115950735 352.18355308036786 -98.97322833795872
    vertex 226.80843441231266 352.1999112386908 -98.97322833795872
    vertex 227.19967115950735 352.18355308036786 -103.97322833795872
  endloop
endfacet
facet normal -0.041774906233266726 -0.9991270475816386 -9.753896795500985e-18
  outer loop
    vertex 226.80843441231266 352.1999112386908 -103.97322833795872
    vertex 227.19967115950735 352.18355308036786 -103.97322833795872
    vertex 226.80843441231266 352.1999112386908 -98.97322833795872
  endloop
endfacet
facet normal 0.29894456921273077 0.9542704776624995 6.979966536355051e-17
  outer loop
    vertex 226.31050998856253 349.3452333960502 -98.97322833795872
    vertex 226.68418186395445 349.2281731071376 -98.97322833795872
    vertex 226.3105099885626 349.3452333960502 -103.97322833795872
  endloop
endfacet
facet normal 0.29894456921273077 0.9542704776624995 6.979966536355051e-17
  outer loop
    vertex 226.68418186395445 349.2281731071376 -103.97322833795872
    vertex 226.3105099885626 349.3452333960502 -103.97322833795872
    vertex 226.68418186395445 349.2281731071376 -98.97322833795872
  endloop
endfacet
facet normal 0.041774906233379344 0.999127047581634 9.75389679552728e-18
  outer loop
    vertex 226.68418186395445 349.2281731071376 -98.97322833795872
    vertex 227.07541861114916 349.2118149488146 -98.97322833795872
    vertex 226.68418186395445 349.2281731071376 -103.97322833795872
  endloop
endfacet
facet normal 0.041774906233379344 0.999127047581634 9.75389679552728e-18
  outer loop
    vertex 227.07541861114916 349.2118149488146 -103.97322833795872
    vertex 226.68418186395445 349.2281731071376 -103.97322833795872
    vertex 227.07541861114916 349.2118149488146 -98.97322833795872
  endloop
endfacet
facet normal -0.21824164756960657 0.9758947603436058 -5.095658372006406e-17
  outer loop
    vertex 227.07541861114916 349.2118149488146 -98.97322833795872
    vertex 227.4575580923746 349.2972737025379 -98.97322833795872
    vertex 227.07541861114916 349.2118149488146 -103.97322833795872
  endloop
endfacet
facet normal -0.21824164756960657 0.9758947603436058 -5.095658372006406e-17
  outer loop
    vertex 227.4575580923746 349.2972737025379 -103.97322833795872
    vertex 227.07541861114916 349.2118149488146 -103.97322833795872
    vertex 227.4575580923746 349.2972737025379 -98.97322833795872
  endloop
endfacet
facet normal -0.8443819516971678 0.5357416538296065 -1.4041327780209088e-15
  outer loop
    vertex 228.30255620943342 350.0744465705844 -98.97322833795872
    vertex 228.30255620943342 350.07444657058437 -103.9732283379587
    vertex 228.09277125516925 349.74380468778133 -98.97322833795872
  endloop
endfacet
facet normal -0.8443819516971678 0.5357416538296065 -1.4041327780209088e-15
  outer loop
    vertex 228.09277125516925 349.74380468778133 -103.97322833795872
    vertex 228.09277125516925 349.74380468778133 -98.97322833795872
    vertex 228.30255620943342 350.07444657058437 -103.9732283379587
  endloop
endfacet
facet normal -0.9991270475816362 0.041774906233325436 -1.3907506405328397e-16
  outer loop
    vertex 228.43597465666898 350.8393551931709 -98.97322833795872
    vertex 228.43597465666898 350.8393551931709 -103.9732283379587
    vertex 228.41961649834604 350.4481184459762 -98.97322833795872
  endloop
endfacet
facet normal -0.9991270475816362 0.041774906233325436 -1.3907506405328397e-16
  outer loop
    vertex 228.41961649834604 350.44811844597626 -103.9732283379587
    vertex 228.41961649834604 350.4481184459762 -98.97322833795872
    vertex 228.43597465666898 350.8393551931709 -103.9732283379587
  endloop
endfacet
facet normal -0.6769501911308692 0.7360288300928706 3.030460173842701e-15
  outer loop
    vertex 227.80455813350062 349.47872549546844 -98.97322833795872
    vertex 228.09277125516925 349.74380468778133 -98.97322833795872
    vertex 227.80455813350062 349.47872549546844 -103.97322833795872
  endloop
endfacet
facet normal -0.6769501911308692 0.7360288300928706 3.030460173842701e-15
  outer loop
    vertex 228.09277125516925 349.74380468778133 -103.97322833795872
    vertex 227.80455813350062 349.47872549546844 -103.97322833795872
    vertex 228.09277125516925 349.74380468778133 -98.97322833795872
  endloop
endfacet
facet normal 0.9758947603435976 0.21824164756964332 2.2797075262181486e-16
  outer loop
    vertex 225.44787836679285 350.5723709943344 -103.97322833795872
    vertex 225.44787836679285 350.5723709943344 -98.97322833795872
    vertex 225.5333371205161 350.19023151310904 -103.97322833795872
  endloop
endfacet
facet normal 0.9758947603435976 0.21824164756964332 2.2797075262181486e-16
  outer loop
    vertex 225.5333371205161 350.19023151310904 -98.97322833795872
    vertex 225.5333371205161 350.19023151310904 -103.97322833795872
    vertex 225.44787836679285 350.5723709943344 -98.97322833795872
  endloop
endfacet
facet normal -0.975894760343616 -0.21824164756956071 -1.9372241585131325e-15
  outer loop
    vertex 228.35051590294572 351.22149467439635 -98.97322833795872
    vertex 228.35051590294572 351.22149467439635 -103.9732283379587
    vertex 228.43597465666898 350.8393551931709 -98.97322833795872
  endloop
endfacet
facet normal -0.975894760343616 -0.21824164756956071 -1.9372241585131325e-15
  outer loop
    vertex 228.43597465666898 350.8393551931709 -103.9732283379587
    vertex 228.43597465666898 350.8393551931709 -98.97322833795872
    vertex 228.35051590294572 351.22149467439635 -103.9732283379587
  endloop
endfacet
facet normal 0.9542704776625158 -0.2989445692126783 2.228097342011177e-16
  outer loop
    vertex 225.58129681402838 351.337279616921 -103.97322833795872
    vertex 225.58129681402838 351.337279616921 -98.97322833795872
    vertex 225.46423652511578 350.9636077415292 -103.97322833795872
  endloop
endfacet
facet normal 0.9542704776625158 -0.2989445692126783 2.228097342011177e-16
  outer loop
    vertex 225.46423652511578 350.9636077415292 -98.97322833795872
    vertex 225.46423652511578 350.9636077415292 -103.97322833795872
    vertex 225.58129681402838 351.337279616921 -98.97322833795872
  endloop
endfacet
facet normal -0.7360288300928827 -0.676950191130856 -1.700361965421303e-15
  outer loop
    vertex 227.90398491770233 351.8567078371911 -98.97322833795872
    vertex 227.90398491770233 351.8567078371911 -103.97322833795872
    vertex 228.1690641100152 351.56849471552243 -98.97322833795872
  endloop
endfacet
facet normal -0.7360288300928827 -0.676950191130856 -1.700361965421303e-15
  outer loop
    vertex 228.1690641100152 351.56849471552243 -103.97322833795872
    vertex 228.1690641100152 351.56849471552243 -98.97322833795872
    vertex 227.90398491770233 351.8567078371911 -103.97322833795872
  endloop
endfacet
facet normal -0.8861568579305302 -0.4633853937519937 -3.2506586047258985e-15
  outer loop
    vertex 228.1690641100152 351.56849471552243 -103.97322833795872
    vertex 228.35051590294572 351.22149467439635 -103.9732283379587
    vertex 228.1690641100152 351.56849471552243 -98.97322833795872
  endloop
endfacet
facet normal -0.8861568579305302 -0.4633853937519937 -3.2506586047258985e-15
  outer loop
    vertex 228.35051590294572 351.22149467439635 -98.97322833795872
    vertex 228.1690641100152 351.56849471552243 -98.97322833795872
    vertex 228.35051590294572 351.22149467439635 -103.9732283379587
  endloop
endfacet
facet normal 0.6769501911308548 -0.7360288300928839 1.8179041753752176e-15
  outer loop
    vertex 226.07929488996115 351.933000692037 -98.97322833795872
    vertex 225.7910817682925 351.6679214997242 -98.97322833795872
    vertex 226.07929488996115 351.933000692037 -103.97322833795872
  endloop
endfacet
facet normal 0.6769501911308548 -0.7360288300928839 1.8179041753752176e-15
  outer loop
    vertex 225.7910817682925 351.6679214997241 -103.97322833795872
    vertex 226.07929488996115 351.933000692037 -103.97322833795872
    vertex 225.7910817682925 351.6679214997242 -98.97322833795872
  endloop
endfacet
facet normal 0.7360288300928982 0.6769501911308392 1.7185315048105105e-16
  outer loop
    vertex 225.71478891344663 349.84323147198296 -103.97322833795872
    vertex 225.71478891344663 349.84323147198296 -98.97322833795872
    vertex 225.97986810575944 349.55501835031436 -103.97322833795872
  endloop
endfacet
facet normal 0.7360288300928982 0.6769501911308392 1.7185315048105105e-16
  outer loop
    vertex 225.97986810575944 349.55501835031436 -98.97322833795872
    vertex 225.97986810575944 349.55501835031436 -103.97322833795872
    vertex 225.71478891344663 349.84323147198296 -98.97322833795872
  endloop
endfacet
facet normal -0.46338539375203885 0.8861568579305065 2.936503391922276e-15
  outer loop
    vertex 227.4575580923746 349.2972737025379 -98.97322833795872
    vertex 227.80455813350062 349.47872549546844 -98.97322833795872
    vertex 227.4575580923746 349.2972737025379 -103.97322833795872
  endloop
endfacet
facet normal -0.46338539375203885 0.8861568579305065 2.936503391922276e-15
  outer loop
    vertex 227.80455813350062 349.47872549546844 -103.97322833795872
    vertex 227.4575580923746 349.2972737025379 -103.97322833795872
    vertex 227.80455813350062 349.47872549546844 -98.97322833795872
  endloop
endfacet
facet normal 0.5357416538295935 0.844381951697176 1.2508870208647198e-16
  outer loop
    vertex 225.97986810575944 349.55501835031436 -98.97322833795872
    vertex 226.31050998856253 349.3452333960502 -98.97322833795872
    vertex 225.97986810575944 349.55501835031436 -103.97322833795872
  endloop
endfacet
facet normal 0.5357416538295935 0.844381951697176 1.2508870208647198e-16
  outer loop
    vertex 226.3105099885626 349.3452333960502 -103.97322833795872
    vertex 225.97986810575944 349.55501835031436 -103.97322833795872
    vertex 226.31050998856253 349.3452333960502 -98.97322833795872
  endloop
endfacet
facet normal -0.5357416538296009 -0.8443819516971712 5.691289167803895e-16
  outer loop
    vertex 227.90398491770233 351.8567078371911 -98.97322833795872
    vertex 227.57334303489924 352.06649279145523 -98.97322833795872
    vertex 227.90398491770233 351.8567078371911 -103.97322833795872
  endloop
endfacet
facet normal -0.5357416538296009 -0.8443819516971712 5.691289167803895e-16
  outer loop
    vertex 227.57334303489924 352.06649279145523 -103.97322833795872
    vertex 227.90398491770233 351.8567078371911 -103.97322833795872
    vertex 227.57334303489924 352.06649279145523 -98.97322833795872
  endloop
endfacet
facet normal 0.46338539375202814 -0.8861568579305124 1.0819445726485264e-16
  outer loop
    vertex 226.42629493108723 352.11445248496756 -98.97322833795872
    vertex 226.07929488996115 351.933000692037 -98.97322833795872
    vertex 226.42629493108723 352.11445248496756 -103.97322833795872
  endloop
endfacet
facet normal 0.46338539375202814 -0.8861568579305124 1.0819445726485264e-16
  outer loop
    vertex 226.07929488996115 351.933000692037 -103.97322833795872
    vertex 226.42629493108723 352.11445248496756 -103.97322833795872
    vertex 226.07929488996115 351.933000692037 -98.97322833795872
  endloop
endfacet
facet normal 0.8861568579305124 0.46338539375202814 2.072572779795896e-16
  outer loop
    vertex 225.5333371205161 350.19023151310904 -103.97322833795872
    vertex 225.5333371205161 350.19023151310904 -98.97322833795872
    vertex 225.71478891344663 349.84323147198296 -103.97322833795872
  endloop
endfacet
facet normal 0.8861568579305124 0.46338539375202814 2.072572779795896e-16
  outer loop
    vertex 225.71478891344663 349.84323147198296 -98.97322833795872
    vertex 225.71478891344663 349.84323147198296 -103.97322833795872
    vertex 225.5333371205161 350.19023151310904 -98.97322833795872
  endloop
endfacet
facet normal -0.9542704776624779 0.29894456921279966 -2.2157785992485595e-16
  outer loop
    vertex 228.41961649834604 350.44811844597626 -103.9732283379587
    vertex 228.30255620943342 350.07444657058437 -103.9732283379587
    vertex 228.41961649834604 350.4481184459762 -98.97322833795872
  endloop
endfacet
facet normal -0.9542704776624779 0.29894456921279966 -2.2157785992485595e-16
  outer loop
    vertex 228.30255620943342 350.0744465705844 -98.97322833795872
    vertex 228.41961649834604 350.4481184459762 -98.97322833795872
    vertex 228.30255620943342 350.07444657058437 -103.9732283379587
  endloop
endfacet
facet normal 0.8443819516971582 -0.5357416538296215 1.4053224886741312e-15
  outer loop
    vertex 225.7910817682925 351.6679214997242 -98.97322833795872
    vertex 225.58129681402838 351.337279616921 -98.97322833795872
    vertex 225.7910817682925 351.6679214997241 -103.97322833795872
  endloop
endfacet
facet normal 0.8443819516971582 -0.5357416538296215 1.4053224886741312e-15
  outer loop
    vertex 225.58129681402838 351.337279616921 -103.97322833795872
    vertex 225.7910817682925 351.6679214997241 -103.97322833795872
    vertex 225.58129681402838 351.337279616921 -98.97322833795872
  endloop
endfacet
facet normal 1.5781444975402605e-16 -2.0511162005745796e-16 -1.0
  outer loop
    vertex 229.604284252778 345.6306766752104 -103.9732283379587
    vertex 228.35051590294572 351.22149467439635 -103.9732283379587
    vertex 229.60428425277786 355.6306766752104 -103.9732283379587
  endloop
endfacet
facet normal 1.5781444975402605e-16 -2.0511162005745796e-16 -1.0
  outer loop
    vertex 228.1690641100152 351.56849471552243 -103.97322833795872
    vertex 229.60428425277786 355.6306766752104 -103.9732283379587
    vertex 228.35051590294572 351.22149467439635 -103.9732283379587
  endloop
endfacet
facet normal 1.5781444975402605e-16 -2.0511162005745796e-16 -1.0
  outer loop
    vertex 224.60428425277783 355.63067667521034 -103.97322833795872
    vertex 229.60428425277786 355.6306766752104 -103.9732283379587
    vertex 228.1690641100152 351.56849471552243 -103.97322833795872
  endloop
endfacet
facet normal 1.5781444975402605e-16 -2.0511162005745796e-16 -1.0
  outer loop
    vertex 228.43597465666898 350.8393551931709 -103.9732283379587
    vertex 228.35051590294572 351.22149467439635 -103.9732283379587
    vertex 229.604284252778 345.6306766752104 -103.9732283379587
  endloop
endfacet
facet normal 1.5781444975402605e-16 -2.0511162005745796e-16 -1.0
  outer loop
    vertex 227.90398491770233 351.8567078371911 -103.97322833795872
    vertex 224.60428425277783 355.63067667521034 -103.97322833795872
    vertex 228.1690641100152 351.56849471552243 -103.97322833795872
  endloop
endfacet
facet normal 1.5781444975402605e-16 -2.0511162005745796e-16 -1.0
  outer loop
    vertex 227.57334303489924 352.06649279145523 -103.97322833795872
    vertex 224.60428425277783 355.63067667521034 -103.97322833795872
    vertex 227.90398491770233 351.8567078371911 -103.97322833795872
  endloop
endfacet
facet normal 1.5781444975402605e-16 -2.0511162005745796e-16 -1.0
  outer loop
    vertex 227.19967115950735 352.18355308036786 -103.97322833795872
    vertex 224.60428425277783 355.63067667521034 -103.97322833795872
    vertex 227.57334303489924 352.06649279145523 -103.97322833795872
  endloop
endfacet
facet normal 1.5781444975402605e-16 -2.0511162005745796e-16 -1.0
  outer loop
    vertex 226.80843441231266 352.1999112386908 -103.97322833795872
    vertex 224.60428425277783 355.63067667521034 -103.97322833795872
    vertex 227.19967115950735 352.18355308036786 -103.97322833795872
  endloop
endfacet
facet normal 1.5781444975402605e-16 -2.0511162005745796e-16 -1.0
  outer loop
    vertex 226.42629493108723 352.11445248496756 -103.97322833795872
    vertex 224.60428425277783 355.63067667521034 -103.97322833795872
    vertex 226.80843441231266 352.1999112386908 -103.97322833795872
  endloop
endfacet
facet normal 1.5781444975402605e-16 -2.0511162005745796e-16 -1.0
  outer loop
    vertex 226.07929488996115 351.933000692037 -103.97322833795872
    vertex 224.60428425277783 355.63067667521034 -103.97322833795872
    vertex 226.42629493108723 352.11445248496756 -103.97322833795872
  endloop
endfacet
facet normal 1.5781444975402605e-16 -2.0511162005745796e-16 -1.0
  outer loop
    vertex 225.7910817682925 351.6679214997241 -103.97322833795872
    vertex 224.60428425277783 355.63067667521034 -103.97322833795872
    vertex 226.07929488996115 351.933000692037 -103.97322833795872
  endloop
endfacet
facet normal 1.5781444975402605e-16 -2.0511162005745796e-16 -1.0
  outer loop
    vertex 225.58129681402838 351.337279616921 -103.97322833795872
    vertex 224.60428425277783 355.63067667521034 -103.97322833795872
    vertex 225.7910817682925 351.6679214997241 -103.97322833795872
  endloop
endfacet
facet normal 1.5781444975402605e-16 -2.0511162005745796e-16 -1.0
  outer loop
    vertex 225.46423652511578 350.9636077415292 -103.97322833795872
    vertex 224.60428425277783 355.63067667521034 -103.97322833795872
    vertex 225.58129681402838 351.337279616921 -103.97322833795872
  endloop
endfacet
facet normal 1.5781444975402605e-16 -2.0511162005745796e-16 -1.0
  outer loop
    vertex 225.44787836679285 350.5723709943344 -103.97322833795872
    vertex 224.60428425277783 355.63067667521034 -103.97322833795872
    vertex 225.46423652511578 350.9636077415292 -103.97322833795872
  endloop
endfacet
facet normal 1.5781444975402605e-16 -2.0511162005745796e-16 -1.0
  outer loop
    vertex 224.60428425277797 345.63067667521034 -103.97322833795872
    vertex 228.09277125516925 349.74380468778133 -103.97322833795872
    vertex 229.604284252778 345.6306766752104 -103.9732283379587
  endloop
endfacet
facet normal 1.5781444975402605e-16 -2.0511162005745796e-16 -1.0
  outer loop
    vertex 228.30255620943342 350.07444657058437 -103.9732283379587
    vertex 229.604284252778 345.6306766752104 -103.9732283379587
    vertex 228.09277125516925 349.74380468778133 -103.97322833795872
  endloop
endfacet
facet normal 1.5781444975402605e-16 -2.0511162005745796e-16 -1.0
  outer loop
    vertex 228.41961649834604 350.44811844597626 -103.9732283379587
    vertex 229.604284252778 345.6306766752104 -103.9732283379587
    vertex 228.30255620943342 350.07444657058437 -103.9732283379587
  endloop
endfacet
facet normal 1.5781444975402605e-16 -2.0511162005745796e-16 -1.0
  outer loop
    vertex 228.43597465666898 350.8393551931709 -103.9732283379587
    vertex 229.604284252778 345.6306766752104 -103.9732283379587
    vertex 228.41961649834604 350.44811844597626 -103.9732283379587
  endloop
endfacet
facet normal 1.5781444975402605e-16 -2.0511162005745796e-16 -1.0
  outer loop
    vertex 227.80455813350062 349.47872549546844 -103.97322833795872
    vertex 228.09277125516925 349.74380468778133 -103.97322833795872
    vertex 224.60428425277797 345.63067667521034 -103.97322833795872
  endloop
endfacet
facet normal 1.5781444975402605e-16 -2.0511162005745796e-16 -1.0
  outer loop
    vertex 227.4575580923746 349.2972737025379 -103.97322833795872
    vertex 227.80455813350062 349.47872549546844 -103.97322833795872
    vertex 224.60428425277797 345.63067667521034 -103.97322833795872
  endloop
endfacet
facet normal 1.5781444975402605e-16 -2.0511162005745796e-16 -1.0
  outer loop
    vertex 227.07541861114916 349.2118149488146 -103.97322833795872
    vertex 227.4575580923746 349.2972737025379 -103.97322833795872
    vertex 224.60428425277797 345.63067667521034 -103.97322833795872
  endloop
endfacet
facet normal 1.5781444975402605e-16 -2.0511162005745796e-16 -1.0
  outer loop
    vertex 226.68418186395445 349.2281731071376 -103.97322833795872
    vertex 227.07541861114916 349.2118149488146 -103.97322833795872
    vertex 224.60428425277797 345.63067667521034 -103.97322833795872
  endloop
endfacet
facet normal 1.5781444975402605e-16 -2.0511162005745796e-16 -1.0
  outer loop
    vertex 226.3105099885626 349.3452333960502 -103.97322833795872
    vertex 226.68418186395445 349.2281731071376 -103.97322833795872
    vertex 224.60428425277797 345.63067667521034 -103.97322833795872
  endloop
endfacet
facet normal 1.5781444975402605e-16 -2.0511162005745796e-16 -1.0
  outer loop
    vertex 225.97986810575944 349.55501835031436 -103.97322833795872
    vertex 226.3105099885626 349.3452333960502 -103.97322833795872
    vertex 224.60428425277797 345.63067667521034 -103.97322833795872
  endloop
endfacet
facet normal 1.5781444975402605e-16 -2.0511162005745796e-16 -1.0
  outer loop
    vertex 225.71478891344663 349.84323147198296 -103.97322833795872
    vertex 225.97986810575944 349.55501835031436 -103.97322833795872
    vertex 224.60428425277797 345.63067667521034 -103.97322833795872
  endloop
endfacet
facet normal 1.5781444975402605e-16 -2.0511162005745796e-16 -1.0
  outer loop
    vertex 225.5333371205161 350.19023151310904 -103.97322833795872
    vertex 225.71478891344663 349.84323147198296 -103.97322833795872
    vertex 224.60428425277797 345.63067667521034 -103.97322833795872
  endloop
endfacet
facet normal 1.5781444975402605e-16 -2.0511162005745796e-16 -1.0
  outer loop
    vertex 225.44787836679285 350.5723709943344 -103.97322833795872
    vertex 225.5333371205161 350.19023151310904 -103.97322833795872
    vertex 224.60428425277797 345.63067667521034 -103.97322833795872
  endloop
endfacet
facet normal 1.5781444975402605e-16 -2.0511162005745796e-16 -1.0
  outer loop
    vertex 224.60428425277783 355.63067667521034 -103.97322833795872
    vertex 225.44787836679285 350.5723709943344 -103.97322833795872
    vertex 224.60428425277797 345.63067667521034 -103.97322833795872
  endloop
endfacet
facet normal -2.5087325754143726e-16 -4.127451006529693e-17 1.0
  outer loop
    vertex 229.60428425277786 355.6306766752104 -98.97322833795872
    vertex 228.41961649834604 350.4481184459762 -98.97322833795872
    vertex 229.604284252778 345.6306766752104 -98.97322833795872
  endloop
endfacet
facet normal -2.5087325754143726e-16 -4.127451006529693e-17 1.0
  outer loop
    vertex 228.30255620943342 350.0744465705844 -98.97322833795872
    vertex 229.604284252778 345.6306766752104 -98.97322833795872
    vertex 228.41961649834604 350.4481184459762 -98.97322833795872
  endloop
endfacet
facet normal -2.5087325754143726e-16 -4.127451006529693e-17 1.0
  outer loop
    vertex 228.09277125516925 349.74380468778133 -98.97322833795872
    vertex 229.604284252778 345.6306766752104 -98.97322833795872
    vertex 228.30255620943342 350.0744465705844 -98.97322833795872
  endloop
endfacet
facet normal -2.5087325754143726e-16 -4.127451006529693e-17 1.0
  outer loop
    vertex 224.60428425277797 345.63067667521034 -98.97322833795872
    vertex 229.604284252778 345.6306766752104 -98.97322833795872
    vertex 228.09277125516925 349.74380468778133 -98.97322833795872
  endloop
endfacet
facet normal -2.5087325754143726e-16 -4.127451006529693e-17 1.0
  outer loop
    vertex 228.43597465666898 350.8393551931709 -98.97322833795872
    vertex 228.41961649834604 350.4481184459762 -98.97322833795872
    vertex 229.60428425277786 355.6306766752104 -98.97322833795872
  endloop
endfacet
facet normal -2.5087325754143726e-16 -4.127451006529693e-17 1.0
  outer loop
    vertex 227.80455813350062 349.47872549546844 -98.97322833795872
    vertex 224.60428425277797 345.63067667521034 -98.97322833795872
    vertex 228.09277125516925 349.74380468778133 -98.97322833795872
  endloop
endfacet
facet normal -2.5087325754143726e-16 -4.127451006529693e-17 1.0
  outer loop
    vertex 227.4575580923746 349.2972737025379 -98.97322833795872
    vertex 224.60428425277797 345.63067667521034 -98.97322833795872
    vertex 227.80455813350062 349.47872549546844 -98.97322833795872
  endloop
endfacet
facet normal -2.5087325754143726e-16 -4.127451006529693e-17 1.0
  outer loop
    vertex 227.07541861114916 349.2118149488146 -98.97322833795872
    vertex 224.60428425277797 345.63067667521034 -98.97322833795872
    vertex 227.4575580923746 349.2972737025379 -98.97322833795872
  endloop
endfacet
facet normal -2.5087325754143726e-16 -4.127451006529693e-17 1.0
  outer loop
    vertex 226.68418186395445 349.2281731071376 -98.97322833795872
    vertex 224.60428425277797 345.63067667521034 -98.97322833795872
    vertex 227.07541861114916 349.2118149488146 -98.97322833795872
  endloop
endfacet
facet normal -2.5087325754143726e-16 -4.127451006529693e-17 1.0
  outer loop
    vertex 226.31050998856253 349.3452333960502 -98.97322833795872
    vertex 224.60428425277797 345.63067667521034 -98.97322833795872
    vertex 226.68418186395445 349.2281731071376 -98.97322833795872
  endloop
endfacet
facet normal -2.5087325754143726e-16 -4.127451006529693e-17 1.0
  outer loop
    vertex 225.97986810575944 349.55501835031436 -98.97322833795872
    vertex 224.60428425277797 345.63067667521034 -98.97322833795872
    vertex 226.31050998856253 349.3452333960502 -98.97322833795872
  endloop
endfacet
facet normal -2.5087325754143726e-16 -4.127451006529693e-17 1.0
  outer loop
    vertex 225.71478891344663 349.84323147198296 -98.97322833795872
    vertex 224.60428425277797 345.63067667521034 -98.97322833795872
    vertex 225.97986810575944 349.55501835031436 -98.97322833795872
  endloop
endfacet
facet normal -2.5087325754143726e-16 -4.127451006529693e-17 1.0
  outer loop
    vertex 225.5333371205161 350.19023151310904 -98.97322833795872
    vertex 224.60428425277797 345.63067667521034 -98.97322833795872
    vertex 225.71478891344663 349.84323147198296 -98.97322833795872
  endloop
endfacet
facet normal -2.5087325754143726e-16 -4.127451006529693e-17 1.0
  outer loop
    vertex 225.44787836679285 350.5723709943344 -98.97322833795872
    vertex 224.60428425277797 345.63067667521034 -98.97322833795872
    vertex 225.5333371205161 350.19023151310904 -98.97322833795872
  endloop
endfacet
facet normal -2.5087325754143726e-16 -4.127451006529693e-17 1.0
  outer loop
    vertex 224.60428425277783 355.63067667521034 -98.97322833795872
    vertex 228.1690641100152 351.56849471552243 -98.97322833795872
    vertex 229.60428425277786 355.6306766752104 -98.97322833795872
  endloop
endfacet
facet normal -2.5087325754143726e-16 -4.127451006529693e-17 1.0
  outer loop
    vertex 228.35051590294572 351.22149467439635 -98.97322833795872
    vertex 229.60428425277786 355.6306766752104 -98.97322833795872
    vertex 228.1690641100152 351.56849471552243 -98.97322833795872
  endloop
endfacet
facet normal -2.5087325754143726e-16 -4.127451006529693e-17 1.0
  outer loop
    vertex 228.43597465666898 350.8393551931709 -98.97322833795872
    vertex 229.60428425277786 355.6306766752104 -98.97322833795872
    vertex 228.35051590294572 351.22149467439635 -98.97322833795872
  endloop
endfacet
facet normal -2.5087325754143726e-16 -4.127451006529693e-17 1.0
  outer loop
    vertex 227.90398491770233 351.8567078371911 -98.97322833795872
    vertex 228.1690641100152 351.56849471552243 -98.97322833795872
    vertex 224.60428425277783 355.63067667521034 -98.97322833795872
  endloop
endfacet
facet normal -2.5087325754143726e-16 -4.127451006529693e-17 1.0
  outer loop
    vertex 227.57334303489924 352.06649279145523 -98.97322833795872
    vertex 227.90398491770233 351.8567078371911 -98.97322833795872
    vertex 224.60428425277783 355.63067667521034 -98.97322833795872
  endloop
endfacet
facet normal -2.5087325754143726e-16 -4.127451006529693e-17 1.0
  outer loop
    vertex 227.19967115950735 352.18355308036786 -98.97322833795872
    vertex 227.57334303489924 352.06649279145523 -98.97322833795872
    vertex 224.60428425277783 355.63067667521034 -98.97322833795872
  endloop
endfacet
facet normal -2.5087325754143726e-16 -4.127451006529693e-17 1.0
  outer loop
    vertex 226.80843441231266 352.1999112386908 -98.97322833795872
    vertex 227.19967115950735 352.18355308036786 -98.97322833795872
    vertex 224.60428425277783 355.63067667521034 -98.97322833795872
  endloop
endfacet
facet normal -2.5087325754143726e-16 -4.127451006529693e-17 1.0
  outer loop
    vertex 226.42629493108723 352.11445248496756 -98.97322833795872
    vertex 226.80843441231266 352.1999112386908 -98.97322833795872
    vertex 224.60428425277783 355.63067667521034 -98.97322833795872
  endloop
endfacet
facet normal -2.5087325754143726e-16 -4.127451006529693e-17 1.0
  outer loop
    vertex 226.07929488996115 351.933000692037 -98.97322833795872
    vertex 226.42629493108723 352.11445248496756 -98.97322833795872
    vertex 224.60428425277783 355.63067667521034 -98.97322833795872
  endloop
endfacet
facet normal -2.5087325754143726e-16 -4.127451006529693e-17 1.0
  outer loop
    vertex 225.7910817682925 351.6679214997242 -98.97322833795872
    vertex 226.07929488996115 351.933000692037 -98.97322833795872
    vertex 224.60428425277783 355.63067667521034 -98.97322833795872
  endloop
endfacet
facet normal -2.5087325754143726e-16 -4.127451006529693e-17 1.0
  outer loop
    vertex 225.58129681402838 351.337279616921 -98.97322833795872
    vertex 225.7910817682925 351.6679214997242 -98.97322833795872
    vertex 224.60428425277783 355.63067667521034 -98.97322833795872
  endloop
endfacet
facet normal -2.5087325754143726e-16 -4.127451006529693e-17 1.0
  outer loop
    vertex 225.46423652511578 350.9636077415292 -98.97322833795872
    vertex 225.58129681402838 351.337279616921 -98.97322833795872
    vertex 224.60428425277783 355.63067667521034 -98.97322833795872
  endloop
endfacet
facet normal -2.5087325754143726e-16 -4.127451006529693e-17 1.0
  outer loop
    vertex 225.44787836679285 350.5723709943344 -98.97322833795872
    vertex 225.46423652511578 350.9636077415292 -98.97322833795872
    vertex 224.60428425277783 355.63067667521034 -98.97322833795872
  endloop
endfacet
facet normal -2.5087325754143726e-16 -4.127451006529693e-17 1.0
  outer loop
    vertex 224.60428425277797 345.63067667521034 -98.97322833795872
    vertex 225.44787836679285 350.5723709943344 -98.97322833795872
    vertex 224.60428425277783 355.63067667521034 -98.97322833795872
  endloop
endfacet
endsolid oficina
