solid oficina
facet normal 0.0 0.0 1.0
  outer loop
    vertex -56.53678262747904 160.41486832303625 1.9999999999999998
    vertex -67.53678262747904 203.41486832303625 1.9999999999999998
    vertex -67.53678262747904 160.41486832303625 1.9999999999999998
  endloop
endfacet
facet normal 0.0 0.0 1.0
  outer loop
    vertex -67.53678262747904 203.41486832303625 1.9999999999999998
    vertex -56.53678262747904 160.41486832303625 1.9999999999999998
    vertex -56.53678262747904 203.41486832303625 1.9999999999999998
  endloop
endfacet
facet normal -0.0 -0.0 -1.0
  outer loop
    vertex -67.53678262747904 230.41486832303625 0.0
    vertex -92.53678262747904 203.41486832303625 0.0
    vertex -92.53678262747904 230.41486832303625 0.0
  endloop
endfacet
facet normal -0.0 -0.0 -1.0
  outer loop
    vertex -92.53678262747904 203.41486832303625 0.0
    vertex -67.53678262747904 230.41486832303625 0.0
    vertex -67.53678262747904 203.41486832303625 0.0
  endloop
endfacet
facet normal -0.0 -0.0 -1.0
  outer loop
    vertex -31.53678262747904 230.41486832303625 0.0
    vertex -56.53678262747904 203.41486832303625 0.0
    vertex -56.53678262747904 230.41486832303625 0.0
  endloop
endfacet
facet normal -0.0 -0.0 -1.0
  outer loop
    vertex -56.53678262747904 203.41486832303625 0.0
    vertex -31.53678262747904 230.41486832303625 0.0
    vertex -31.53678262747904 203.41486832303625 0.0
  endloop
endfacet
facet normal -0.0 -0.0 -1.0
  outer loop
    vertex -56.53678262747904 230.41486832303625 0.0
    vertex -67.53678262747904 203.41486832303625 0.0
    vertex -67.53678262747904 230.41486832303625 0.0
  endloop
endfacet
facet normal -0.0 -0.0 -1.0
  outer loop
    vertex -67.53678262747904 203.41486832303625 0.0
    vertex -56.53678262747904 230.41486832303625 0.0
    vertex -56.53678262747904 203.41486832303625 0.0
  endloop
endfacet
facet normal -0.0 -0.0 -1.0
  outer loop
    vertex -56.53678262747904 261.4148683230362 0.0
    vertex -67.53678262747904 230.41486832303625 0.0
    vertex -67.53678262747904 261.4148683230362 0.0
  endloop
endfacet
facet normal -0.0 -0.0 -1.0
  outer loop
    vertex -67.53678262747904 230.41486832303625 0.0
    vertex -56.53678262747904 261.4148683230362 0.0
    vertex -56.53678262747904 230.41486832303625 0.0
  endloop
endfacet
facet normal -0.0 -0.0 -1.0
  outer loop
    vertex -56.53678262747904 203.41486832303625 0.0
    vertex -67.53678262747904 160.41486832303625 0.0
    vertex -67.53678262747904 203.41486832303625 0.0
  endloop
endfacet
facet normal -0.0 -0.0 -1.0
  outer loop
    vertex -67.53678262747904 160.41486832303625 0.0
    vertex -56.53678262747904 203.41486832303625 0.0
    vertex -56.53678262747904 160.41486832303625 0.0
  endloop
endfacet
facet normal -0.0 -0.0 -1.0
  outer loop
    vertex -67.53678262747904 261.4148683230362 0.0
    vertex -92.53678262747904 230.41486832303625 0.0
    vertex -92.53678262747904 261.4148683230362 0.0
  endloop
endfacet
facet normal -0.0 -0.0 -1.0
  outer loop
    vertex -92.53678262747904 230.41486832303625 0.0
    vertex -67.53678262747904 261.4148683230362 0.0
    vertex -67.53678262747904 230.41486832303625 0.0
  endloop
endfacet
facet normal -0.0 -0.0 -1.0
  outer loop
    vertex -67.53678262747904 203.41486832303625 0.0
    vertex -92.53678262747904 160.41486832303625 0.0
    vertex -92.53678262747904 203.41486832303625 0.0
  endloop
endfacet
facet normal -0.0 -0.0 -1.0
  outer loop
    vertex -92.53678262747904 160.41486832303625 0.0
    vertex -67.53678262747904 203.41486832303625 0.0
    vertex -67.53678262747904 160.41486832303625 0.0
  endloop
endfacet
facet normal -0.0 -0.0 -1.0
  outer loop
    vertex -31.53678262747904 261.4148683230362 0.0
    vertex -56.53678262747904 230.41486832303625 0.0
    vertex -56.53678262747904 261.4148683230362 0.0
  endloop
endfacet
facet normal -0.0 -0.0 -1.0
  outer loop
    vertex -56.53678262747904 230.41486832303625 0.0
    vertex -31.53678262747904 261.4148683230362 0.0
    vertex -31.53678262747904 230.41486832303625 0.0
  endloop
endfacet
facet normal 0.0 0.0 1.0
  outer loop
    vertex -67.53678262747904 230.41486832303625 1.9999999999999998
    vertex -92.53678262747904 261.4148683230362 1.9999999999999998
    vertex -92.53678262747904 230.41486832303625 1.9999999999999998
  endloop
endfacet
facet normal 0.0 0.0 1.0
  outer loop
    vertex -92.53678262747904 261.4148683230362 1.9999999999999998
    vertex -67.53678262747904 230.41486832303625 1.9999999999999998
    vertex -67.53678262747904 261.4148683230362 1.9999999999999998
  endloop
endfacet
facet normal 0.0 0.0 1.0
  outer loop
    vertex -67.53678262747904 203.41486832303625 1.9999999999999998
    vertex -92.53678262747904 230.41486832303625 1.9999999999999998
    vertex -92.53678262747904 203.41486832303625 1.9999999999999998
  endloop
endfacet
facet normal 0.0 0.0 1.0
  outer loop
    vertex -92.53678262747904 230.41486832303625 1.9999999999999998
    vertex -67.53678262747904 203.41486832303625 1.9999999999999998
    vertex -67.53678262747904 230.41486832303625 1.9999999999999998
  endloop
endfacet
facet normal 1.0 0.0 0.0
  outer loop
    vertex -29.536782627479045 263.4148683230362 0.0
    vertex -29.536782627479045 158.41486832303625 24.000000000000036
    vertex -29.536782627479045 158.41486832303625 0.0
  endloop
endfacet
facet normal 1.0 0.0 0.0
  outer loop
    vertex -29.536782627479045 158.41486832303625 24.000000000000036
    vertex -29.536782627479045 263.4148683230362 0.0
    vertex -29.536782627479045 263.4148683230362 24.000000000000036
  endloop
endfacet
facet normal -0.0 -1.0 -0.0
  outer loop
    vertex -29.536782627479045 158.41486832303625 24.000000000000036
    vertex -94.53678262747904 158.41486832303625 0.0
    vertex -29.536782627479045 158.41486832303625 0.0
  endloop
endfacet
facet normal -0.0 -1.0 -0.0
  outer loop
    vertex -94.53678262747904 158.41486832303625 0.0
    vertex -29.536782627479045 158.41486832303625 24.000000000000036
    vertex -94.53678262747904 158.41486832303625 24.000000000000036
  endloop
endfacet
facet normal -1.0 0.0 0.0
  outer loop
    vertex -94.53678262747904 263.4148683230362 24.000000000000036
    vertex -94.53678262747904 158.41486832303625 0.0
    vertex -94.53678262747904 158.41486832303625 24.000000000000036
  endloop
endfacet
facet normal -1.0 0.0 0.0
  outer loop
    vertex -94.53678262747904 158.41486832303625 0.0
    vertex -94.53678262747904 263.4148683230362 24.000000000000036
    vertex -94.53678262747904 263.4148683230362 0.0
  endloop
endfacet
facet normal 0.0 0.0 1.0
  outer loop
    vertex -67.53678262747904 160.41486832303625 1.9999999999999998
    vertex -92.53678262747904 203.41486832303625 1.9999999999999998
    vertex -92.53678262747904 160.41486832303625 1.9999999999999998
  endloop
endfacet
facet normal 0.0 0.0 1.0
  outer loop
    vertex -92.53678262747904 203.41486832303625 1.9999999999999998
    vertex -67.53678262747904 160.41486832303625 1.9999999999999998
    vertex -67.53678262747904 203.41486832303625 1.9999999999999998
  endloop
endfacet
facet normal 0.0 0.0 1.0
  outer loop
    vertex -31.53678262747904 230.41486832303625 1.9999999999999998
    vertex -56.53678262747904 261.4148683230362 1.9999999999999998
    vertex -56.53678262747904 230.41486832303625 1.9999999999999998
  endloop
endfacet
facet normal 0.0 0.0 1.0
  outer loop
    vertex -56.53678262747904 261.4148683230362 1.9999999999999998
    vertex -31.53678262747904 230.41486832303625 1.9999999999999998
    vertex -31.53678262747904 261.4148683230362 1.9999999999999998
  endloop
endfacet
facet normal 0.0 1.0 0.0
  outer loop
    vertex -94.53678262747904 263.4148683230362 24.000000000000036
    vertex -29.536782627479045 263.4148683230362 0.0
    vertex -94.53678262747904 263.4148683230362 0.0
  endloop
endfacet
facet normal 0.0 1.0 0.0
  outer loop
    vertex -29.536782627479045 263.4148683230362 0.0
    vertex -94.53678262747904 263.4148683230362 24.000000000000036
    vertex -29.536782627479045 263.4148683230362 24.000000000000036
  endloop
endfacet
facet normal 0.0 0.0 1.0
  outer loop
    vertex -31.53678262747904 160.41486832303625 1.9999999999999998
    vertex -56.53678262747904 203.41486832303625 1.9999999999999998
    vertex -56.53678262747904 160.41486832303625 1.9999999999999998
  endloop
endfacet
facet normal 0.0 0.0 1.0
  outer loop
    vertex -56.53678262747904 203.41486832303625 1.9999999999999998
    vertex -31.53678262747904 160.41486832303625 1.9999999999999998
    vertex -31.53678262747904 203.41486832303625 1.9999999999999998
  endloop
endfacet
facet normal 0.0 0.0 1.0
  outer loop
    vertex -56.53678262747904 203.41486832303625 1.9999999999999998
    vertex -67.53678262747904 230.41486832303625 1.9999999999999998
    vertex -67.53678262747904 203.41486832303625 1.9999999999999998
  endloop
endfacet
facet normal 0.0 0.0 1.0
  outer loop
    vertex -67.53678262747904 230.41486832303625 1.9999999999999998
    vertex -56.53678262747904 203.41486832303625 1.9999999999999998
    vertex -56.53678262747904 230.41486832303625 1.9999999999999998
  endloop
endfacet
facet normal -0.0 -0.0 -1.0
  outer loop
    vertex -31.53678262747904 203.41486832303625 0.0
    vertex -56.53678262747904 160.41486832303625 0.0
    vertex -56.53678262747904 203.41486832303625 0.0
  endloop
endfacet
facet normal -0.0 -0.0 -1.0
  outer loop
    vertex -56.53678262747904 160.41486832303625 0.0
    vertex -31.53678262747904 203.41486832303625 0.0
    vertex -31.53678262747904 160.41486832303625 0.0
  endloop
endfacet
facet normal 0.0 0.0 1.0
  outer loop
    vertex -56.53678262747904 230.41486832303625 1.9999999999999998
    vertex -67.53678262747904 261.4148683230362 1.9999999999999998
    vertex -67.53678262747904 230.41486832303625 1.9999999999999998
  endloop
endfacet
facet normal 0.0 0.0 1.0
  outer loop
    vertex -67.53678262747904 261.4148683230362 1.9999999999999998
    vertex -56.53678262747904 230.41486832303625 1.9999999999999998
    vertex -56.53678262747904 261.4148683230362 1.9999999999999998
  endloop
endfacet
facet normal 0.0 0.0 1.0
  outer loop
    vertex -31.53678262747904 203.41486832303625 1.9999999999999998
    vertex -56.53678262747904 230.41486832303625 1.9999999999999998
    vertex -56.53678262747904 203.41486832303625 1.9999999999999998
  endloop
endfacet
facet normal 0.0 0.0 1.0
  outer loop
    vertex -56.53678262747904 230.41486832303625 1.9999999999999998
    vertex -31.53678262747904 203.41486832303625 1.9999999999999998
    vertex -31.53678262747904 230.41486832303625 1.9999999999999998
  endloop
endfacet
facet normal -0.0 -0.0 -1.0
  outer loop
    vertex -94.53678262747904 263.4148683230362 0.0
    vertex -92.53678262747904 261.4148683230362 0.0
    vertex -94.53678262747904 158.41486832303625 0.0
  endloop
endfacet
facet normal -0.0 -0.0 -1.0
  outer loop
    vertex -92.53678262747904 261.4148683230362 0.0
    vertex -94.53678262747904 263.4148683230362 0.0
    vertex -29.536782627479045 263.4148683230362 0.0
  endloop
endfacet
facet normal -0.0 -0.0 -1.0
  outer loop
    vertex -92.53678262747904 261.4148683230362 0.0
    vertex -29.536782627479045 263.4148683230362 0.0
    vertex -67.53678262747904 261.4148683230362 0.0
  endloop
endfacet
facet normal -0.0 -0.0 -1.0
  outer loop
    vertex -67.53678262747904 261.4148683230362 0.0
    vertex -29.536782627479045 263.4148683230362 0.0
    vertex -56.53678262747904 261.4148683230362 0.0
  endloop
endfacet
facet normal -0.0 -0.0 -1.0
  outer loop
    vertex -56.53678262747904 261.4148683230362 0.0
    vertex -29.536782627479045 263.4148683230362 0.0
    vertex -31.53678262747904 261.4148683230362 0.0
  endloop
endfacet
facet normal -0.0 -0.0 -1.0
  outer loop
    vertex -31.53678262747904 261.4148683230362 0.0
    vertex -29.536782627479045 263.4148683230362 0.0
    vertex -31.53678262747904 230.41486832303625 0.0
  endloop
endfacet
facet normal -0.0 -0.0 -1.0
  outer loop
    vertex -31.53678262747904 230.41486832303625 0.0
    vertex -29.536782627479045 263.4148683230362 0.0
    vertex -31.53678262747904 203.41486832303625 0.0
  endloop
endfacet
facet normal -0.0 -0.0 -1.0
  outer loop
    vertex -31.53678262747904 203.41486832303625 0.0
    vertex -29.536782627479045 263.4148683230362 0.0
    vertex -31.53678262747904 160.41486832303625 0.0
  endloop
endfacet
facet normal -0.0 -0.0 -1.0
  outer loop
    vertex -94.53678262747904 158.41486832303625 0.0
    vertex -92.53678262747904 160.41486832303625 0.0
    vertex -29.536782627479045 158.41486832303625 0.0
  endloop
endfacet
facet normal -0.0 -0.0 -1.0
  outer loop
    vertex -92.53678262747904 160.41486832303625 0.0
    vertex -94.53678262747904 158.41486832303625 0.0
    vertex -92.53678262747904 261.4148683230362 0.0
  endloop
endfacet
facet normal -0.0 -0.0 -1.0
  outer loop
    vertex -92.53678262747904 160.41486832303625 0.0
    vertex -92.53678262747904 261.4148683230362 0.0
    vertex -92.53678262747904 230.41486832303625 0.0
  endloop
endfacet
facet normal -0.0 -0.0 -1.0
  outer loop
    vertex -92.53678262747904 160.41486832303625 0.0
    vertex -92.53678262747904 230.41486832303625 0.0
    vertex -92.53678262747904 203.41486832303625 0.0
  endloop
endfacet
facet normal -0.0 -0.0 -1.0
  outer loop
    vertex -29.536782627479045 158.41486832303625 0.0
    vertex -92.53678262747904 160.41486832303625 0.0
    vertex -67.53678262747904 160.41486832303625 0.0
  endloop
endfacet
facet normal -0.0 -0.0 -1.0
  outer loop
    vertex -29.536782627479045 158.41486832303625 0.0
    vertex -67.53678262747904 160.41486832303625 0.0
    vertex -56.53678262747904 160.41486832303625 0.0
  endloop
endfacet
facet normal -0.0 -0.0 -1.0
  outer loop
    vertex -29.536782627479045 158.41486832303625 0.0
    vertex -56.53678262747904 160.41486832303625 0.0
    vertex -31.53678262747904 160.41486832303625 0.0
  endloop
endfacet
facet normal -0.0 -0.0 -1.0
  outer loop
    vertex -29.536782627479045 158.41486832303625 0.0
    vertex -31.53678262747904 160.41486832303625 0.0
    vertex -29.536782627479045 263.4148683230362 0.0
  endloop
endfacet
facet normal -0.0 -0.0 -1.0
  outer loop
    vertex -67.53678262747904 203.41486832303625 22.0
    vertex -92.53678262747904 160.41486832303625 22.0
    vertex -92.53678262747904 203.41486832303625 22.0
  endloop
endfacet
facet normal -0.0 -0.0 -1.0
  outer loop
    vertex -92.53678262747904 160.41486832303625 22.0
    vertex -67.53678262747904 203.41486832303625 22.0
    vertex -67.53678262747904 160.41486832303625 22.0
  endloop
endfacet
facet normal -5.639932965095795e-17 3.2790307936603455e-17 -1.0
  outer loop
    vertex -31.53678262747904 203.41486832303625 22.0
    vertex -56.53678262747904 160.41486832303625 22.0
    vertex -56.53678262747904 203.41486832303625 22.0
  endloop
endfacet
facet normal -5.639932965095795e-17 3.2790307936603455e-17 -1.0
  outer loop
    vertex -56.53678262747904 160.41486832303625 22.0
    vertex -31.53678262747904 203.41486832303625 22.0
    vertex -31.53678262747904 160.41486832303625 21.999999999999996
  endloop
endfacet
facet normal 5.639932965095795e-17 4.5483330363675785e-17 -1.0
  outer loop
    vertex -31.53678262747904 261.4148683230362 22.0
    vertex -56.53678262747904 230.41486832303625 21.999999999999996
    vertex -56.53678262747904 261.4148683230362 21.999999999999996
  endloop
endfacet
facet normal 5.639932965095795e-17 4.5483330363675785e-17 -1.0
  outer loop
    vertex -56.53678262747904 230.41486832303625 21.999999999999996
    vertex -31.53678262747904 261.4148683230362 22.0
    vertex -31.53678262747904 230.41486832303625 21.999999999999996
  endloop
endfacet
facet normal 0.0 -1.0 0.0
  outer loop
    vertex -67.53678262747904 261.4148683230362 22.0
    vertex -92.53678262747904 261.4148683230362 1.9999999999999998
    vertex -67.53678262747904 261.4148683230362 1.9999999999999998
  endloop
endfacet
facet normal 0.0 -1.0 0.0
  outer loop
    vertex -92.53678262747904 261.4148683230362 1.9999999999999998
    vertex -67.53678262747904 261.4148683230362 22.0
    vertex -92.53678262747904 261.4148683230362 21.999999999999996
  endloop
endfacet
facet normal 0.0 -1.0 0.0
  outer loop
    vertex -31.53678262747904 261.4148683230362 22.0
    vertex -56.53678262747904 261.4148683230362 1.9999999999999998
    vertex -31.53678262747904 261.4148683230362 1.9999999999999998
  endloop
endfacet
facet normal 0.0 -1.0 0.0
  outer loop
    vertex -56.53678262747904 261.4148683230362 1.9999999999999998
    vertex -31.53678262747904 261.4148683230362 22.0
    vertex -56.53678262747904 261.4148683230362 21.999999999999996
  endloop
endfacet
facet normal -1.0 0.0 0.0
  outer loop
    vertex -31.53678262747904 230.41486832303625 23.999999999999996
    vertex -31.53678262747904 203.41486832303625 22.0
    vertex -31.53678262747904 203.41486832303625 24.0
  endloop
endfacet
facet normal -1.0 0.0 0.0
  outer loop
    vertex -31.53678262747904 203.41486832303625 22.0
    vertex -31.53678262747904 230.41486832303625 23.999999999999996
    vertex -31.53678262747904 203.41486832303625 1.9999999999999998
  endloop
endfacet
facet normal -1.0 0.0 0.0
  outer loop
    vertex -31.53678262747904 203.41486832303625 1.9999999999999998
    vertex -31.53678262747904 230.41486832303625 23.999999999999996
    vertex -31.53678262747904 230.41486832303625 1.9999999999999998
  endloop
endfacet
facet normal -1.0 0.0 0.0
  outer loop
    vertex -31.53678262747904 230.41486832303625 1.9999999999999998
    vertex -31.53678262747904 230.41486832303625 23.999999999999996
    vertex -31.53678262747904 230.41486832303625 21.999999999999996
  endloop
endfacet
facet normal -1.0 0.0 0.0
  outer loop
    vertex -31.53678262747904 203.41486832303625 22.0
    vertex -31.53678262747904 160.41486832303625 1.9999999999999998
    vertex -31.53678262747904 160.41486832303625 21.999999999999996
  endloop
endfacet
facet normal -1.0 0.0 0.0
  outer loop
    vertex -31.53678262747904 160.41486832303625 1.9999999999999998
    vertex -31.53678262747904 203.41486832303625 22.0
    vertex -31.53678262747904 203.41486832303625 1.9999999999999998
  endloop
endfacet
facet normal 0.0 1.0 0.0
  outer loop
    vertex -67.53678262747904 160.41486832303625 22.0
    vertex -56.53678262747904 160.41486832303625 1.9999999999999998
    vertex -67.53678262747904 160.41486832303625 1.9999999999999998
  endloop
endfacet
facet normal 0.0 1.0 0.0
  outer loop
    vertex -56.53678262747904 160.41486832303625 1.9999999999999998
    vertex -67.53678262747904 160.41486832303625 22.0
    vertex -56.53678262747904 160.41486832303625 22.0
  endloop
endfacet
facet normal 0.0 1.0 0.0
  outer loop
    vertex -56.53678262747904 160.41486832303625 22.0
    vertex -67.53678262747904 160.41486832303625 22.0
    vertex -67.53678262747904 160.41486832303625 24.0
  endloop
endfacet
facet normal 0.0 1.0 0.0
  outer loop
    vertex -56.53678262747904 160.41486832303625 22.0
    vertex -67.53678262747904 160.41486832303625 24.0
    vertex -56.53678262747904 160.41486832303625 24.0
  endloop
endfacet
facet normal 1.0 0.0 0.0
  outer loop
    vertex -92.53678262747904 230.41486832303625 1.9999999999999998
    vertex -92.53678262747904 203.41486832303625 22.0
    vertex -92.53678262747904 203.41486832303625 1.9999999999999998
  endloop
endfacet
facet normal 1.0 0.0 0.0
  outer loop
    vertex -92.53678262747904 203.41486832303625 22.0
    vertex -92.53678262747904 230.41486832303625 1.9999999999999998
    vertex -92.53678262747904 203.41486832303625 24.0
  endloop
endfacet
facet normal 1.0 0.0 0.0
  outer loop
    vertex -92.53678262747904 203.41486832303625 24.0
    vertex -92.53678262747904 230.41486832303625 1.9999999999999998
    vertex -92.53678262747904 230.41486832303625 23.999999999999996
  endloop
endfacet
facet normal 1.0 0.0 0.0
  outer loop
    vertex -92.53678262747904 230.41486832303625 23.999999999999996
    vertex -92.53678262747904 230.41486832303625 1.9999999999999998
    vertex -92.53678262747904 230.41486832303625 21.999999999999996
  endloop
endfacet
facet normal 1.0 0.0 0.0
  outer loop
    vertex -92.53678262747904 203.41486832303625 1.9999999999999998
    vertex -92.53678262747904 160.41486832303625 22.0
    vertex -92.53678262747904 160.41486832303625 1.9999999999999998
  endloop
endfacet
facet normal 1.0 0.0 0.0
  outer loop
    vertex -92.53678262747904 160.41486832303625 22.0
    vertex -92.53678262747904 203.41486832303625 1.9999999999999998
    vertex -92.53678262747904 203.41486832303625 22.0
  endloop
endfacet
facet normal 0.0 -1.0 0.0
  outer loop
    vertex -56.53678262747904 261.4148683230362 21.999999999999996
    vertex -67.53678262747904 261.4148683230362 1.9999999999999998
    vertex -56.53678262747904 261.4148683230362 1.9999999999999998
  endloop
endfacet
facet normal 0.0 -1.0 0.0
  outer loop
    vertex -67.53678262747904 261.4148683230362 1.9999999999999998
    vertex -56.53678262747904 261.4148683230362 21.999999999999996
    vertex -67.53678262747904 261.4148683230362 22.0
  endloop
endfacet
facet normal 0.0 -1.0 0.0
  outer loop
    vertex -67.53678262747904 261.4148683230362 22.0
    vertex -56.53678262747904 261.4148683230362 21.999999999999996
    vertex -56.53678262747904 261.4148683230362 23.999999999999996
  endloop
endfacet
facet normal 0.0 -1.0 0.0
  outer loop
    vertex -67.53678262747904 261.4148683230362 22.0
    vertex -56.53678262747904 261.4148683230362 23.999999999999996
    vertex -67.53678262747904 261.4148683230362 24.0
  endloop
endfacet
facet normal 5.639932965095795e-17 4.5483330363675785e-17 -1.0
  outer loop
    vertex -67.53678262747904 261.4148683230362 22.0
    vertex -92.53678262747904 230.41486832303625 21.999999999999996
    vertex -92.53678262747904 261.4148683230362 21.999999999999996
  endloop
endfacet
facet normal 5.639932965095795e-17 4.5483330363675785e-17 -1.0
  outer loop
    vertex -92.53678262747904 230.41486832303625 21.999999999999996
    vertex -67.53678262747904 261.4148683230362 22.0
    vertex -67.53678262747904 230.41486832303625 21.999999999999996
  endloop
endfacet
facet normal -1.0 0.0 0.0
  outer loop
    vertex -31.53678262747904 261.4148683230362 22.0
    vertex -31.53678262747904 230.41486832303625 1.9999999999999998
    vertex -31.53678262747904 230.41486832303625 21.999999999999996
  endloop
endfacet
facet normal -1.0 0.0 0.0
  outer loop
    vertex -31.53678262747904 230.41486832303625 1.9999999999999998
    vertex -31.53678262747904 261.4148683230362 22.0
    vertex -31.53678262747904 261.4148683230362 1.9999999999999998
  endloop
endfacet
facet normal 0.0 1.0 0.0
  outer loop
    vertex -92.53678262747904 160.41486832303625 22.0
    vertex -67.53678262747904 160.41486832303625 1.9999999999999998
    vertex -92.53678262747904 160.41486832303625 1.9999999999999998
  endloop
endfacet
facet normal 0.0 1.0 0.0
  outer loop
    vertex -67.53678262747904 160.41486832303625 1.9999999999999998
    vertex -92.53678262747904 160.41486832303625 22.0
    vertex -67.53678262747904 160.41486832303625 22.0
  endloop
endfacet
facet normal 1.0 0.0 0.0
  outer loop
    vertex -92.53678262747904 261.4148683230362 1.9999999999999998
    vertex -92.53678262747904 230.41486832303625 21.999999999999996
    vertex -92.53678262747904 230.41486832303625 1.9999999999999998
  endloop
endfacet
facet normal 1.0 0.0 0.0
  outer loop
    vertex -92.53678262747904 230.41486832303625 21.999999999999996
    vertex -92.53678262747904 261.4148683230362 1.9999999999999998
    vertex -92.53678262747904 261.4148683230362 21.999999999999996
  endloop
endfacet
facet normal 0.0 1.0 0.0
  outer loop
    vertex -56.53678262747904 160.41486832303625 22.0
    vertex -31.53678262747904 160.41486832303625 1.9999999999999998
    vertex -56.53678262747904 160.41486832303625 1.9999999999999998
  endloop
endfacet
facet normal 0.0 1.0 0.0
  outer loop
    vertex -31.53678262747904 160.41486832303625 1.9999999999999998
    vertex -56.53678262747904 160.41486832303625 22.0
    vertex -31.53678262747904 160.41486832303625 21.999999999999996
  endloop
endfacet
facet normal 5.639932965095795e-17 -3.2790307936603455e-17 1.0
  outer loop
    vertex -31.53678262747904 160.41486832303625 23.999999999999996
    vertex -56.53678262747904 203.41486832303625 24.0
    vertex -56.53678262747904 160.41486832303625 24.0
  endloop
endfacet
facet normal 5.639932965095795e-17 -3.2790307936603455e-17 1.0
  outer loop
    vertex -56.53678262747904 203.41486832303625 24.0
    vertex -31.53678262747904 160.41486832303625 23.999999999999996
    vertex -31.53678262747904 203.41486832303625 24.0
  endloop
endfacet
facet normal -5.639932965095795e-17 -4.5483330363675785e-17 1.0
  outer loop
    vertex -67.53678262747904 230.41486832303625 23.999999999999996
    vertex -92.53678262747904 261.4148683230362 23.999999999999996
    vertex -92.53678262747904 230.41486832303625 23.999999999999996
  endloop
endfacet
facet normal -5.639932965095795e-17 -4.5483330363675785e-17 1.0
  outer loop
    vertex -92.53678262747904 261.4148683230362 23.999999999999996
    vertex -67.53678262747904 230.41486832303625 23.999999999999996
    vertex -67.53678262747904 261.4148683230362 24.0
  endloop
endfacet
facet normal -1.0 0.0 0.0
  outer loop
    vertex -56.53678262747904 261.4148683230362 23.999999999999996
    vertex -56.53678262747904 230.41486832303625 21.999999999999996
    vertex -56.53678262747904 230.41486832303625 23.999999999999996
  endloop
endfacet
facet normal -1.0 0.0 0.0
  outer loop
    vertex -56.53678262747904 230.41486832303625 21.999999999999996
    vertex -56.53678262747904 261.4148683230362 23.999999999999996
    vertex -56.53678262747904 261.4148683230362 21.999999999999996
  endloop
endfacet
facet normal -1.0 0.0 0.0
  outer loop
    vertex -56.53678262747904 203.41486832303625 24.0
    vertex -56.53678262747904 160.41486832303625 22.0
    vertex -56.53678262747904 160.41486832303625 24.0
  endloop
endfacet
facet normal -1.0 0.0 0.0
  outer loop
    vertex -56.53678262747904 160.41486832303625 22.0
    vertex -56.53678262747904 203.41486832303625 24.0
    vertex -56.53678262747904 203.41486832303625 22.0
  endloop
endfacet
facet normal -5.639932965095795e-17 -4.5483330363675785e-17 1.0
  outer loop
    vertex -31.53678262747904 230.41486832303625 23.999999999999996
    vertex -56.53678262747904 261.4148683230362 23.999999999999996
    vertex -56.53678262747904 230.41486832303625 23.999999999999996
  endloop
endfacet
facet normal -5.639932965095795e-17 -4.5483330363675785e-17 1.0
  outer loop
    vertex -56.53678262747904 261.4148683230362 23.999999999999996
    vertex -31.53678262747904 230.41486832303625 23.999999999999996
    vertex -31.53678262747904 261.4148683230362 24.0
  endloop
endfacet
facet normal 1.0 0.0 0.0
  outer loop
    vertex -67.53678262747904 261.4148683230362 22.0
    vertex -67.53678262747904 230.41486832303625 23.999999999999996
    vertex -67.53678262747904 230.41486832303625 21.999999999999996
  endloop
endfacet
facet normal 1.0 0.0 0.0
  outer loop
    vertex -67.53678262747904 230.41486832303625 23.999999999999996
    vertex -67.53678262747904 261.4148683230362 22.0
    vertex -67.53678262747904 261.4148683230362 24.0
  endloop
endfacet
facet normal 0.0 -1.0 0.0
  outer loop
    vertex -67.53678262747904 230.41486832303625 23.999999999999996
    vertex -92.53678262747904 230.41486832303625 21.999999999999996
    vertex -67.53678262747904 230.41486832303625 21.999999999999996
  endloop
endfacet
facet normal 0.0 -1.0 0.0
  outer loop
    vertex -92.53678262747904 230.41486832303625 21.999999999999996
    vertex -67.53678262747904 230.41486832303625 23.999999999999996
    vertex -92.53678262747904 230.41486832303625 23.999999999999996
  endloop
endfacet
facet normal 0.0 0.0 1.0
  outer loop
    vertex -67.53678262747904 160.41486832303625 24.0
    vertex -92.53678262747904 203.41486832303625 24.0
    vertex -92.53678262747904 160.41486832303625 24.0
  endloop
endfacet
facet normal 0.0 0.0 1.0
  outer loop
    vertex -92.53678262747904 203.41486832303625 24.0
    vertex -67.53678262747904 160.41486832303625 24.0
    vertex -67.53678262747904 203.41486832303625 24.0
  endloop
endfacet
facet normal 0.0 1.0 0.0
  outer loop
    vertex -56.53678262747904 203.41486832303625 24.0
    vertex -31.53678262747904 203.41486832303625 22.0
    vertex -56.53678262747904 203.41486832303625 22.0
  endloop
endfacet
facet normal 0.0 1.0 0.0
  outer loop
    vertex -31.53678262747904 203.41486832303625 22.0
    vertex -56.53678262747904 203.41486832303625 24.0
    vertex -31.53678262747904 203.41486832303625 24.0
  endloop
endfacet
facet normal 1.0 0.0 0.0
  outer loop
    vertex -67.53678262747904 203.41486832303625 22.0
    vertex -67.53678262747904 160.41486832303625 24.0
    vertex -67.53678262747904 160.41486832303625 22.0
  endloop
endfacet
facet normal 1.0 0.0 0.0
  outer loop
    vertex -67.53678262747904 160.41486832303625 24.0
    vertex -67.53678262747904 203.41486832303625 22.0
    vertex -67.53678262747904 203.41486832303625 24.0
  endloop
endfacet
facet normal 0.0 0.0 1.0
  outer loop
    vertex -94.53678262747904 158.41486832303625 24.000000000000036
    vertex -92.53678262747904 160.41486832303625 24.0
    vertex -94.53678262747904 263.4148683230362 24.000000000000036
  endloop
endfacet
facet normal 0.0 0.0 1.0
  outer loop
    vertex -92.53678262747904 160.41486832303625 24.0
    vertex -94.53678262747904 158.41486832303625 24.000000000000036
    vertex -29.536782627479045 158.41486832303625 24.000000000000036
  endloop
endfacet
facet normal 0.0 0.0 1.0
  outer loop
    vertex -92.53678262747904 160.41486832303625 24.0
    vertex -29.536782627479045 158.41486832303625 24.000000000000036
    vertex -67.53678262747904 160.41486832303625 24.0
  endloop
endfacet
facet normal 0.0 0.0 1.0
  outer loop
    vertex -67.53678262747904 160.41486832303625 24.0
    vertex -29.536782627479045 158.41486832303625 24.000000000000036
    vertex -56.53678262747904 160.41486832303625 24.0
  endloop
endfacet
facet normal 0.0 0.0 1.0
  outer loop
    vertex -56.53678262747904 160.41486832303625 24.0
    vertex -29.536782627479045 158.41486832303625 24.000000000000036
    vertex -31.53678262747904 160.41486832303625 23.999999999999996
  endloop
endfacet
facet normal 0.0 0.0 1.0
  outer loop
    vertex -31.53678262747904 160.41486832303625 23.999999999999996
    vertex -29.536782627479045 158.41486832303625 24.000000000000036
    vertex -31.53678262747904 203.41486832303625 24.0
  endloop
endfacet
facet normal 0.0 0.0 1.0
  outer loop
    vertex -31.53678262747904 203.41486832303625 24.0
    vertex -29.536782627479045 158.41486832303625 24.000000000000036
    vertex -31.53678262747904 230.41486832303625 23.999999999999996
  endloop
endfacet
facet normal 0.0 0.0 1.0
  outer loop
    vertex -31.53678262747904 230.41486832303625 23.999999999999996
    vertex -29.536782627479045 158.41486832303625 24.000000000000036
    vertex -31.53678262747904 261.4148683230362 24.0
  endloop
endfacet
facet normal 0.0 0.0 1.0
  outer loop
    vertex -94.53678262747904 263.4148683230362 24.000000000000036
    vertex -92.53678262747904 261.4148683230362 23.999999999999996
    vertex -29.536782627479045 263.4148683230362 24.000000000000036
  endloop
endfacet
facet normal 0.0 0.0 1.0
  outer loop
    vertex -92.53678262747904 261.4148683230362 23.999999999999996
    vertex -94.53678262747904 263.4148683230362 24.000000000000036
    vertex -92.53678262747904 160.41486832303625 24.0
  endloop
endfacet
facet normal 0.0 0.0 1.0
  outer loop
    vertex -92.53678262747904 261.4148683230362 23.999999999999996
    vertex -92.53678262747904 160.41486832303625 24.0
    vertex -92.53678262747904 203.41486832303625 24.0
  endloop
endfacet
facet normal 0.0 0.0 1.0
  outer loop
    vertex -92.53678262747904 261.4148683230362 23.999999999999996
    vertex -92.53678262747904 203.41486832303625 24.0
    vertex -92.53678262747904 230.41486832303625 23.999999999999996
  endloop
endfacet
facet normal 0.0 0.0 1.0
  outer loop
    vertex -29.536782627479045 263.4148683230362 24.000000000000036
    vertex -92.53678262747904 261.4148683230362 23.999999999999996
    vertex -67.53678262747904 261.4148683230362 24.0
  endloop
endfacet
facet normal 0.0 0.0 1.0
  outer loop
    vertex -29.536782627479045 263.4148683230362 24.000000000000036
    vertex -67.53678262747904 261.4148683230362 24.0
    vertex -56.53678262747904 261.4148683230362 23.999999999999996
  endloop
endfacet
facet normal 0.0 0.0 1.0
  outer loop
    vertex -29.536782627479045 263.4148683230362 24.000000000000036
    vertex -56.53678262747904 261.4148683230362 23.999999999999996
    vertex -31.53678262747904 261.4148683230362 24.0
  endloop
endfacet
facet normal 0.0 0.0 1.0
  outer loop
    vertex -29.536782627479045 263.4148683230362 24.000000000000036
    vertex -31.53678262747904 261.4148683230362 24.0
    vertex -29.536782627479045 158.41486832303625 24.000000000000036
  endloop
endfacet
facet normal 0.0 1.0 0.0
  outer loop
    vertex -92.53678262747904 203.41486832303625 24.0
    vertex -67.53678262747904 203.41486832303625 22.0
    vertex -92.53678262747904 203.41486832303625 22.0
  endloop
endfacet
facet normal 0.0 1.0 0.0
  outer loop
    vertex -67.53678262747904 203.41486832303625 22.0
    vertex -92.53678262747904 203.41486832303625 24.0
    vertex -67.53678262747904 203.41486832303625 24.0
  endloop
endfacet
facet normal 0.0 -1.0 0.0
  outer loop
    vertex -31.53678262747904 230.41486832303625 23.999999999999996
    vertex -56.53678262747904 230.41486832303625 21.999999999999996
    vertex -31.53678262747904 230.41486832303625 21.999999999999996
  endloop
endfacet
facet normal 0.0 -1.0 0.0
  outer loop
    vertex -56.53678262747904 230.41486832303625 21.999999999999996
    vertex -31.53678262747904 230.41486832303625 23.999999999999996
    vertex -56.53678262747904 230.41486832303625 23.999999999999996
  endloop
endfacet
endsolid oficina
