solid oficina
facet normal 0.4829629131445291 -0.6294095225512488 -0.6087614290087366
  outer loop
    vertex 102.48826282841259 305.9202889593916 24.905400000000007
    vertex 97.87635150342702 303.13245670799677 24.128915255975407
    vertex 102.12555199402686 306.39298292176744 24.128915255975407
  endloop
endfacet
facet normal 0.4829629131445291 -0.6294095225512488 -0.6087614290087366
  outer loop
    vertex 97.87635150342702 303.13245670799677 24.128915255975407
    vertex 102.48826282841259 305.9202889593916 24.905400000000007
    vertex 98.23906233781275 302.65976274562087 24.905400000000007
  endloop
endfacet
facet normal 0.37059047744874396 -0.48296291314453615 -0.793353340291232
  outer loop
    vertex 101.65285803165098 307.0090096871246 23.533097556131395
    vertex 97.87635150342702 303.13245670799677 24.128915255975407
    vertex 97.40365754105113 303.7484834733539 23.533097556131395
  endloop
endfacet
facet normal 0.37059047744874396 -0.48296291314453615 -0.793353340291232
  outer loop
    vertex 97.87635150342702 303.13245670799677 24.128915255975407
    vertex 101.65285803165098 307.0090096871246 23.533097556131395
    vertex 102.12555199402686 306.39298292176744 24.128915255975407
  endloop
endfacet
facet normal -0.37059047744874424 0.48296291314453593 -0.7933533402912321
  outer loop
    vertex 98.89779571963558 310.5994767959015 24.128915255975407
    vertex 95.12128919141163 306.72292381677374 23.533097556131395
    vertex 94.64859522903573 307.33895058213085 24.128915255975407
  endloop
endfacet
facet normal -0.37059047744874424 0.48296291314453593 -0.7933533402912321
  outer loop
    vertex 95.12128919141163 306.72292381677374 23.533097556131395
    vertex 98.89779571963558 310.5994767959015 24.128915255975407
    vertex 99.37048968201147 309.9834500305444 23.533097556131395
  endloop
endfacet
facet normal 0.23296291314453818 -0.3036031793409619 -0.9238795325112847
  outer loop
    vertex 101.10239425365714 307.72638804943614 23.158550892077038
    vertex 97.40365754105113 303.7484834733539 23.533097556131395
    vertex 96.85319376305729 304.46586183566546 23.158550892077038
  endloop
endfacet
facet normal 0.23296291314453818 -0.3036031793409619 -0.9238795325112847
  outer loop
    vertex 97.40365754105113 303.7484834733539 23.533097556131395
    vertex 101.10239425365714 307.72638804943614 23.158550892077038
    vertex 101.65285803165098 307.0090096871246 23.533097556131395
  endloop
endfacet
facet normal 0.6035533905932771 -0.7865660924854909 -0.13052619222004908
  outer loop
    vertex 102.79404220647072 305.52178951541464 26.780000000000005
    vertex 98.46707190025295 302.3626148985984 25.809635636101632
    vertex 102.71627239085278 305.6231411123691 25.809635636101632
  endloop
endfacet
facet normal 0.6035533905932771 -0.7865660924854909 -0.13052619222004908
  outer loop
    vertex 98.46707190025295 302.3626148985984 25.809635636101632
    vertex 102.79404220647072 305.52178951541464 26.780000000000005
    vertex 98.54484171587087 302.2612633016439 26.780000000000005
  endloop
endfacet
facet normal 0.07945931129894354 -0.10355339059327051 -0.9914448613738109
  outer loop
    vertex 100.51167385683122 308.4962298588345 23.030800000000017
    vertex 96.85319376305729 304.46586183566546 23.158550892077038
    vertex 96.26247336623138 305.2357036450638 23.030800000000017
  endloop
endfacet
facet normal 0.07945931129894354 -0.10355339059327051 -0.9914448613738109
  outer loop
    vertex 96.85319376305729 304.46586183566546 23.158550892077038
    vertex 100.51167385683122 308.4962298588345 23.030800000000017
    vertex 101.10239425365714 307.72638804943614 23.158550892077038
  endloop
endfacet
facet normal -0.0794593112989456 0.10355339059327275 -0.9914448613738106
  outer loop
    vertex 99.92095346000531 309.2660716682328 23.15855089207704
    vertex 96.26247336623138 305.2357036450638 23.030800000000017
    vertex 95.67175296940547 306.00554545446215 23.15855089207704
  endloop
endfacet
facet normal -0.0794593112989456 0.10355339059327275 -0.9914448613738106
  outer loop
    vertex 96.26247336623138 305.2357036450638 23.030800000000017
    vertex 99.92095346000531 309.2660716682328 23.15855089207704
    vertex 100.51167385683122 308.4962298588345 23.030800000000017
  endloop
endfacet
facet normal -0.23296291314453682 0.3036031793409597 -0.9238795325112859
  outer loop
    vertex 99.37048968201147 309.9834500305444 23.533097556131395
    vertex 95.67175296940547 306.00554545446215 23.15855089207704
    vertex 95.12128919141163 306.72292381677374 23.533097556131395
  endloop
endfacet
facet normal -0.23296291314453682 0.3036031793409597 -0.9238795325112859
  outer loop
    vertex 95.67175296940547 306.00554545446215 23.15855089207704
    vertex 99.37048968201147 309.9834500305444 23.533097556131395
    vertex 99.92095346000531 309.2660716682328 23.15855089207704
  endloop
endfacet
facet normal -0.48296291314453 0.6294095225512495 -0.6087614290087352
  outer loop
    vertex 94.28588439465001 307.81164454450675 24.90540000000001
    vertex 98.89779571963558 310.5994767959015 24.128915255975407
    vertex 94.64859522903573 307.33895058213085 24.128915255975407
  endloop
endfacet
facet normal -0.48296291314453 0.6294095225512495 -0.6087614290087352
  outer loop
    vertex 98.89779571963558 310.5994767959015 24.128915255975407
    vertex 94.28588439465001 307.81164454450675 24.90540000000001
    vertex 98.53508488524984 311.0721707582774 24.90540000000001
  endloop
endfacet
facet normal -0.5624222244434856 0.7329629131445358 -0.3826834323650784
  outer loop
    vertex 94.05787483220982 308.1087923915292 25.80963563610164
    vertex 98.53508488524984 311.0721707582774 24.90540000000001
    vertex 94.28588439465001 307.81164454450675 24.90540000000001
  endloop
endfacet
facet normal -0.5624222244434856 0.7329629131445358 -0.3826834323650784
  outer loop
    vertex 98.53508488524984 311.0721707582774 24.90540000000001
    vertex 94.05787483220982 308.1087923915292 25.80963563610164
    vertex 98.30707532280967 311.3693186052999 25.80963563610164
  endloop
endfacet
facet normal -0.6035533905932771 0.7865660924854909 -0.13052619222004946
  outer loop
    vertex 93.98010501659188 308.2101439884837 26.780000000000005
    vertex 98.30707532280967 311.3693186052999 25.80963563610164
    vertex 94.05787483220982 308.1087923915292 25.80963563610164
  endloop
endfacet
facet normal -0.6035533905932771 0.7865660924854909 -0.13052619222004946
  outer loop
    vertex 98.30707532280967 311.3693186052999 25.80963563610164
    vertex 93.98010501659188 308.2101439884837 26.780000000000005
    vertex 98.22930550719173 311.4706702022544 26.780000000000005
  endloop
endfacet
facet normal 0.6035533905932771 -0.7865660924854909 0.13052619222004946
  outer loop
    vertex 102.71627239085278 305.6231411123691 27.75036436389837
    vertex 98.54484171587087 302.2612633016439 26.780000000000005
    vertex 102.79404220647072 305.52178951541464 26.780000000000005
  endloop
endfacet
facet normal 0.6035533905932771 -0.7865660924854909 0.13052619222004946
  outer loop
    vertex 98.54484171587087 302.2612633016439 26.780000000000005
    vertex 102.71627239085278 305.6231411123691 27.75036436389837
    vertex 98.46707190025295 302.3626148985984 27.75036436389837
  endloop
endfacet
facet normal 0.5624222244434856 -0.7329629131445358 -0.3826834323650784
  outer loop
    vertex 102.71627239085278 305.6231411123691 25.809635636101632
    vertex 98.23906233781275 302.65976274562087 24.905400000000007
    vertex 102.48826282841259 305.9202889593916 24.905400000000007
  endloop
endfacet
facet normal 0.5624222244434856 -0.7329629131445358 -0.3826834323650784
  outer loop
    vertex 98.23906233781275 302.65976274562087 24.905400000000007
    vertex 102.71627239085278 305.6231411123691 25.809635636101632
    vertex 98.46707190025295 302.3626148985984 25.809635636101632
  endloop
endfacet
facet normal 0.793353340291233 0.6087614290087239 -1.4106127877082875e-16
  outer loop
    vertex 102.71627239085278 305.6231411123691 25.809635636101632
    vertex 102.71627239085278 305.6231411123691 27.75036436389837
    vertex 102.79404220647072 305.52178951541464 26.780000000000005
  endloop
endfacet
facet normal 0.793353340291233 0.6087614290087239 -1.4106127877082875e-16
  outer loop
    vertex 102.71627239085278 305.6231411123691 27.75036436389837
    vertex 102.71627239085278 305.6231411123691 25.809635636101632
    vertex 102.48826282841259 305.9202889593916 24.905400000000007
  endloop
endfacet
facet normal 0.793353340291233 0.6087614290087239 -1.4106127877082875e-16
  outer loop
    vertex 102.71627239085278 305.6231411123691 27.75036436389837
    vertex 102.48826282841259 305.9202889593916 24.905400000000007
    vertex 102.48826282841259 305.9202889593916 28.65459999999999
  endloop
endfacet
facet normal 0.793353340291233 0.6087614290087239 -1.4106127877082875e-16
  outer loop
    vertex 102.48826282841259 305.9202889593916 28.65459999999999
    vertex 102.48826282841259 305.9202889593916 24.905400000000007
    vertex 102.12555199402686 306.39298292176744 24.128915255975407
  endloop
endfacet
facet normal 0.793353340291233 0.6087614290087239 -1.4106127877082875e-16
  outer loop
    vertex 102.48826282841259 305.9202889593916 28.65459999999999
    vertex 102.12555199402686 306.39298292176744 24.128915255975407
    vertex 102.12555199402686 306.39298292176744 29.4310847440246
  endloop
endfacet
facet normal 0.793353340291233 0.6087614290087239 -1.4106127877082875e-16
  outer loop
    vertex 102.12555199402686 306.39298292176744 29.4310847440246
    vertex 102.12555199402686 306.39298292176744 24.128915255975407
    vertex 101.65285803165098 307.0090096871246 23.533097556131395
  endloop
endfacet
facet normal 0.793353340291233 0.6087614290087239 -1.4106127877082875e-16
  outer loop
    vertex 102.12555199402686 306.39298292176744 29.4310847440246
    vertex 101.65285803165098 307.0090096871246 23.533097556131395
    vertex 101.65285803165098 307.0090096871246 30.026902443868607
  endloop
endfacet
facet normal 0.793353340291233 0.6087614290087239 -1.4106127877082875e-16
  outer loop
    vertex 101.65285803165098 307.0090096871246 30.026902443868607
    vertex 101.65285803165098 307.0090096871246 23.533097556131395
    vertex 101.10239425365714 307.72638804943614 23.158550892077038
  endloop
endfacet
facet normal 0.793353340291233 0.6087614290087239 -1.4106127877082875e-16
  outer loop
    vertex 101.65285803165098 307.0090096871246 30.026902443868607
    vertex 101.10239425365714 307.72638804943614 23.158550892077038
    vertex 101.14971162350078 307.6647228524798 26.780000000000005
  endloop
endfacet
facet normal 0.793353340291233 0.6087614290087239 -1.4106127877082875e-16
  outer loop
    vertex 101.14971162350078 307.6647228524798 26.780000000000005
    vertex 101.10239425365714 307.72638804943614 23.158550892077038
    vertex 101.12797101380515 307.69305576665624 26.508733921632263
  endloop
endfacet
facet normal 0.793353340291233 0.6087614290087239 -1.4106127877082875e-16
  outer loop
    vertex 101.12797101380515 307.69305576665624 26.508733921632263
    vertex 101.10239425365714 307.72638804943614 23.158550892077038
    vertex 101.0642307713409 307.77612366790663 26.255954178216765
  endloop
endfacet
facet normal 0.793353340291233 0.6087614290087239 -1.4106127877082875e-16
  outer loop
    vertex 101.0642307713409 307.77612366790663 26.255954178216765
    vertex 101.10239425365714 307.72638804943614 23.158550892077038
    vertex 100.51167385683122 308.4962298588345 23.030800000000017
  endloop
endfacet
facet normal 0.793353340291233 0.6087614290087239 -1.4106127877082875e-16
  outer loop
    vertex 101.0642307713409 307.77612366790663 26.255954178216765
    vertex 100.51167385683122 308.4962298588345 23.030800000000017
    vertex 100.96283468829638 307.90826561603694 26.038887291529303
  endloop
endfacet
facet normal 0.793353340291233 0.6087614290087239 -1.4106127877082875e-16
  outer loop
    vertex 100.96283468829638 307.90826561603694 26.038887291529303
    vertex 100.51167385683122 308.4962298588345 23.030800000000017
    vertex 100.830692740166 308.08047635565714 25.87232601117737
  endloop
endfacet
facet normal 0.793353340291233 0.6087614290087239 -1.4106127877082875e-16
  outer loop
    vertex 100.830692740166 308.08047635565714 25.87232601117737
    vertex 100.51167385683122 308.4962298588345 23.030800000000017
    vertex 100.67681018233996 308.2810200094537 25.767621213161515
  endloop
endfacet
facet normal 0.793353340291233 0.6087614290087239 -1.4106127877082875e-16
  outer loop
    vertex 100.67681018233996 308.2810200094537 25.767621213161515
    vertex 100.51167385683122 308.4962298588345 23.030800000000017
    vertex 100.51167385683122 308.4962298588345 25.731908356433664
  endloop
endfacet
facet normal 0.793353340291233 0.6087614290087239 -1.4106127877082875e-16
  outer loop
    vertex 100.51167385683122 308.4962298588345 25.731908356433664
    vertex 100.51167385683122 308.4962298588345 23.030800000000017
    vertex 99.92095346000531 309.2660716682328 23.15855089207704
  endloop
endfacet
facet normal 0.793353340291233 0.6087614290087239 -1.4106127877082875e-16
  outer loop
    vertex 100.51167385683122 308.4962298588345 25.731908356433664
    vertex 99.92095346000531 309.2660716682328 23.15855089207704
    vertex 100.34653753132247 308.71143970821527 25.767621213161515
  endloop
endfacet
facet normal 0.793353340291233 0.6087614290087239 -1.4106127877082875e-16
  outer loop
    vertex 100.34653753132247 308.71143970821527 25.767621213161515
    vertex 99.92095346000531 309.2660716682328 23.15855089207704
    vertex 100.19265497349645 308.9119833620119 25.87232601117738
  endloop
endfacet
facet normal 0.793353340291233 0.6087614290087239 -1.4106127877082875e-16
  outer loop
    vertex 100.19265497349645 308.9119833620119 25.87232601117738
    vertex 99.92095346000531 309.2660716682328 23.15855089207704
    vertex 100.06051302536605 309.0841941016321 26.03888729152931
  endloop
endfacet
facet normal 0.793353340291233 0.6087614290087239 -1.4106127877082875e-16
  outer loop
    vertex 100.06051302536605 309.0841941016321 26.03888729152931
    vertex 99.92095346000531 309.2660716682328 23.15855089207704
    vertex 99.95911694232153 309.2163360497624 26.255954178216758
  endloop
endfacet
facet normal 0.793353340291233 0.6087614290087239 -1.4106127877082875e-16
  outer loop
    vertex 99.95911694232153 309.2163360497624 26.255954178216758
    vertex 99.92095346000531 309.2660716682328 23.15855089207704
    vertex 99.8953766998573 309.2994039510128 26.508733921632263
  endloop
endfacet
facet normal 0.793353340291233 0.6087614290087239 -1.4106127877082875e-16
  outer loop
    vertex 99.8953766998573 309.2994039510128 26.508733921632263
    vertex 99.92095346000531 309.2660716682328 23.15855089207704
    vertex 99.37048968201147 309.9834500305444 23.533097556131395
  endloop
endfacet
facet normal 0.793353340291233 0.6087614290087239 -1.4106127877082875e-16
  outer loop
    vertex 99.8953766998573 309.2994039510128 26.508733921632263
    vertex 99.37048968201147 309.9834500305444 23.533097556131395
    vertex 99.87363609016167 309.3277368651892 26.780000000000005
  endloop
endfacet
facet normal 0.793353340291233 0.6087614290087239 -1.4106127877082875e-16
  outer loop
    vertex 101.14971162350078 307.6647228524798 26.780000000000005
    vertex 101.10239425365714 307.72638804943614 30.401449107922968
    vertex 101.65285803165098 307.0090096871246 30.026902443868607
  endloop
endfacet
facet normal 0.793353340291233 0.6087614290087239 -1.4106127877082875e-16
  outer loop
    vertex 101.10239425365714 307.72638804943614 30.401449107922968
    vertex 101.14971162350078 307.6647228524798 26.780000000000005
    vertex 101.12797101380515 307.69305576665624 27.05126607836774
  endloop
endfacet
facet normal 0.793353340291233 0.6087614290087239 -1.4106127877082875e-16
  outer loop
    vertex 101.10239425365714 307.72638804943614 30.401449107922968
    vertex 101.12797101380515 307.69305576665624 27.05126607836774
    vertex 101.06423077134092 307.77612366790663 27.304045821783237
  endloop
endfacet
facet normal 0.793353340291233 0.6087614290087239 -1.4106127877082875e-16
  outer loop
    vertex 101.10239425365714 307.72638804943614 30.401449107922968
    vertex 101.06423077134092 307.77612366790663 27.304045821783237
    vertex 100.51167385683122 308.4962298588345 30.529199999999992
  endloop
endfacet
facet normal 0.793353340291233 0.6087614290087239 -1.4106127877082875e-16
  outer loop
    vertex 100.51167385683122 308.4962298588345 30.529199999999992
    vertex 101.06423077134092 307.77612366790663 27.304045821783237
    vertex 100.9628346882964 307.90826561603694 27.5211127084707
  endloop
endfacet
facet normal 0.793353340291233 0.6087614290087239 -1.4106127877082875e-16
  outer loop
    vertex 100.51167385683122 308.4962298588345 30.529199999999992
    vertex 100.9628346882964 307.90826561603694 27.5211127084707
    vertex 100.83069274016599 308.08047635565714 27.687673988822635
  endloop
endfacet
facet normal 0.793353340291233 0.6087614290087239 -1.4106127877082875e-16
  outer loop
    vertex 100.51167385683122 308.4962298588345 30.529199999999992
    vertex 100.83069274016599 308.08047635565714 27.687673988822635
    vertex 100.67681018233996 308.2810200094537 27.79237878683849
  endloop
endfacet
facet normal 0.793353340291233 0.6087614290087239 -1.4106127877082875e-16
  outer loop
    vertex 100.51167385683122 308.4962298588345 30.529199999999992
    vertex 100.67681018233996 308.2810200094537 27.79237878683849
    vertex 100.51167385683121 308.4962298588345 27.828091643566342
  endloop
endfacet
facet normal 0.793353340291233 0.6087614290087239 -1.4106127877082875e-16
  outer loop
    vertex 100.51167385683122 308.4962298588345 30.529199999999992
    vertex 100.51167385683121 308.4962298588345 27.828091643566342
    vertex 100.34653753132248 308.71143970821527 27.79237878683849
  endloop
endfacet
facet normal 0.793353340291233 0.6087614290087239 -1.4106127877082875e-16
  outer loop
    vertex 100.51167385683122 308.4962298588345 30.529199999999992
    vertex 100.34653753132248 308.71143970821527 27.79237878683849
    vertex 99.92095346000531 309.2660716682328 30.401449107922968
  endloop
endfacet
facet normal 0.793353340291233 0.6087614290087239 -1.4106127877082875e-16
  outer loop
    vertex 99.92095346000531 309.2660716682328 30.401449107922968
    vertex 100.34653753132248 308.71143970821527 27.79237878683849
    vertex 100.19265497349647 308.9119833620118 27.687673988822663
  endloop
endfacet
facet normal 0.793353340291233 0.6087614290087239 -1.4106127877082875e-16
  outer loop
    vertex 99.92095346000531 309.2660716682328 30.401449107922968
    vertex 100.19265497349647 308.9119833620118 27.687673988822663
    vertex 100.06051302536602 309.0841941016321 27.521112708470664
  endloop
endfacet
facet normal 0.793353340291233 0.6087614290087239 -1.4106127877082875e-16
  outer loop
    vertex 99.92095346000531 309.2660716682328 30.401449107922968
    vertex 100.06051302536602 309.0841941016321 27.521112708470664
    vertex 99.95911694232154 309.2163360497624 27.304045821783223
  endloop
endfacet
facet normal 0.793353340291233 0.6087614290087239 -1.4106127877082875e-16
  outer loop
    vertex 99.92095346000531 309.2660716682328 30.401449107922968
    vertex 99.95911694232154 309.2163360497624 27.304045821783223
    vertex 99.8953766998573 309.2994039510128 27.05126607836774
  endloop
endfacet
facet normal 0.793353340291233 0.6087614290087239 -1.4106127877082875e-16
  outer loop
    vertex 99.92095346000531 309.2660716682328 30.401449107922968
    vertex 99.8953766998573 309.2994039510128 27.05126607836774
    vertex 99.37048968201147 309.9834500305444 30.026902443868615
  endloop
endfacet
facet normal 0.793353340291233 0.6087614290087239 -1.4106127877082875e-16
  outer loop
    vertex 99.37048968201147 309.9834500305444 30.026902443868615
    vertex 99.8953766998573 309.2994039510128 27.05126607836774
    vertex 99.87363609016167 309.3277368651892 26.780000000000005
  endloop
endfacet
facet normal 0.793353340291233 0.6087614290087239 -1.4106127877082875e-16
  outer loop
    vertex 99.37048968201147 309.9834500305444 30.026902443868615
    vertex 99.87363609016167 309.3277368651892 26.780000000000005
    vertex 99.37048968201147 309.9834500305444 23.533097556131395
  endloop
endfacet
facet normal 0.793353340291233 0.6087614290087239 -1.4106127877082875e-16
  outer loop
    vertex 99.37048968201147 309.9834500305444 30.026902443868615
    vertex 99.37048968201147 309.9834500305444 23.533097556131395
    vertex 98.89779571963558 310.5994767959015 24.128915255975407
  endloop
endfacet
facet normal 0.793353340291233 0.6087614290087239 -1.4106127877082875e-16
  outer loop
    vertex 99.37048968201147 309.9834500305444 30.026902443868615
    vertex 98.89779571963558 310.5994767959015 24.128915255975407
    vertex 98.8977957196356 310.5994767959015 29.431084744024602
  endloop
endfacet
facet normal 0.793353340291233 0.6087614290087239 -1.4106127877082875e-16
  outer loop
    vertex 98.8977957196356 310.5994767959015 29.431084744024602
    vertex 98.89779571963558 310.5994767959015 24.128915255975407
    vertex 98.53508488524984 311.0721707582774 24.90540000000001
  endloop
endfacet
facet normal 0.793353340291233 0.6087614290087239 -1.4106127877082875e-16
  outer loop
    vertex 98.8977957196356 310.5994767959015 29.431084744024602
    vertex 98.53508488524984 311.0721707582774 24.90540000000001
    vertex 98.53508488524984 311.0721707582774 28.6546
  endloop
endfacet
facet normal 0.793353340291233 0.6087614290087239 -1.4106127877082875e-16
  outer loop
    vertex 98.53508488524984 311.0721707582774 28.6546
    vertex 98.53508488524984 311.0721707582774 24.90540000000001
    vertex 98.30707532280967 311.3693186052999 25.80963563610164
  endloop
endfacet
facet normal 0.793353340291233 0.6087614290087239 -1.4106127877082875e-16
  outer loop
    vertex 98.53508488524984 311.0721707582774 28.6546
    vertex 98.30707532280967 311.3693186052999 25.80963563610164
    vertex 98.30707532280967 311.3693186052999 27.750364363898374
  endloop
endfacet
facet normal 0.793353340291233 0.6087614290087239 -1.4106127877082875e-16
  outer loop
    vertex 98.30707532280967 311.3693186052999 27.750364363898374
    vertex 98.30707532280967 311.3693186052999 25.80963563610164
    vertex 98.22930550719173 311.4706702022544 26.780000000000005
  endloop
endfacet
facet normal 0.9914448613738104 -0.13052619222005143 0.0
  outer loop
    vertex 45.96046138836679 293.4176123048074 0.0
    vertex 45.04795501638803 286.48643827696185 53.56000000000001
    vertex 45.04795501638803 286.48643827696185 0.0
  endloop
endfacet
facet normal 0.9914448613738104 -0.13052619222005143 0.0
  outer loop
    vertex 45.04795501638803 286.48643827696185 53.56000000000001
    vertex 45.96046138836679 293.4176123048074 0.0
    vertex 45.96046138836679 293.4176123048074 53.56000000000001
  endloop
endfacet
facet normal -0.3705904774487462 0.48296291314453893 0.7933533402912293
  outer loop
    vertex 95.12128919141163 306.72292381677374 30.026902443868615
    vertex 98.8977957196356 310.5994767959015 29.431084744024602
    vertex 94.64859522903575 307.33895058213085 29.431084744024602
  endloop
endfacet
facet normal -0.3705904774487462 0.48296291314453893 0.7933533402912293
  outer loop
    vertex 98.8977957196356 310.5994767959015 29.431084744024602
    vertex 95.12128919141163 306.72292381677374 30.026902443868615
    vertex 99.37048968201147 309.9834500305444 30.026902443868615
  endloop
endfacet
facet normal 0.9914448613738106 0.1305261922200506 0.0
  outer loop
    vertex 45.04795501638803 286.48643827696185 0.0
    vertex 45.960461388366774 279.5552642491163 53.56000000000001
    vertex 45.960461388366774 279.5552642491163 0.0
  endloop
endfacet
facet normal 0.9914448613738106 0.1305261922200506 0.0
  outer loop
    vertex 45.960461388366774 279.5552642491163 53.56000000000001
    vertex 45.04795501638803 286.48643827696185 0.0
    vertex 45.04795501638803 286.48643827696185 53.56000000000001
  endloop
endfacet
facet normal -0.23296291314453663 0.3036031793409599 0.9238795325112859
  outer loop
    vertex 95.67175296940547 306.00554545446215 30.401449107922968
    vertex 99.37048968201147 309.9834500305444 30.026902443868615
    vertex 95.12128919141163 306.72292381677374 30.026902443868615
  endloop
endfacet
facet normal -0.23296291314453663 0.3036031793409599 0.9238795325112859
  outer loop
    vertex 99.37048968201147 309.9834500305444 30.026902443868615
    vertex 95.67175296940547 306.00554545446215 30.401449107922968
    vertex 99.92095346000531 309.2660716682328 30.401449107922968
  endloop
endfacet
facet normal 0.48296291314453 -0.6294095225512495 0.6087614290087352
  outer loop
    vertex 102.12555199402686 306.39298292176744 29.4310847440246
    vertex 98.23906233781275 302.65976274562087 28.65459999999999
    vertex 102.48826282841259 305.9202889593916 28.65459999999999
  endloop
endfacet
facet normal 0.48296291314453 -0.6294095225512495 0.6087614290087352
  outer loop
    vertex 98.23906233781275 302.65976274562087 28.65459999999999
    vertex 102.12555199402686 306.39298292176744 29.4310847440246
    vertex 97.87635150342702 303.13245670799677 29.4310847440246
  endloop
endfacet
facet normal -0.6035533905932818 0.7865660924854972 -0.13052619221998935
  outer loop
    vertex 96.8787705232053 304.4325295528855 27.05126607836774
    vertex 101.14971162350078 307.6647228524798 26.780000000000005
    vertex 96.90051113290093 304.4041966387091 26.780000000000005
  endloop
endfacet
facet normal -0.6035533905932818 0.7865660924854972 -0.13052619221998935
  outer loop
    vertex 101.14971162350078 307.6647228524798 26.780000000000005
    vertex 96.8787705232053 304.4325295528855 27.05126607836774
    vertex 101.12797101380515 307.69305576665624 27.05126607836774
  endloop
endfacet
facet normal -0.07945931129893306 0.1035533905932564 -0.9914448613738133
  outer loop
    vertex 100.51167385683121 308.4962298588345 27.828091643566342
    vertex 96.42760969174013 305.020493795683 27.79237878683849
    vertex 96.26247336623136 305.2357036450638 27.828091643566342
  endloop
endfacet
facet normal -0.07945931129893306 0.1035533905932564 -0.9914448613738133
  outer loop
    vertex 96.42760969174013 305.020493795683 27.79237878683849
    vertex 100.51167385683121 308.4962298588345 27.828091643566342
    vertex 100.67681018233996 308.2810200094537 27.79237878683849
  endloop
endfacet
facet normal -0.5624222244434851 0.7329629131445353 0.3826834323650795
  outer loop
    vertex 94.28588439465001 307.81164454450675 28.6546
    vertex 98.30707532280967 311.3693186052999 27.750364363898374
    vertex 94.05787483220982 308.1087923915292 27.750364363898374
  endloop
endfacet
facet normal -0.5624222244434851 0.7329629131445353 0.3826834323650795
  outer loop
    vertex 98.30707532280967 311.3693186052999 27.750364363898374
    vertex 94.28588439465001 307.81164454450675 28.6546
    vertex 98.53508488524984 311.0721707582774 28.6546
  endloop
endfacet
facet normal -0.9238795325112863 0.38268343236509084 0.0
  outer loop
    vertex 44.925049052905216 302.01883827696184 53.56000000000001
    vertex 41.821662407883395 294.52660014926266 0.0
    vertex 41.821662407883395 294.52660014926266 53.56000000000001
  endloop
endfacet
facet normal -0.9238795325112863 0.38268343236509084 0.0
  outer loop
    vertex 41.821662407883395 294.52660014926266 0.0
    vertex 44.925049052905216 302.01883827696184 53.56000000000001
    vertex 44.925049052905216 302.01883827696184 0.0
  endloop
endfacet
facet normal -0.7933533402912354 0.6087614290087203 0.0
  outer loop
    vertex 49.86182428018419 308.4525690131657 53.56000000000001
    vertex 44.925049052905216 302.01883827696184 0.0
    vertex 44.925049052905216 302.01883827696184 53.56000000000001
  endloop
endfacet
facet normal -0.7933533402912354 0.6087614290087203 0.0
  outer loop
    vertex 44.925049052905216 302.01883827696184 0.0
    vertex 49.86182428018419 308.4525690131657 53.56000000000001
    vertex 49.86182428018419 308.4525690131657 0.0
  endloop
endfacet
facet normal -0.38268343236508984 0.9238795325112867 0.0
  outer loop
    vertex 56.295555016388064 313.38934424044464 53.56000000000001
    vertex 63.787793144087274 316.4927308854665 0.0
    vertex 56.295555016388064 313.38934424044464 0.0
  endloop
endfacet
facet normal -0.38268343236508984 0.9238795325112867 0.0
  outer loop
    vertex 63.787793144087274 316.4927308854665 0.0
    vertex 56.295555016388064 313.38934424044464 53.56000000000001
    vertex 63.787793144087274 316.4927308854665 53.56000000000001
  endloop
endfacet
facet normal 0.13052619222005205 0.9914448613738104 0.0
  outer loop
    vertex 71.82795501638803 317.55123827696184 53.56000000000001
    vertex 79.86811688868885 316.4927308854665 0.0
    vertex 71.82795501638803 317.55123827696184 0.0
  endloop
endfacet
facet normal 0.13052619222005205 0.9914448613738104 0.0
  outer loop
    vertex 79.86811688868885 316.4927308854665 0.0
    vertex 71.82795501638803 317.55123827696184 53.56000000000001
    vertex 79.86811688868885 316.4927308854665 53.56000000000001
  endloop
endfacet
facet normal 0.6087614290087192 0.7933533402912364 0.0
  outer loop
    vertex 87.36035501638804 313.38934424044464 53.56000000000001
    vertex 93.7940857525919 308.4525690131657 0.0
    vertex 87.36035501638804 313.38934424044464 0.0
  endloop
endfacet
facet normal 0.6087614290087192 0.7933533402912364 0.0
  outer loop
    vertex 93.7940857525919 308.4525690131657 0.0
    vertex 87.36035501638804 313.38934424044464 53.56000000000001
    vertex 93.7940857525919 308.4525690131657 26.780000000000005
  endloop
endfacet
facet normal 0.6087614290087192 0.7933533402912364 0.0
  outer loop
    vertex 93.7940857525919 308.4525690131657 26.780000000000005
    vertex 87.36035501638804 313.38934424044464 53.56000000000001
    vertex 93.7940857525919 308.4525690131657 53.56000000000001
  endloop
endfacet
facet normal -0.13052619222004888 -0.9914448613738108 -0.0
  outer loop
    vertex 78.75912904423356 312.3539319049831 53.56000000000001
    vertex 71.82795501638803 313.2664382769618 0.0
    vertex 78.75912904423356 312.3539319049831 0.0
  endloop
endfacet
facet normal -0.13052619222004888 -0.9914448613738108 -0.0
  outer loop
    vertex 71.82795501638803 313.2664382769618 0.0
    vertex 78.75912904423356 312.3539319049831 53.56000000000001
    vertex 71.82795501638803 313.2664382769618 53.56000000000001
  endloop
endfacet
facet normal -0.9914448613738104 -0.1305261922200521 -0.0
  outer loop
    vertex 40.76315501638804 286.48643827696185 53.56000000000001
    vertex 41.82166240788339 278.4462764046611 0.0
    vertex 41.82166240788339 278.4462764046611 53.56000000000001
  endloop
endfacet
facet normal -0.9914448613738104 -0.1305261922200521 -0.0
  outer loop
    vertex 41.82166240788339 278.4462764046611 0.0
    vertex 40.76315501638804 286.48643827696185 53.56000000000001
    vertex 40.76315501638804 286.48643827696185 0.0
  endloop
endfacet
facet normal 0.13052619222004933 -0.9914448613738108 0.0
  outer loop
    vertex 71.82795501638803 313.2664382769618 53.56000000000001
    vertex 64.89678098854253 312.3539319049831 0.0
    vertex 71.82795501638803 313.2664382769618 0.0
  endloop
endfacet
facet normal 0.13052619222004933 -0.9914448613738108 0.0
  outer loop
    vertex 64.89678098854253 312.3539319049831 0.0
    vertex 71.82795501638803 313.2664382769618 53.56000000000001
    vertex 64.89678098854253 312.3539319049831 53.56000000000001
  endloop
endfacet
facet normal -0.7933533402912346 -0.6087614290087215 -0.0
  outer loop
    vertex 90.76427461656378 305.42275787713754 53.56000000000001
    vertex 95.02011532973532 299.87643827696184 0.0
    vertex 95.02011532973532 299.87643827696184 53.56000000000001
  endloop
endfacet
facet normal -0.7933533402912346 -0.6087614290087215 -0.0
  outer loop
    vertex 95.02011532973532 299.87643827696184 0.0
    vertex 90.76427461656378 305.42275787713754 53.56000000000001
    vertex 90.76427461656378 305.42275787713754 0.0
  endloop
endfacet
facet normal -0.6087614290087184 0.7933533402912369 0.0
  outer loop
    vertex 49.86182428018419 308.4525690131657 53.56000000000001
    vertex 56.295555016388064 313.38934424044464 0.0
    vertex 49.86182428018419 308.4525690131657 0.0
  endloop
endfacet
facet normal -0.6087614290087184 0.7933533402912369 0.0
  outer loop
    vertex 56.295555016388064 313.38934424044464 0.0
    vertex 49.86182428018419 308.4525690131657 53.56000000000001
    vertex 56.295555016388064 313.38934424044464 53.56000000000001
  endloop
endfacet
facet normal 0.7933533402912342 0.6087614290087221 3.1057320845433114e-16
  outer loop
    vertex 98.54484171587087 302.2612633016439 26.780000000000005
    vertex 98.73086097987087 302.01883827696184 53.56000000000001
    vertex 98.73086097987087 302.01883827696184 26.780000000000005
  endloop
endfacet
facet normal 0.7933533402912342 0.6087614290087221 3.1057320845433114e-16
  outer loop
    vertex 98.73086097987087 302.01883827696184 53.56000000000001
    vertex 98.54484171587087 302.2612633016439 26.780000000000005
    vertex 98.46707190025295 302.3626148985984 27.75036436389837
  endloop
endfacet
facet normal 0.7933533402912342 0.6087614290087221 3.1057320845433114e-16
  outer loop
    vertex 98.73086097987087 302.01883827696184 53.56000000000001
    vertex 98.46707190025295 302.3626148985984 27.75036436389837
    vertex 93.7940857525919 308.4525690131657 53.56000000000001
  endloop
endfacet
facet normal 0.7933533402912342 0.6087614290087221 3.1057320845433114e-16
  outer loop
    vertex 93.7940857525919 308.4525690131657 53.56000000000001
    vertex 98.46707190025295 302.3626148985984 27.75036436389837
    vertex 98.23906233781275 302.65976274562087 28.65459999999999
  endloop
endfacet
facet normal 0.7933533402912342 0.6087614290087221 3.1057320845433114e-16
  outer loop
    vertex 93.7940857525919 308.4525690131657 53.56000000000001
    vertex 98.23906233781275 302.65976274562087 28.65459999999999
    vertex 97.87635150342702 303.13245670799677 29.4310847440246
  endloop
endfacet
facet normal 0.7933533402912342 0.6087614290087221 3.1057320845433114e-16
  outer loop
    vertex 93.7940857525919 308.4525690131657 53.56000000000001
    vertex 97.87635150342702 303.13245670799677 29.4310847440246
    vertex 97.40365754105113 303.7484834733539 30.026902443868607
  endloop
endfacet
facet normal 0.7933533402912342 0.6087614290087221 3.1057320845433114e-16
  outer loop
    vertex 93.7940857525919 308.4525690131657 53.56000000000001
    vertex 97.40365754105113 303.7484834733539 30.026902443868607
    vertex 96.85319376305729 304.46586183566546 30.401449107922968
  endloop
endfacet
facet normal 0.7933533402912342 0.6087614290087221 3.1057320845433114e-16
  outer loop
    vertex 93.7940857525919 308.4525690131657 53.56000000000001
    vertex 96.85319376305729 304.46586183566546 30.401449107922968
    vertex 96.26247336623138 305.2357036450638 30.529199999999992
  endloop
endfacet
facet normal 0.7933533402912342 0.6087614290087221 3.1057320845433114e-16
  outer loop
    vertex 93.7940857525919 308.4525690131657 53.56000000000001
    vertex 96.26247336623138 305.2357036450638 30.529199999999992
    vertex 95.67175296940547 306.00554545446215 30.401449107922968
  endloop
endfacet
facet normal 0.7933533402912342 0.6087614290087221 3.1057320845433114e-16
  outer loop
    vertex 93.7940857525919 308.4525690131657 53.56000000000001
    vertex 95.67175296940547 306.00554545446215 30.401449107922968
    vertex 95.12128919141163 306.72292381677374 30.026902443868615
  endloop
endfacet
facet normal 0.7933533402912342 0.6087614290087221 3.1057320845433114e-16
  outer loop
    vertex 93.7940857525919 308.4525690131657 53.56000000000001
    vertex 95.12128919141163 306.72292381677374 30.026902443868615
    vertex 94.64859522903575 307.33895058213085 29.431084744024602
  endloop
endfacet
facet normal 0.7933533402912342 0.6087614290087221 3.1057320845433114e-16
  outer loop
    vertex 93.7940857525919 308.4525690131657 53.56000000000001
    vertex 94.64859522903575 307.33895058213085 29.431084744024602
    vertex 94.28588439465001 307.81164454450675 28.6546
  endloop
endfacet
facet normal 0.7933533402912342 0.6087614290087221 3.1057320845433114e-16
  outer loop
    vertex 93.7940857525919 308.4525690131657 53.56000000000001
    vertex 94.28588439465001 307.81164454450675 28.6546
    vertex 94.05787483220982 308.1087923915292 27.750364363898374
  endloop
endfacet
facet normal 0.7933533402912342 0.6087614290087221 3.1057320845433114e-16
  outer loop
    vertex 93.7940857525919 308.4525690131657 53.56000000000001
    vertex 94.05787483220982 308.1087923915292 27.750364363898374
    vertex 93.98010501659188 308.2101439884837 26.780000000000005
  endloop
endfacet
facet normal 0.7933533402912342 0.6087614290087221 3.1057320845433114e-16
  outer loop
    vertex 93.7940857525919 308.4525690131657 53.56000000000001
    vertex 93.98010501659188 308.2101439884837 26.780000000000005
    vertex 93.7940857525919 308.4525690131657 26.780000000000005
  endloop
endfacet
facet normal -0.9238795325112874 -0.3826834323650882 0.0
  outer loop
    vertex 41.82166240788339 278.4462764046611 53.56000000000001
    vertex 44.9250490529052 270.95403827696185 0.0
    vertex 44.9250490529052 270.95403827696185 53.56000000000001
  endloop
endfacet
facet normal -0.9238795325112874 -0.3826834323650882 0.0
  outer loop
    vertex 44.9250490529052 270.95403827696185 0.0
    vertex 41.82166240788339 278.4462764046611 53.56000000000001
    vertex 41.82166240788339 278.4462764046611 0.0
  endloop
endfacet
facet normal -0.6087614290087222 -0.7933533402912338 -0.0
  outer loop
    vertex 90.76427461656378 305.42275787713754 53.56000000000001
    vertex 85.21795501638805 309.6785985903091 0.0
    vertex 90.76427461656378 305.42275787713754 0.0
  endloop
endfacet
facet normal -0.6087614290087222 -0.7933533402912338 -0.0
  outer loop
    vertex 85.21795501638805 309.6785985903091 0.0
    vertex 90.76427461656378 305.42275787713754 53.56000000000001
    vertex 85.21795501638805 309.6785985903091 53.56000000000001
  endloop
endfacet
facet normal 0.6087614290087215 -0.7933533402912346 0.0
  outer loop
    vertex 58.437955016388024 309.6785985903091 53.56000000000001
    vertex 52.89163541621229 305.42275787713754 0.0
    vertex 58.437955016388024 309.6785985903091 0.0
  endloop
endfacet
facet normal 0.6087614290087215 -0.7933533402912346 0.0
  outer loop
    vertex 52.89163541621229 305.42275787713754 0.0
    vertex 58.437955016388024 309.6785985903091 53.56000000000001
    vertex 52.89163541621229 305.42275787713754 53.56000000000001
  endloop
endfacet
facet normal -0.48296291314452744 0.6294095225512468 0.6087614290087399
  outer loop
    vertex 94.64859522903575 307.33895058213085 29.431084744024602
    vertex 98.53508488524984 311.0721707582774 28.6546
    vertex 94.28588439465001 307.81164454450675 28.6546
  endloop
endfacet
facet normal -0.48296291314452744 0.6294095225512468 0.6087614290087399
  outer loop
    vertex 98.53508488524984 311.0721707582774 28.6546
    vertex 94.64859522903575 307.33895058213085 29.431084744024602
    vertex 98.8977957196356 310.5994767959015 29.431084744024602
  endloop
endfacet
facet normal 0.07945931129894376 -0.10355339059327033 0.9914448613738109
  outer loop
    vertex 96.85319376305729 304.46586183566546 30.401449107922968
    vertex 100.51167385683122 308.4962298588345 30.529199999999992
    vertex 96.26247336623138 305.2357036450638 30.529199999999992
  endloop
endfacet
facet normal 0.07945931129894376 -0.10355339059327033 0.9914448613738109
  outer loop
    vertex 100.51167385683122 308.4962298588345 30.529199999999992
    vertex 96.85319376305729 304.46586183566546 30.401449107922968
    vertex 101.10239425365714 307.72638804943614 30.401449107922968
  endloop
endfacet
facet normal 0.5624222244434851 -0.7329629131445353 0.3826834323650795
  outer loop
    vertex 102.48826282841259 305.9202889593916 28.65459999999999
    vertex 98.46707190025295 302.3626148985984 27.75036436389837
    vertex 102.71627239085278 305.6231411123691 27.75036436389837
  endloop
endfacet
facet normal 0.5624222244434851 -0.7329629131445353 0.3826834323650795
  outer loop
    vertex 98.46707190025295 302.3626148985984 27.75036436389837
    vertex 102.48826282841259 305.9202889593916 28.65459999999999
    vertex 98.23906233781275 302.65976274562087 28.65459999999999
  endloop
endfacet
facet normal -0.48296291314457135 0.6294095225513036 -0.6087614290086465
  outer loop
    vertex 96.71363419769655 304.6477394022662 27.5211127084707
    vertex 101.06423077134092 307.77612366790663 27.304045821783237
    vertex 96.81503028074108 304.5155974541359 27.304045821783237
  endloop
endfacet
facet normal -0.48296291314457135 0.6294095225513036 -0.6087614290086465
  outer loop
    vertex 101.06423077134092 307.77612366790663 27.304045821783237
    vertex 96.71363419769655 304.6477394022662 27.5211127084707
    vertex 100.9628346882964 307.90826561603694 27.5211127084707
  endloop
endfacet
facet normal -0.3705904774487265 0.48296291314451284 -0.7933533402912543
  outer loop
    vertex 100.83069274016599 308.08047635565714 27.687673988822635
    vertex 96.71363419769655 304.6477394022662 27.5211127084707
    vertex 96.58149224956615 304.81995014188647 27.687673988822635
  endloop
endfacet
facet normal -0.3705904774487265 0.48296291314451284 -0.7933533402912543
  outer loop
    vertex 96.71363419769655 304.6477394022662 27.5211127084707
    vertex 100.83069274016599 308.08047635565714 27.687673988822635
    vertex 100.9628346882964 307.90826561603694 27.5211127084707
  endloop
endfacet
facet normal -0.5624222244434631 0.7329629131445067 -0.38268343236516666
  outer loop
    vertex 96.81503028074108 304.5155974541359 27.304045821783237
    vertex 101.12797101380515 307.69305576665624 27.05126607836774
    vertex 96.8787705232053 304.4325295528855 27.05126607836774
  endloop
endfacet
facet normal -0.5624222244434631 0.7329629131445067 -0.38268343236516666
  outer loop
    vertex 101.12797101380515 307.69305576665624 27.05126607836774
    vertex 96.81503028074108 304.5155974541359 27.304045821783237
    vertex 101.06423077134092 307.77612366790663 27.304045821783237
  endloop
endfacet
facet normal 0.37059047744874424 -0.48296291314453593 0.7933533402912321
  outer loop
    vertex 97.87635150342702 303.13245670799677 29.4310847440246
    vertex 101.65285803165098 307.0090096871246 30.026902443868607
    vertex 97.40365754105113 303.7484834733539 30.026902443868607
  endloop
endfacet
facet normal 0.37059047744874424 -0.48296291314453593 0.7933533402912321
  outer loop
    vertex 101.65285803165098 307.0090096871246 30.026902443868607
    vertex 97.87635150342702 303.13245670799677 29.4310847440246
    vertex 102.12555199402686 306.39298292176744 29.4310847440246
  endloop
endfacet
facet normal -0.07945931129894354 0.10355339059327051 0.9914448613738109
  outer loop
    vertex 96.26247336623138 305.2357036450638 30.529199999999992
    vertex 99.92095346000531 309.2660716682328 30.401449107922968
    vertex 95.67175296940547 306.00554545446215 30.401449107922968
  endloop
endfacet
facet normal -0.07945931129894354 0.10355339059327051 0.9914448613738109
  outer loop
    vertex 99.92095346000531 309.2660716682328 30.401449107922968
    vertex 96.26247336623138 305.2357036450638 30.529199999999992
    vertex 100.51167385683122 308.4962298588345 30.529199999999992
  endloop
endfacet
facet normal 0.0794593112989392 -0.10355339059326485 -0.9914448613738118
  outer loop
    vertex 100.34653753132248 308.71143970821527 27.79237878683849
    vertex 96.26247336623136 305.2357036450638 27.828091643566342
    vertex 96.09733704072264 305.4509134944446 27.79237878683849
  endloop
endfacet
facet normal 0.0794593112989392 -0.10355339059326485 -0.9914448613738118
  outer loop
    vertex 96.26247336623136 305.2357036450638 27.828091643566342
    vertex 100.34653753132248 308.71143970821527 27.79237878683849
    vertex 100.51167385683121 308.4962298588345 27.828091643566342
  endloop
endfacet
facet normal 0.2329629131445378 -0.3036031793409614 -0.9238795325112851
  outer loop
    vertex 100.19265497349647 308.9119833620118 27.687673988822663
    vertex 96.09733704072264 305.4509134944446 27.79237878683849
    vertex 95.94345448289664 305.6514571482411 27.687673988822663
  endloop
endfacet
facet normal 0.2329629131445378 -0.3036031793409614 -0.9238795325112851
  outer loop
    vertex 96.09733704072264 305.4509134944446 27.79237878683849
    vertex 100.19265497349647 308.9119833620118 27.687673988822663
    vertex 100.34653753132248 308.71143970821527 27.79237878683849
  endloop
endfacet
facet normal 0.3705904774487381 -0.48296291314452844 -0.7933533402912395
  outer loop
    vertex 100.06051302536602 309.0841941016321 27.521112708470664
    vertex 95.94345448289664 305.6514571482411 27.687673988822663
    vertex 95.81131253476617 305.82366788786135 27.521112708470664
  endloop
endfacet
facet normal 0.3705904774487381 -0.48296291314452844 -0.7933533402912395
  outer loop
    vertex 95.94345448289664 305.6514571482411 27.687673988822663
    vertex 100.06051302536602 309.0841941016321 27.521112708470664
    vertex 100.19265497349647 308.9119833620118 27.687673988822663
  endloop
endfacet
facet normal 0.4829629131445388 -0.6294095225512615 -0.6087614290087158
  outer loop
    vertex 100.06051302536602 309.0841941016321 27.521112708470664
    vertex 95.7099164517217 305.95580983599166 27.304045821783223
    vertex 99.95911694232154 309.2163360497624 27.304045821783223
  endloop
endfacet
facet normal 0.4829629131445388 -0.6294095225512615 -0.6087614290087158
  outer loop
    vertex 95.7099164517217 305.95580983599166 27.304045821783223
    vertex 100.06051302536602 309.0841941016321 27.521112708470664
    vertex 95.81131253476617 305.82366788786135 27.521112708470664
  endloop
endfacet
facet normal 0.0 0.0 1.0
  outer loop
    vertex 41.82166240788339 278.4462764046611 53.56000000000001
    vertex 41.821662407883395 294.52660014926266 53.56000000000001
    vertex 40.76315501638804 286.48643827696185 53.56000000000001
  endloop
endfacet
facet normal 0.0 0.0 1.0
  outer loop
    vertex 41.821662407883395 294.52660014926266 53.56000000000001
    vertex 41.82166240788339 278.4462764046611 53.56000000000001
    vertex 44.9250490529052 270.95403827696185 53.56000000000001
  endloop
endfacet
facet normal 0.0 0.0 1.0
  outer loop
    vertex 41.821662407883395 294.52660014926266 53.56000000000001
    vertex 44.9250490529052 270.95403827696185 53.56000000000001
    vertex 44.925049052905216 302.01883827696184 53.56000000000001
  endloop
endfacet
facet normal 0.0 0.0 1.0
  outer loop
    vertex 44.925049052905216 302.01883827696184 53.56000000000001
    vertex 44.9250490529052 270.95403827696185 53.56000000000001
    vertex 45.04795501638803 286.48643827696185 53.56000000000001
  endloop
endfacet
facet normal 0.0 0.0 1.0
  outer loop
    vertex 45.04795501638803 286.48643827696185 53.56000000000001
    vertex 44.9250490529052 270.95403827696185 53.56000000000001
    vertex 45.960461388366774 279.5552642491163 53.56000000000001
  endloop
endfacet
facet normal 0.0 0.0 1.0
  outer loop
    vertex 45.960461388366774 279.5552642491163 53.56000000000001
    vertex 44.9250490529052 270.95403827696185 53.56000000000001
    vertex 48.63579470304075 273.0964382769618 53.56000000000001
  endloop
endfacet
facet normal 0.0 0.0 1.0
  outer loop
    vertex 44.925049052905216 302.01883827696184 53.56000000000001
    vertex 45.96046138836679 293.4176123048074 53.56000000000001
    vertex 49.86182428018419 308.4525690131657 53.56000000000001
  endloop
endfacet
facet normal 0.0 0.0 1.0
  outer loop
    vertex 45.96046138836679 293.4176123048074 53.56000000000001
    vertex 44.925049052905216 302.01883827696184 53.56000000000001
    vertex 45.04795501638803 286.48643827696185 53.56000000000001
  endloop
endfacet
facet normal 0.0 0.0 1.0
  outer loop
    vertex 49.86182428018419 308.4525690131657 53.56000000000001
    vertex 45.96046138836679 293.4176123048074 53.56000000000001
    vertex 48.63579470304077 299.87643827696184 53.56000000000001
  endloop
endfacet
facet normal 0.0 0.0 1.0
  outer loop
    vertex 49.86182428018419 308.4525690131657 53.56000000000001
    vertex 48.63579470304077 299.87643827696184 53.56000000000001
    vertex 52.89163541621229 305.42275787713754 53.56000000000001
  endloop
endfacet
facet normal 0.0 0.0 1.0
  outer loop
    vertex 49.86182428018419 308.4525690131657 53.56000000000001
    vertex 52.89163541621229 305.42275787713754 53.56000000000001
    vertex 56.295555016388064 313.38934424044464 53.56000000000001
  endloop
endfacet
facet normal 0.0 0.0 1.0
  outer loop
    vertex 56.295555016388064 313.38934424044464 53.56000000000001
    vertex 52.89163541621229 305.42275787713754 53.56000000000001
    vertex 58.437955016388024 309.6785985903091 53.56000000000001
  endloop
endfacet
facet normal 0.0 0.0 1.0
  outer loop
    vertex 56.295555016388064 313.38934424044464 53.56000000000001
    vertex 58.437955016388024 309.6785985903091 53.56000000000001
    vertex 63.787793144087274 316.4927308854665 53.56000000000001
  endloop
endfacet
facet normal 0.0 0.0 1.0
  outer loop
    vertex 63.787793144087274 316.4927308854665 53.56000000000001
    vertex 58.437955016388024 309.6785985903091 53.56000000000001
    vertex 64.89678098854253 312.3539319049831 53.56000000000001
  endloop
endfacet
facet normal 0.0 0.0 1.0
  outer loop
    vertex 63.787793144087274 316.4927308854665 53.56000000000001
    vertex 64.89678098854253 312.3539319049831 53.56000000000001
    vertex 71.82795501638803 317.55123827696184 53.56000000000001
  endloop
endfacet
facet normal 0.0 0.0 1.0
  outer loop
    vertex 71.82795501638803 317.55123827696184 53.56000000000001
    vertex 64.89678098854253 312.3539319049831 53.56000000000001
    vertex 71.82795501638803 313.2664382769618 53.56000000000001
  endloop
endfacet
facet normal 0.0 0.0 1.0
  outer loop
    vertex 71.82795501638803 317.55123827696184 53.56000000000001
    vertex 71.82795501638803 313.2664382769618 53.56000000000001
    vertex 78.75912904423356 312.3539319049831 53.56000000000001
  endloop
endfacet
facet normal 0.0 0.0 1.0
  outer loop
    vertex 71.82795501638803 317.55123827696184 53.56000000000001
    vertex 78.75912904423356 312.3539319049831 53.56000000000001
    vertex 79.86811688868885 316.4927308854665 53.56000000000001
  endloop
endfacet
facet normal 0.0 0.0 1.0
  outer loop
    vertex 79.86811688868885 316.4927308854665 53.56000000000001
    vertex 78.75912904423356 312.3539319049831 53.56000000000001
    vertex 85.21795501638805 309.6785985903091 53.56000000000001
  endloop
endfacet
facet normal 0.0 0.0 1.0
  outer loop
    vertex 79.86811688868885 316.4927308854665 53.56000000000001
    vertex 85.21795501638805 309.6785985903091 53.56000000000001
    vertex 87.36035501638804 313.38934424044464 53.56000000000001
  endloop
endfacet
facet normal 0.0 0.0 1.0
  outer loop
    vertex 87.36035501638804 313.38934424044464 53.56000000000001
    vertex 85.21795501638805 309.6785985903091 53.56000000000001
    vertex 90.76427461656378 305.42275787713754 53.56000000000001
  endloop
endfacet
facet normal 0.0 0.0 1.0
  outer loop
    vertex 87.36035501638804 313.38934424044464 53.56000000000001
    vertex 90.76427461656378 305.42275787713754 53.56000000000001
    vertex 93.7940857525919 308.4525690131657 53.56000000000001
  endloop
endfacet
facet normal 0.0 0.0 1.0
  outer loop
    vertex 93.7940857525919 308.4525690131657 53.56000000000001
    vertex 90.76427461656378 305.42275787713754 53.56000000000001
    vertex 95.02011532973532 299.87643827696184 53.56000000000001
  endloop
endfacet
facet normal 0.0 0.0 1.0
  outer loop
    vertex 93.7940857525919 308.4525690131657 53.56000000000001
    vertex 95.02011532973532 299.87643827696184 53.56000000000001
    vertex 98.73086097987087 302.01883827696184 53.56000000000001
  endloop
endfacet
facet normal 0.9238795325112866 0.3826834323650902 0.0
  outer loop
    vertex 45.960461388366774 279.5552642491163 0.0
    vertex 48.63579470304075 273.0964382769618 53.56000000000001
    vertex 48.63579470304075 273.0964382769618 0.0
  endloop
endfacet
facet normal 0.9238795325112866 0.3826834323650902 0.0
  outer loop
    vertex 48.63579470304075 273.0964382769618 53.56000000000001
    vertex 45.960461388366774 279.5552642491163 0.0
    vertex 45.960461388366774 279.5552642491163 53.56000000000001
  endloop
endfacet
facet normal -0.13052619222005282 0.9914448613738102 0.0
  outer loop
    vertex 63.787793144087274 316.4927308854665 53.56000000000001
    vertex 71.82795501638803 317.55123827696184 0.0
    vertex 63.787793144087274 316.4927308854665 0.0
  endloop
endfacet
facet normal -0.13052619222005282 0.9914448613738102 0.0
  outer loop
    vertex 71.82795501638803 317.55123827696184 0.0
    vertex 63.787793144087274 316.4927308854665 53.56000000000001
    vertex 71.82795501638803 317.55123827696184 53.56000000000001
  endloop
endfacet
facet normal 0.5000000000000003 -0.8660254037844385 0.0
  outer loop
    vertex 98.73086097987087 302.01883827696184 26.780000000000005
    vertex 95.02011532973532 299.87643827696184 0.0
    vertex 98.73086097987087 302.01883827696184 0.0
  endloop
endfacet
facet normal 0.5000000000000003 -0.8660254037844385 0.0
  outer loop
    vertex 95.02011532973532 299.87643827696184 0.0
    vertex 98.73086097987087 302.01883827696184 26.780000000000005
    vertex 95.02011532973532 299.87643827696184 53.56000000000001
  endloop
endfacet
facet normal 0.5000000000000003 -0.8660254037844385 0.0
  outer loop
    vertex 95.02011532973532 299.87643827696184 53.56000000000001
    vertex 98.73086097987087 302.01883827696184 26.780000000000005
    vertex 98.73086097987087 302.01883827696184 53.56000000000001
  endloop
endfacet
facet normal 0.3826834323650905 -0.9238795325112865 0.0
  outer loop
    vertex 64.89678098854253 312.3539319049831 53.56000000000001
    vertex 58.437955016388024 309.6785985903091 0.0
    vertex 64.89678098854253 312.3539319049831 0.0
  endloop
endfacet
facet normal 0.3826834323650905 -0.9238795325112865 0.0
  outer loop
    vertex 58.437955016388024 309.6785985903091 0.0
    vertex 64.89678098854253 312.3539319049831 53.56000000000001
    vertex 58.437955016388024 309.6785985903091 53.56000000000001
  endloop
endfacet
facet normal 0.23296291314453998 -0.3036031793409638 0.9238795325112836
  outer loop
    vertex 97.40365754105113 303.7484834733539 30.026902443868607
    vertex 101.10239425365714 307.72638804943614 30.401449107922968
    vertex 96.85319376305729 304.46586183566546 30.401449107922968
  endloop
endfacet
facet normal 0.23296291314453998 -0.3036031793409638 0.9238795325112836
  outer loop
    vertex 101.10239425365714 307.72638804943614 30.401449107922968
    vertex 97.40365754105113 303.7484834733539 30.026902443868607
    vertex 101.65285803165098 307.0090096871246 30.026902443868607
  endloop
endfacet
facet normal -0.23296291314454792 0.30360317934097425 -0.9238795325112782
  outer loop
    vertex 100.67681018233996 308.2810200094537 27.79237878683849
    vertex 96.58149224956615 304.81995014188647 27.687673988822635
    vertex 96.42760969174013 305.020493795683 27.79237878683849
  endloop
endfacet
facet normal -0.23296291314454792 0.30360317934097425 -0.9238795325112782
  outer loop
    vertex 96.58149224956615 304.81995014188647 27.687673988822635
    vertex 100.67681018233996 308.2810200094537 27.79237878683849
    vertex 100.83069274016599 308.08047635565714 27.687673988822635
  endloop
endfacet
facet normal 0.5624222244434808 -0.7329629131445294 -0.3826834323650973
  outer loop
    vertex 99.95911694232154 309.2163360497624 27.304045821783223
    vertex 95.64617620925745 306.0388777372421 27.05126607836774
    vertex 99.8953766998573 309.2994039510128 27.05126607836774
  endloop
endfacet
facet normal 0.5624222244434808 -0.7329629131445294 -0.3826834323650973
  outer loop
    vertex 95.64617620925745 306.0388777372421 27.05126607836774
    vertex 99.95911694232154 309.2163360497624 27.304045821783223
    vertex 95.7099164517217 305.95580983599166 27.304045821783223
  endloop
endfacet
facet normal -0.6035533905932772 0.7865660924854909 0.1305261922200487
  outer loop
    vertex 94.05787483220982 308.1087923915292 27.750364363898374
    vertex 98.22930550719173 311.4706702022544 26.780000000000005
    vertex 93.98010501659188 308.2101439884837 26.780000000000005
  endloop
endfacet
facet normal -0.6035533905932772 0.7865660924854909 0.1305261922200487
  outer loop
    vertex 98.22930550719173 311.4706702022544 26.780000000000005
    vertex 94.05787483220982 308.1087923915292 27.750364363898374
    vertex 98.30707532280967 311.3693186052999 27.750364363898374
  endloop
endfacet
facet normal 0.3826834323650903 0.9238795325112864 0.0
  outer loop
    vertex 79.86811688868885 316.4927308854665 53.56000000000001
    vertex 87.36035501638804 313.38934424044464 0.0
    vertex 79.86811688868885 316.4927308854665 0.0
  endloop
endfacet
facet normal 0.3826834323650903 0.9238795325112864 0.0
  outer loop
    vertex 87.36035501638804 313.38934424044464 0.0
    vertex 79.86811688868885 316.4927308854665 53.56000000000001
    vertex 87.36035501638804 313.38934424044464 53.56000000000001
  endloop
endfacet
facet normal -0.38268343236509106 -0.9238795325112862 -0.0
  outer loop
    vertex 85.21795501638805 309.6785985903091 53.56000000000001
    vertex 78.75912904423356 312.3539319049831 0.0
    vertex 85.21795501638805 309.6785985903091 0.0
  endloop
endfacet
facet normal -0.38268343236509106 -0.9238795325112862 -0.0
  outer loop
    vertex 78.75912904423356 312.3539319049831 0.0
    vertex 85.21795501638805 309.6785985903091 53.56000000000001
    vertex 78.75912904423356 312.3539319049831 53.56000000000001
  endloop
endfacet
facet normal 0.5000000000000003 -0.8660254037844385 0.0
  outer loop
    vertex 48.63579470304075 273.0964382769618 53.56000000000001
    vertex 44.9250490529052 270.95403827696185 0.0
    vertex 48.63579470304075 273.0964382769618 0.0
  endloop
endfacet
facet normal 0.5000000000000003 -0.8660254037844385 0.0
  outer loop
    vertex 44.9250490529052 270.95403827696185 0.0
    vertex 48.63579470304075 273.0964382769618 53.56000000000001
    vertex 44.9250490529052 270.95403827696185 53.56000000000001
  endloop
endfacet
facet normal 0.7933533402912355 -0.6087614290087204 0.0
  outer loop
    vertex 52.89163541621229 305.42275787713754 0.0
    vertex 48.63579470304077 299.87643827696184 53.56000000000001
    vertex 48.63579470304077 299.87643827696184 0.0
  endloop
endfacet
facet normal 0.7933533402912355 -0.6087614290087204 0.0
  outer loop
    vertex 48.63579470304077 299.87643827696184 53.56000000000001
    vertex 52.89163541621229 305.42275787713754 0.0
    vertex 52.89163541621229 305.42275787713754 53.56000000000001
  endloop
endfacet
facet normal 0.9238795325112862 -0.382683432365091 0.0
  outer loop
    vertex 48.63579470304077 299.87643827696184 0.0
    vertex 45.96046138836679 293.4176123048074 53.56000000000001
    vertex 45.96046138836679 293.4176123048074 0.0
  endloop
endfacet
facet normal 0.9238795325112862 -0.382683432365091 0.0
  outer loop
    vertex 45.96046138836679 293.4176123048074 53.56000000000001
    vertex 48.63579470304077 299.87643827696184 0.0
    vertex 48.63579470304077 299.87643827696184 53.56000000000001
  endloop
endfacet
facet normal -0.9914448613738104 0.13052619222005205 0.0
  outer loop
    vertex 41.821662407883395 294.52660014926266 53.56000000000001
    vertex 40.76315501638804 286.48643827696185 0.0
    vertex 40.76315501638804 286.48643827696185 53.56000000000001
  endloop
endfacet
facet normal -0.9914448613738104 0.13052619222005205 0.0
  outer loop
    vertex 40.76315501638804 286.48643827696185 0.0
    vertex 41.821662407883395 294.52660014926266 53.56000000000001
    vertex 41.821662407883395 294.52660014926266 0.0
  endloop
endfacet
facet normal 0.5624222244434652 -0.7329629131445092 0.38268343236515884
  outer loop
    vertex 99.8953766998573 309.2994039510128 26.508733921632263
    vertex 95.70991645172168 305.95580983599166 26.255954178216758
    vertex 99.95911694232153 309.2163360497624 26.255954178216758
  endloop
endfacet
facet normal 0.5624222244434652 -0.7329629131445092 0.38268343236515884
  outer loop
    vertex 95.70991645172168 305.95580983599166 26.255954178216758
    vertex 99.8953766998573 309.2994039510128 26.508733921632263
    vertex 95.64617620925745 306.0388777372421 26.508733921632263
  endloop
endfacet
facet normal 0.23296291314452347 -0.3036031793409423 0.923879532511295
  outer loop
    vertex 96.09733704072262 305.4509134944446 25.767621213161515
    vertex 100.19265497349645 308.9119833620119 25.87232601117738
    vertex 95.9434544828966 305.65145714824115 25.87232601117738
  endloop
endfacet
facet normal 0.23296291314452347 -0.3036031793409423 0.923879532511295
  outer loop
    vertex 100.19265497349645 308.9119833620119 25.87232601117738
    vertex 96.09733704072262 305.4509134944446 25.767621213161515
    vertex 100.34653753132247 308.71143970821527 25.767621213161515
  endloop
endfacet
facet normal 0.37059047744872176 -0.48296291314450673 0.7933533402912604
  outer loop
    vertex 95.9434544828966 305.65145714824115 25.87232601117738
    vertex 100.06051302536605 309.0841941016321 26.03888729152931
    vertex 95.8113125347662 305.82366788786135 26.03888729152931
  endloop
endfacet
facet normal 0.37059047744872176 -0.48296291314450673 0.7933533402912604
  outer loop
    vertex 100.06051302536605 309.0841941016321 26.03888729152931
    vertex 95.9434544828966 305.65145714824115 25.87232601117738
    vertex 100.19265497349645 308.9119833620119 25.87232601117738
  endloop
endfacet
facet normal -0.23296291314454193 0.3036031793409668 0.9238795325112822
  outer loop
    vertex 96.58149224956615 304.81995014188647 25.87232601117737
    vertex 100.67681018233996 308.2810200094537 25.767621213161515
    vertex 96.42760969174012 305.020493795683 25.767621213161515
  endloop
endfacet
facet normal -0.23296291314454193 0.3036031793409668 0.9238795325112822
  outer loop
    vertex 100.67681018233996 308.2810200094537 25.767621213161515
    vertex 96.58149224956615 304.81995014188647 25.87232601117737
    vertex 100.830692740166 308.08047635565714 25.87232601117737
  endloop
endfacet
facet normal 0.6035533905932821 -0.7865660924854976 -0.13052619221998654
  outer loop
    vertex 99.8953766998573 309.2994039510128 27.05126607836774
    vertex 95.62443559956182 306.06721065141846 26.780000000000005
    vertex 99.87363609016167 309.3277368651892 26.780000000000005
  endloop
endfacet
facet normal 0.6035533905932821 -0.7865660924854976 -0.13052619221998654
  outer loop
    vertex 95.62443559956182 306.06721065141846 26.780000000000005
    vertex 99.8953766998573 309.2994039510128 27.05126607836774
    vertex 95.64617620925745 306.0388777372421 27.05126607836774
  endloop
endfacet
facet normal -0.5624222244434877 0.7329629131445384 0.3826834323650699
  outer loop
    vertex 96.8787705232053 304.4325295528855 26.508733921632263
    vertex 101.0642307713409 307.77612366790663 26.255954178216765
    vertex 96.81503028074107 304.5155974541359 26.255954178216765
  endloop
endfacet
facet normal -0.5624222244434877 0.7329629131445384 0.3826834323650699
  outer loop
    vertex 101.0642307713409 307.77612366790663 26.255954178216765
    vertex 96.8787705232053 304.4325295528855 26.508733921632263
    vertex 101.12797101380515 307.69305576665624 26.508733921632263
  endloop
endfacet
facet normal -0.07945931129894579 0.10355339059327344 0.9914448613738104
  outer loop
    vertex 96.42760969174012 305.020493795683 25.767621213161515
    vertex 100.51167385683122 308.4962298588345 25.731908356433664
    vertex 96.2624733662314 305.2357036450638 25.731908356433664
  endloop
endfacet
facet normal -0.07945931129894579 0.10355339059327344 0.9914448613738104
  outer loop
    vertex 100.51167385683122 308.4962298588345 25.731908356433664
    vertex 96.42760969174012 305.020493795683 25.767621213161515
    vertex 100.67681018233996 308.2810200094537 25.767621213161515
  endloop
endfacet
facet normal -0.48296291314452744 0.6294095225512468 0.6087614290087399
  outer loop
    vertex 96.81503028074107 304.5155974541359 26.255954178216765
    vertex 100.96283468829638 307.90826561603694 26.038887291529303
    vertex 96.71363419769654 304.6477394022662 26.038887291529303
  endloop
endfacet
facet normal -0.48296291314452744 0.6294095225512468 0.6087614290087399
  outer loop
    vertex 100.96283468829638 307.90826561603694 26.038887291529303
    vertex 96.81503028074107 304.5155974541359 26.255954178216765
    vertex 101.0642307713409 307.77612366790663 26.255954178216765
  endloop
endfacet
facet normal -0.3705904774487294 0.48296291314451706 0.7933533402912505
  outer loop
    vertex 96.71363419769654 304.6477394022662 26.038887291529303
    vertex 100.830692740166 308.08047635565714 25.87232601117737
    vertex 96.58149224956615 304.81995014188647 25.87232601117737
  endloop
endfacet
facet normal -0.3705904774487294 0.48296291314451706 0.7933533402912505
  outer loop
    vertex 100.830692740166 308.08047635565714 25.87232601117737
    vertex 96.71363419769654 304.6477394022662 26.038887291529303
    vertex 100.96283468829638 307.90826561603694 26.038887291529303
  endloop
endfacet
facet normal 0.0794593112989507 -0.10355339059327939 0.9914448613738095
  outer loop
    vertex 96.2624733662314 305.2357036450638 25.731908356433664
    vertex 100.34653753132247 308.71143970821527 25.767621213161515
    vertex 96.09733704072262 305.4509134944446 25.767621213161515
  endloop
endfacet
facet normal 0.0794593112989507 -0.10355339059327939 0.9914448613738095
  outer loop
    vertex 100.34653753132247 308.71143970821527 25.767621213161515
    vertex 96.2624733662314 305.2357036450638 25.731908356433664
    vertex 100.51167385683122 308.4962298588345 25.731908356433664
  endloop
endfacet
facet normal 0.4829629131445639 -0.6294095225512939 0.6087614290086625
  outer loop
    vertex 99.95911694232153 309.2163360497624 26.255954178216758
    vertex 95.8113125347662 305.82366788786135 26.03888729152931
    vertex 100.06051302536605 309.0841941016321 26.03888729152931
  endloop
endfacet
facet normal 0.4829629131445639 -0.6294095225512939 0.6087614290086625
  outer loop
    vertex 95.8113125347662 305.82366788786135 26.03888729152931
    vertex 99.95911694232153 309.2163360497624 26.255954178216758
    vertex 95.70991645172168 305.95580983599166 26.255954178216758
  endloop
endfacet
facet normal 0.6035533905932821 -0.7865660924854976 0.13052619221998654
  outer loop
    vertex 99.87363609016167 309.3277368651892 26.780000000000005
    vertex 95.64617620925745 306.0388777372421 26.508733921632263
    vertex 99.8953766998573 309.2994039510128 26.508733921632263
  endloop
endfacet
facet normal 0.6035533905932821 -0.7865660924854976 0.13052619221998654
  outer loop
    vertex 95.64617620925745 306.0388777372421 26.508733921632263
    vertex 99.87363609016167 309.3277368651892 26.780000000000005
    vertex 95.62443559956182 306.06721065141846 26.780000000000005
  endloop
endfacet
facet normal -0.6035533905932822 0.7865660924854979 0.13052619221998368
  outer loop
    vertex 96.90051113290093 304.4041966387091 26.780000000000005
    vertex 101.12797101380515 307.69305576665624 26.508733921632263
    vertex 96.8787705232053 304.4325295528855 26.508733921632263
  endloop
endfacet
facet normal -0.6035533905932822 0.7865660924854979 0.13052619221998368
  outer loop
    vertex 101.12797101380515 307.69305576665624 26.508733921632263
    vertex 96.90051113290093 304.4041966387091 26.780000000000005
    vertex 101.14971162350078 307.6647228524798 26.780000000000005
  endloop
endfacet
facet normal 0.0 0.0 -1.0
  outer loop
    vertex 44.925049052905216 302.01883827696184 0.0
    vertex 45.96046138836679 293.4176123048074 0.0
    vertex 45.04795501638803 286.48643827696185 0.0
  endloop
endfacet
facet normal 0.0 0.0 -1.0
  outer loop
    vertex 45.96046138836679 293.4176123048074 0.0
    vertex 44.925049052905216 302.01883827696184 0.0
    vertex 49.86182428018419 308.4525690131657 0.0
  endloop
endfacet
facet normal 0.0 0.0 -1.0
  outer loop
    vertex 45.96046138836679 293.4176123048074 0.0
    vertex 49.86182428018419 308.4525690131657 0.0
    vertex 48.63579470304077 299.87643827696184 0.0
  endloop
endfacet
facet normal 0.0 0.0 -1.0
  outer loop
    vertex 48.63579470304077 299.87643827696184 0.0
    vertex 49.86182428018419 308.4525690131657 0.0
    vertex 52.89163541621229 305.42275787713754 0.0
  endloop
endfacet
facet normal 0.0 0.0 -1.0
  outer loop
    vertex 52.89163541621229 305.42275787713754 0.0
    vertex 49.86182428018419 308.4525690131657 0.0
    vertex 56.295555016388064 313.38934424044464 0.0
  endloop
endfacet
facet normal 0.0 0.0 -1.0
  outer loop
    vertex 52.89163541621229 305.42275787713754 0.0
    vertex 56.295555016388064 313.38934424044464 0.0
    vertex 58.437955016388024 309.6785985903091 0.0
  endloop
endfacet
facet normal 0.0 0.0 -1.0
  outer loop
    vertex 58.437955016388024 309.6785985903091 0.0
    vertex 56.295555016388064 313.38934424044464 0.0
    vertex 63.787793144087274 316.4927308854665 0.0
  endloop
endfacet
facet normal 0.0 0.0 -1.0
  outer loop
    vertex 58.437955016388024 309.6785985903091 0.0
    vertex 63.787793144087274 316.4927308854665 0.0
    vertex 64.89678098854253 312.3539319049831 0.0
  endloop
endfacet
facet normal 0.0 0.0 -1.0
  outer loop
    vertex 64.89678098854253 312.3539319049831 0.0
    vertex 63.787793144087274 316.4927308854665 0.0
    vertex 71.82795501638803 317.55123827696184 0.0
  endloop
endfacet
facet normal 0.0 0.0 -1.0
  outer loop
    vertex 64.89678098854253 312.3539319049831 0.0
    vertex 71.82795501638803 317.55123827696184 0.0
    vertex 71.82795501638803 313.2664382769618 0.0
  endloop
endfacet
facet normal 0.0 0.0 -1.0
  outer loop
    vertex 71.82795501638803 313.2664382769618 0.0
    vertex 71.82795501638803 317.55123827696184 0.0
    vertex 79.86811688868885 316.4927308854665 0.0
  endloop
endfacet
facet normal 0.0 0.0 -1.0
  outer loop
    vertex 71.82795501638803 313.2664382769618 0.0
    vertex 79.86811688868885 316.4927308854665 0.0
    vertex 78.75912904423356 312.3539319049831 0.0
  endloop
endfacet
facet normal 0.0 0.0 -1.0
  outer loop
    vertex 78.75912904423356 312.3539319049831 0.0
    vertex 79.86811688868885 316.4927308854665 0.0
    vertex 85.21795501638805 309.6785985903091 0.0
  endloop
endfacet
facet normal 0.0 0.0 -1.0
  outer loop
    vertex 85.21795501638805 309.6785985903091 0.0
    vertex 79.86811688868885 316.4927308854665 0.0
    vertex 87.36035501638804 313.38934424044464 0.0
  endloop
endfacet
facet normal 0.0 0.0 -1.0
  outer loop
    vertex 85.21795501638805 309.6785985903091 0.0
    vertex 87.36035501638804 313.38934424044464 0.0
    vertex 90.76427461656378 305.42275787713754 0.0
  endloop
endfacet
facet normal 0.0 0.0 -1.0
  outer loop
    vertex 90.76427461656378 305.42275787713754 0.0
    vertex 87.36035501638804 313.38934424044464 0.0
    vertex 93.7940857525919 308.4525690131657 0.0
  endloop
endfacet
facet normal 0.0 0.0 -1.0
  outer loop
    vertex 90.76427461656378 305.42275787713754 0.0
    vertex 93.7940857525919 308.4525690131657 0.0
    vertex 95.02011532973532 299.87643827696184 0.0
  endloop
endfacet
facet normal 0.0 0.0 -1.0
  outer loop
    vertex 95.02011532973532 299.87643827696184 0.0
    vertex 93.7940857525919 308.4525690131657 0.0
    vertex 98.73086097987087 302.01883827696184 0.0
  endloop
endfacet
facet normal 0.0 0.0 -1.0
  outer loop
    vertex 41.821662407883395 294.52660014926266 0.0
    vertex 41.82166240788339 278.4462764046611 0.0
    vertex 40.76315501638804 286.48643827696185 0.0
  endloop
endfacet
facet normal 0.0 0.0 -1.0
  outer loop
    vertex 41.82166240788339 278.4462764046611 0.0
    vertex 41.821662407883395 294.52660014926266 0.0
    vertex 44.9250490529052 270.95403827696185 0.0
  endloop
endfacet
facet normal 0.0 0.0 -1.0
  outer loop
    vertex 44.9250490529052 270.95403827696185 0.0
    vertex 41.821662407883395 294.52660014926266 0.0
    vertex 44.925049052905216 302.01883827696184 0.0
  endloop
endfacet
facet normal 0.0 0.0 -1.0
  outer loop
    vertex 44.9250490529052 270.95403827696185 0.0
    vertex 44.925049052905216 302.01883827696184 0.0
    vertex 45.04795501638803 286.48643827696185 0.0
  endloop
endfacet
facet normal 0.0 0.0 -1.0
  outer loop
    vertex 44.9250490529052 270.95403827696185 0.0
    vertex 45.04795501638803 286.48643827696185 0.0
    vertex 45.960461388366774 279.5552642491163 0.0
  endloop
endfacet
facet normal 0.0 0.0 -1.0
  outer loop
    vertex 44.9250490529052 270.95403827696185 0.0
    vertex 45.960461388366774 279.5552642491163 0.0
    vertex 48.63579470304075 273.0964382769618 0.0
  endloop
endfacet
facet normal 0.7933533402912332 0.6087614290087232 -4.052678176248632e-15
  outer loop
    vertex 96.8787705232053 304.4325295528855 26.508733921632263
    vertex 96.8787705232053 304.4325295528855 27.05126607836774
    vertex 96.90051113290093 304.4041966387091 26.780000000000005
  endloop
endfacet
facet normal 0.7933533402912332 0.6087614290087232 -4.052678176248632e-15
  outer loop
    vertex 96.8787705232053 304.4325295528855 27.05126607836774
    vertex 96.8787705232053 304.4325295528855 26.508733921632263
    vertex 96.81503028074107 304.5155974541359 26.255954178216765
  endloop
endfacet
facet normal 0.7933533402912332 0.6087614290087232 -4.052678176248632e-15
  outer loop
    vertex 96.8787705232053 304.4325295528855 27.05126607836774
    vertex 96.81503028074107 304.5155974541359 26.255954178216765
    vertex 96.81503028074108 304.5155974541359 27.304045821783237
  endloop
endfacet
facet normal 0.7933533402912332 0.6087614290087232 -4.052678176248632e-15
  outer loop
    vertex 96.81503028074108 304.5155974541359 27.304045821783237
    vertex 96.81503028074107 304.5155974541359 26.255954178216765
    vertex 96.71363419769654 304.6477394022662 26.038887291529303
  endloop
endfacet
facet normal 0.7933533402912332 0.6087614290087232 -4.052678176248632e-15
  outer loop
    vertex 96.81503028074108 304.5155974541359 27.304045821783237
    vertex 96.71363419769654 304.6477394022662 26.038887291529303
    vertex 96.71363419769655 304.6477394022662 27.5211127084707
  endloop
endfacet
facet normal 0.7933533402912332 0.6087614290087232 -4.052678176248632e-15
  outer loop
    vertex 96.71363419769655 304.6477394022662 27.5211127084707
    vertex 96.71363419769654 304.6477394022662 26.038887291529303
    vertex 96.58149224956615 304.81995014188647 25.87232601117737
  endloop
endfacet
facet normal 0.7933533402912332 0.6087614290087232 -4.052678176248632e-15
  outer loop
    vertex 96.71363419769655 304.6477394022662 27.5211127084707
    vertex 96.58149224956615 304.81995014188647 25.87232601117737
    vertex 96.58149224956615 304.81995014188647 27.687673988822635
  endloop
endfacet
facet normal 0.7933533402912332 0.6087614290087232 -4.052678176248632e-15
  outer loop
    vertex 96.58149224956615 304.81995014188647 27.687673988822635
    vertex 96.58149224956615 304.81995014188647 25.87232601117737
    vertex 96.42760969174012 305.020493795683 25.767621213161515
  endloop
endfacet
facet normal 0.7933533402912332 0.6087614290087232 -4.052678176248632e-15
  outer loop
    vertex 96.58149224956615 304.81995014188647 27.687673988822635
    vertex 96.42760969174012 305.020493795683 25.767621213161515
    vertex 96.42760969174013 305.020493795683 27.79237878683849
  endloop
endfacet
facet normal 0.7933533402912332 0.6087614290087232 -4.052678176248632e-15
  outer loop
    vertex 96.42760969174013 305.020493795683 27.79237878683849
    vertex 96.42760969174012 305.020493795683 25.767621213161515
    vertex 96.2624733662314 305.2357036450638 25.731908356433664
  endloop
endfacet
facet normal 0.7933533402912332 0.6087614290087232 -4.052678176248632e-15
  outer loop
    vertex 96.42760969174013 305.020493795683 27.79237878683849
    vertex 96.2624733662314 305.2357036450638 25.731908356433664
    vertex 96.26247336623136 305.2357036450638 27.828091643566342
  endloop
endfacet
facet normal 0.7933533402912332 0.6087614290087232 -4.052678176248632e-15
  outer loop
    vertex 96.26247336623136 305.2357036450638 27.828091643566342
    vertex 96.2624733662314 305.2357036450638 25.731908356433664
    vertex 96.09733704072262 305.4509134944446 25.767621213161515
  endloop
endfacet
facet normal 0.7933533402912332 0.6087614290087232 -4.052678176248632e-15
  outer loop
    vertex 96.26247336623136 305.2357036450638 27.828091643566342
    vertex 96.09733704072262 305.4509134944446 25.767621213161515
    vertex 96.09733704072264 305.4509134944446 27.79237878683849
  endloop
endfacet
facet normal 0.7933533402912332 0.6087614290087232 -4.052678176248632e-15
  outer loop
    vertex 96.09733704072264 305.4509134944446 27.79237878683849
    vertex 96.09733704072262 305.4509134944446 25.767621213161515
    vertex 95.9434544828966 305.65145714824115 25.87232601117738
  endloop
endfacet
facet normal 0.7933533402912332 0.6087614290087232 -4.052678176248632e-15
  outer loop
    vertex 96.09733704072264 305.4509134944446 27.79237878683849
    vertex 95.9434544828966 305.65145714824115 25.87232601117738
    vertex 95.94345448289664 305.6514571482411 27.687673988822663
  endloop
endfacet
facet normal 0.7933533402912332 0.6087614290087232 -4.052678176248632e-15
  outer loop
    vertex 95.94345448289664 305.6514571482411 27.687673988822663
    vertex 95.9434544828966 305.65145714824115 25.87232601117738
    vertex 95.81131253476617 305.82366788786135 27.521112708470664
  endloop
endfacet
facet normal 0.7933533402912332 0.6087614290087232 -4.052678176248632e-15
  outer loop
    vertex 95.81131253476617 305.82366788786135 27.521112708470664
    vertex 95.9434544828966 305.65145714824115 25.87232601117738
    vertex 95.8113125347662 305.82366788786135 26.03888729152931
  endloop
endfacet
facet normal 0.7933533402912332 0.6087614290087232 -4.052678176248632e-15
  outer loop
    vertex 95.81131253476617 305.82366788786135 27.521112708470664
    vertex 95.8113125347662 305.82366788786135 26.03888729152931
    vertex 95.70991645172168 305.95580983599166 26.255954178216758
  endloop
endfacet
facet normal 0.7933533402912332 0.6087614290087232 -4.052678176248632e-15
  outer loop
    vertex 95.81131253476617 305.82366788786135 27.521112708470664
    vertex 95.70991645172168 305.95580983599166 26.255954178216758
    vertex 95.7099164517217 305.95580983599166 27.304045821783223
  endloop
endfacet
facet normal 0.7933533402912332 0.6087614290087232 -4.052678176248632e-15
  outer loop
    vertex 95.7099164517217 305.95580983599166 27.304045821783223
    vertex 95.70991645172168 305.95580983599166 26.255954178216758
    vertex 95.64617620925745 306.0388777372421 26.508733921632263
  endloop
endfacet
facet normal 0.7933533402912332 0.6087614290087232 -4.052678176248632e-15
  outer loop
    vertex 95.7099164517217 305.95580983599166 27.304045821783223
    vertex 95.64617620925745 306.0388777372421 26.508733921632263
    vertex 95.64617620925745 306.0388777372421 27.05126607836774
  endloop
endfacet
facet normal 0.7933533402912332 0.6087614290087232 -4.052678176248632e-15
  outer loop
    vertex 95.64617620925745 306.0388777372421 27.05126607836774
    vertex 95.64617620925745 306.0388777372421 26.508733921632263
    vertex 95.62443559956182 306.06721065141846 26.780000000000005
  endloop
endfacet
facet normal 0.7933533402912342 0.608761429008722 -3.043200741945868e-16
  outer loop
    vertex 93.7940857525919 308.4525690131657 0.0
    vertex 98.73086097987087 302.01883827696184 26.780000000000005
    vertex 98.73086097987087 302.01883827696184 0.0
  endloop
endfacet
facet normal 0.7933533402912342 0.608761429008722 -3.043200741945868e-16
  outer loop
    vertex 98.73086097987087 302.01883827696184 26.780000000000005
    vertex 93.7940857525919 308.4525690131657 0.0
    vertex 98.46707190025295 302.3626148985984 25.809635636101632
  endloop
endfacet
facet normal 0.7933533402912342 0.608761429008722 -3.043200741945868e-16
  outer loop
    vertex 98.73086097987087 302.01883827696184 26.780000000000005
    vertex 98.46707190025295 302.3626148985984 25.809635636101632
    vertex 98.54484171587087 302.2612633016439 26.780000000000005
  endloop
endfacet
facet normal 0.7933533402912342 0.608761429008722 -3.043200741945868e-16
  outer loop
    vertex 98.46707190025295 302.3626148985984 25.809635636101632
    vertex 93.7940857525919 308.4525690131657 0.0
    vertex 98.23906233781275 302.65976274562087 24.905400000000007
  endloop
endfacet
facet normal 0.7933533402912342 0.608761429008722 -3.043200741945868e-16
  outer loop
    vertex 98.23906233781275 302.65976274562087 24.905400000000007
    vertex 93.7940857525919 308.4525690131657 0.0
    vertex 97.87635150342702 303.13245670799677 24.128915255975407
  endloop
endfacet
facet normal 0.7933533402912342 0.608761429008722 -3.043200741945868e-16
  outer loop
    vertex 97.87635150342702 303.13245670799677 24.128915255975407
    vertex 93.7940857525919 308.4525690131657 0.0
    vertex 97.40365754105113 303.7484834733539 23.533097556131395
  endloop
endfacet
facet normal 0.7933533402912342 0.608761429008722 -3.043200741945868e-16
  outer loop
    vertex 97.40365754105113 303.7484834733539 23.533097556131395
    vertex 93.7940857525919 308.4525690131657 0.0
    vertex 96.85319376305729 304.46586183566546 23.158550892077038
  endloop
endfacet
facet normal 0.7933533402912342 0.608761429008722 -3.043200741945868e-16
  outer loop
    vertex 96.85319376305729 304.46586183566546 23.158550892077038
    vertex 93.7940857525919 308.4525690131657 0.0
    vertex 96.26247336623138 305.2357036450638 23.030800000000017
  endloop
endfacet
facet normal 0.7933533402912342 0.608761429008722 -3.043200741945868e-16
  outer loop
    vertex 96.26247336623138 305.2357036450638 23.030800000000017
    vertex 93.7940857525919 308.4525690131657 0.0
    vertex 95.67175296940547 306.00554545446215 23.15855089207704
  endloop
endfacet
facet normal 0.7933533402912342 0.608761429008722 -3.043200741945868e-16
  outer loop
    vertex 95.67175296940547 306.00554545446215 23.15855089207704
    vertex 93.7940857525919 308.4525690131657 0.0
    vertex 95.12128919141163 306.72292381677374 23.533097556131395
  endloop
endfacet
facet normal 0.7933533402912342 0.608761429008722 -3.043200741945868e-16
  outer loop
    vertex 95.12128919141163 306.72292381677374 23.533097556131395
    vertex 93.7940857525919 308.4525690131657 0.0
    vertex 94.64859522903573 307.33895058213085 24.128915255975407
  endloop
endfacet
facet normal 0.7933533402912342 0.608761429008722 -3.043200741945868e-16
  outer loop
    vertex 94.64859522903573 307.33895058213085 24.128915255975407
    vertex 93.7940857525919 308.4525690131657 0.0
    vertex 94.28588439465001 307.81164454450675 24.90540000000001
  endloop
endfacet
facet normal 0.7933533402912342 0.608761429008722 -3.043200741945868e-16
  outer loop
    vertex 94.28588439465001 307.81164454450675 24.90540000000001
    vertex 93.7940857525919 308.4525690131657 0.0
    vertex 94.05787483220982 308.1087923915292 25.80963563610164
  endloop
endfacet
facet normal 0.7933533402912342 0.608761429008722 -3.043200741945868e-16
  outer loop
    vertex 94.05787483220982 308.1087923915292 25.80963563610164
    vertex 93.7940857525919 308.4525690131657 0.0
    vertex 93.98010501659188 308.2101439884837 26.780000000000005
  endloop
endfacet
facet normal 0.7933533402912342 0.608761429008722 -3.043200741945868e-16
  outer loop
    vertex 93.98010501659188 308.2101439884837 26.780000000000005
    vertex 93.7940857525919 308.4525690131657 0.0
    vertex 93.7940857525919 308.4525690131657 26.780000000000005
  endloop
endfacet
endsolid oficina
